<svg width="230" height="60" viewBox="0 0 230 60" fill="none" xmlns="http://www.w3.org/2000/svg">
<rect x="1" y="-1" width="228" height="58" rx="9" transform="matrix(1 0 0 -1 0 58)" fill="#FFE485" stroke="black" stroke-width="2"/>
<path d="M41.0994 12.5H39.7784C39.7003 12.12 39.5636 11.7862 39.3683 11.4986C39.1765 11.2109 38.9421 10.9695 38.6651 10.7741C38.3917 10.5753 38.0881 10.4261 37.7543 10.3267C37.4205 10.2273 37.0724 10.1776 36.7102 10.1776C36.0497 10.1776 35.4513 10.3445 34.9151 10.6783C34.3825 11.0121 33.9581 11.5039 33.642 12.1538C33.3295 12.8036 33.1733 13.6009 33.1733 14.5455C33.1733 15.4901 33.3295 16.2873 33.642 16.9371C33.9581 17.587 34.3825 18.0788 34.9151 18.4126C35.4513 18.7464 36.0497 18.9134 36.7102 18.9134C37.0724 18.9134 37.4205 18.8636 37.7543 18.7642C38.0881 18.6648 38.3917 18.5174 38.6651 18.3221C38.9421 18.1232 39.1765 17.88 39.3683 17.5923C39.5636 17.3011 39.7003 16.9673 39.7784 16.5909H41.0994C41 17.1484 40.8189 17.6474 40.5561 18.0877C40.2933 18.5281 39.9666 18.9027 39.576 19.2116C39.1854 19.517 38.7468 19.7496 38.2603 19.9094C37.7773 20.0692 37.2607 20.1491 36.7102 20.1491C35.7798 20.1491 34.9524 19.9219 34.228 19.4673C33.5036 19.0128 32.9336 18.3665 32.5181 17.5284C32.1026 16.6903 31.8949 15.696 31.8949 14.5455C31.8949 13.3949 32.1026 12.4006 32.5181 11.5625C32.9336 10.7244 33.5036 10.0781 34.228 9.62358C34.9524 9.16903 35.7798 8.94176 36.7102 8.94176C37.2607 8.94176 37.7773 9.02166 38.2603 9.18146C38.7468 9.34126 39.1854 9.57564 39.576 9.88459C39.9666 10.19 40.2933 10.5629 40.5561 11.0032C40.8189 11.44 41 11.9389 41.0994 12.5ZM56.6574 14.5455C56.6574 15.696 56.4497 16.6903 56.0342 17.5284C55.6187 18.3665 55.0487 19.0128 54.3243 19.4673C53.5999 19.9219 52.7725 20.1491 51.8421 20.1491C50.9117 20.1491 50.0843 19.9219 49.3598 19.4673C48.6354 19.0128 48.0654 18.3665 47.6499 17.5284C47.2345 16.6903 47.0267 15.696 47.0267 14.5455C47.0267 13.3949 47.2345 12.4006 47.6499 11.5625C48.0654 10.7244 48.6354 10.0781 49.3598 9.62358C50.0843 9.16903 50.9117 8.94176 51.8421 8.94176C52.7725 8.94176 53.5999 9.16903 54.3243 9.62358C55.0487 10.0781 55.6187 10.7244 56.0342 11.5625C56.4497 12.4006 56.6574 13.3949 56.6574 14.5455ZM55.379 14.5455C55.379 13.6009 55.221 12.8036 54.9049 12.1538C54.5924 11.5039 54.1681 11.0121 53.6318 10.6783C53.0992 10.3445 52.5026 10.1776 51.8421 10.1776C51.1816 10.1776 50.5832 10.3445 50.047 10.6783C49.5143 11.0121 49.0899 11.5039 48.7739 12.1538C48.4614 12.8036 48.3051 13.6009 48.3051 14.5455C48.3051 15.4901 48.4614 16.2873 48.7739 16.9371C49.0899 17.587 49.5143 18.0788 50.047 18.4126C50.5832 18.7464 51.1816 18.9134 51.8421 18.9134C52.5026 18.9134 53.0992 18.7464 53.6318 18.4126C54.1681 18.0788 54.5924 17.587 54.9049 16.9371C55.221 16.2873 55.379 15.4901 55.379 14.5455ZM63.0974 20V9.09091H64.4184V18.8281H69.4894V20H63.0974ZM84.9582 14.5455C84.9582 15.696 84.7504 16.6903 84.335 17.5284C83.9195 18.3665 83.3495 19.0128 82.6251 19.4673C81.9007 19.9219 81.0732 20.1491 80.1428 20.1491C79.2124 20.1491 78.385 19.9219 77.6606 19.4673C76.9362 19.0128 76.3662 18.3665 75.9507 17.5284C75.5352 16.6903 75.3275 15.696 75.3275 14.5455C75.3275 13.3949 75.5352 12.4006 75.9507 11.5625C76.3662 10.7244 76.9362 10.0781 77.6606 9.62358C78.385 9.16903 79.2124 8.94176 80.1428 8.94176C81.0732 8.94176 81.9007 9.16903 82.6251 9.62358C83.3495 10.0781 83.9195 10.7244 84.335 11.5625C84.7504 12.4006 84.9582 13.3949 84.9582 14.5455ZM83.6798 14.5455C83.6798 13.6009 83.5218 12.8036 83.2057 12.1538C82.8932 11.5039 82.4688 11.0121 81.9326 10.6783C81.3999 10.3445 80.8034 10.1776 80.1428 10.1776C79.4823 10.1776 78.884 10.3445 78.3477 10.6783C77.8151 11.0121 77.3907 11.5039 77.0747 12.1538C76.7622 12.8036 76.6059 13.6009 76.6059 14.5455C76.6059 15.4901 76.7622 16.2873 77.0747 16.9371C77.3907 17.587 77.8151 18.0788 78.3477 18.4126C78.884 18.7464 79.4823 18.9134 80.1428 18.9134C80.8034 18.9134 81.3999 18.7464 81.9326 18.4126C82.4688 18.0788 82.8932 17.587 83.2057 16.9371C83.5218 16.2873 83.6798 15.4901 83.6798 14.5455ZM91.3982 20V9.09091H95.0843C95.9365 9.09091 96.6361 9.23651 97.183 9.5277C97.7298 9.81534 98.1347 10.2113 98.3975 10.7156C98.6602 11.2198 98.7916 11.7933 98.7916 12.4361C98.7916 13.0788 98.6602 13.6488 98.3975 14.146C98.1347 14.6431 97.7316 15.0337 97.1883 15.3178C96.645 15.5984 95.9507 15.7386 95.1056 15.7386H92.1226V14.5455H95.0629C95.6453 14.5455 96.1141 14.4602 96.4692 14.2898C96.8279 14.1193 97.0871 13.8778 97.2469 13.5653C97.4102 13.2493 97.4919 12.8729 97.4919 12.4361C97.4919 11.9993 97.4102 11.6175 97.2469 11.2908C97.0835 10.9641 96.8225 10.712 96.4639 10.5344C96.1052 10.3533 95.6311 10.2628 95.0416 10.2628H92.7192V20H91.3982ZM96.5331 15.0994L99.2178 20H97.6837L95.0416 15.0994H96.5331Z" fill="black"/>
<path fill-rule="evenodd" clip-rule="evenodd" d="M10 9C10 8.46957 10.2107 7.96086 10.5858 7.58579C10.9609 7.21071 11.4696 7 12 7H22C22.5304 7 23.0391 7.21071 23.4142 7.58579C23.7893 7.96086 24 8.46957 24 9V19C24 19.5304 23.7893 20.0391 23.4142 20.4142C23.0391 20.7893 22.5304 21 22 21H12C11.4696 21 10.9609 20.7893 10.5858 20.4142C10.2107 20.0391 10 19.5304 10 19V9ZM21 10H13V18L17 16L21 18V10Z" fill="black"/>
</svg>
