<svg width="63" height="62" viewBox="0 0 63 62" fill="none" xmlns="http://www.w3.org/2000/svg">
<path d="M62.5 31C62.5 47.8372 48.6284 61.5 31.5 61.5C14.3716 61.5 0.5 47.8372 0.5 31C0.5 14.1628 14.3716 0.5 31.5 0.5C48.6284 0.5 62.5 14.1628 62.5 31Z" fill="#FFE485" stroke="black"/>
<path fill-rule="evenodd" clip-rule="evenodd" d="M31.368 16.731C31.1036 16.58 30.8045 16.5005 30.5 16.5005C30.1955 16.5005 29.8964 16.58 29.632 16.731L17.382 23.731C17.0472 23.9225 16.785 24.2193 16.6363 24.5753C16.4876 24.9312 16.4606 25.3263 16.5596 25.6991C16.6586 26.0719 16.878 26.4016 17.1837 26.6368C17.4894 26.8721 17.8643 26.9998 18.25 27V39.25C17.7859 39.25 17.3408 39.4344 17.0126 39.7625C16.6844 40.0907 16.5 40.5359 16.5 41C16.5 41.4641 16.6844 41.9092 17.0126 42.2374C17.3408 42.5656 17.7859 42.75 18.25 42.75H42.75C43.2141 42.75 43.6592 42.5656 43.9874 42.2374C44.3156 41.9092 44.5 41.4641 44.5 41C44.5 40.5359 44.3156 40.0907 43.9874 39.7625C43.6592 39.4344 43.2141 39.25 42.75 39.25V27C43.1357 26.9998 43.5106 26.8721 43.8163 26.6368C44.122 26.4016 44.3414 26.0719 44.4404 25.6991C44.5394 25.3263 44.5124 24.9312 44.3637 24.5753C44.215 24.2193 43.9528 23.9225 43.618 23.731L31.368 16.731V16.731ZM23.5 28.75C23.0359 28.75 22.5908 28.9344 22.2626 29.2625C21.9344 29.5907 21.75 30.0359 21.75 30.5V35.75C21.75 36.2141 21.9344 36.6592 22.2626 36.9874C22.5908 37.3156 23.0359 37.5 23.5 37.5C23.9641 37.5 24.4092 37.3156 24.7374 36.9874C25.0656 36.6592 25.25 36.2141 25.25 35.75V30.5C25.25 30.0359 25.0656 29.5907 24.7374 29.2625C24.4092 28.9344 23.9641 28.75 23.5 28.75ZM28.75 30.5C28.75 30.0359 28.9344 29.5907 29.2626 29.2625C29.5908 28.9344 30.0359 28.75 30.5 28.75C30.9641 28.75 31.4092 28.9344 31.7374 29.2625C32.0656 29.5907 32.25 30.0359 32.25 30.5V35.75C32.25 36.2141 32.0656 36.6592 31.7374 36.9874C31.4092 37.3156 30.9641 37.5 30.5 37.5C30.0359 37.5 29.5908 37.3156 29.2626 36.9874C28.9344 36.6592 28.75 36.2141 28.75 35.75V30.5ZM37.5 28.75C37.0359 28.75 36.5908 28.9344 36.2626 29.2625C35.9344 29.5907 35.75 30.0359 35.75 30.5V35.75C35.75 36.2141 35.9344 36.6592 36.2626 36.9874C36.5908 37.3156 37.0359 37.5 37.5 37.5C37.9641 37.5 38.4092 37.3156 38.7374 36.9874C39.0656 36.6592 39.25 36.2141 39.25 35.75V30.5C39.25 30.0359 39.0656 29.5907 38.7374 29.2625C38.4092 28.9344 37.9641 28.75 37.5 28.75Z" fill="black"/>
</svg>
