<svg width="230" height="60" viewBox="0 0 230 60" fill="none" xmlns="http://www.w3.org/2000/svg">
<rect x="1" y="-1" width="228" height="58" rx="9" transform="matrix(1 0 0 -1 0 58)" fill="#FFE485" stroke="black" stroke-width="2"/>
<path d="M35.321 10.0909H36.8977L40.6051 19.1463H40.733L44.4403 10.0909H46.017V21H44.7812V12.7116H44.6747L41.2656 21H40.0724L36.6634 12.7116H36.5568V21H35.321V10.0909ZM62.089 15.5455C62.089 16.696 61.8813 17.6903 61.4658 18.5284C61.0503 19.3665 60.4804 20.0128 59.7559 20.4673C59.0315 20.9219 58.2041 21.1491 57.2737 21.1491C56.3433 21.1491 55.5159 20.9219 54.7915 20.4673C54.067 20.0128 53.4971 19.3665 53.0816 18.5284C52.6661 17.6903 52.4584 16.696 52.4584 15.5455C52.4584 14.3949 52.6661 13.4006 53.0816 12.5625C53.4971 11.7244 54.067 11.0781 54.7915 10.6236C55.5159 10.169 56.3433 9.94176 57.2737 9.94176C58.2041 9.94176 59.0315 10.169 59.7559 10.6236C60.4804 11.0781 61.0503 11.7244 61.4658 12.5625C61.8813 13.4006 62.089 14.3949 62.089 15.5455ZM60.8106 15.5455C60.8106 14.6009 60.6526 13.8036 60.3366 13.1538C60.0241 12.5039 59.5997 12.0121 59.0635 11.6783C58.5308 11.3445 57.9342 11.1776 57.2737 11.1776C56.6132 11.1776 56.0148 11.3445 55.4786 11.6783C54.9459 12.0121 54.5216 12.5039 54.2055 13.1538C53.893 13.8036 53.7368 14.6009 53.7368 15.5455C53.7368 16.4901 53.893 17.2873 54.2055 17.9371C54.5216 18.587 54.9459 19.0788 55.4786 19.4126C56.0148 19.7464 56.6132 19.9134 57.2737 19.9134C57.9342 19.9134 58.5308 19.7464 59.0635 19.4126C59.5997 19.0788 60.0241 18.587 60.3366 17.9371C60.6526 17.2873 60.8106 16.4901 60.8106 15.5455ZM71.8955 21H68.529V10.0909H72.0447C73.1029 10.0909 74.0084 10.3093 74.7613 10.7461C75.5141 11.1793 76.0912 11.8026 76.4925 12.6158C76.8937 13.4254 77.0944 14.3949 77.0944 15.5241C77.0944 16.6605 76.892 17.6388 76.4871 18.4592C76.0823 19.2759 75.4928 19.9045 74.7187 20.3448C73.9445 20.7816 73.0035 21 71.8955 21ZM69.8501 19.8281H71.8103C72.7123 19.8281 73.4598 19.6541 74.0528 19.3061C74.6459 18.9581 75.088 18.4627 75.3792 17.82C75.6704 17.1772 75.816 16.4119 75.816 15.5241C75.816 14.6435 75.6721 13.8853 75.3845 13.2496C75.0969 12.6104 74.6672 12.1204 74.0954 11.7795C73.5237 11.435 72.8117 11.2628 71.9594 11.2628H69.8501V19.8281ZM83.529 21V10.0909H90.1128V11.2628H84.8501V14.9489H89.7719V16.1207H84.8501V19.8281H90.1981V21H83.529ZM96.7126 21V10.0909H98.0336V19.8281H103.105V21H96.7126Z" fill="black"/>
<path fill-rule="evenodd" clip-rule="evenodd" d="M12 11C12 10.4696 12.2107 9.96086 12.5858 9.58579C12.9609 9.21071 13.4696 9 14 9H24C24.5304 9 25.0391 9.21071 25.4142 9.58579C25.7893 9.96086 26 10.4696 26 11V21C26 21.5304 25.7893 22.0391 25.4142 22.4142C25.0391 22.7893 24.5304 23 24 23H14C13.4696 23 12.9609 22.7893 12.5858 22.4142C12.2107 22.0391 12 21.5304 12 21V11ZM23 12H15V20L19 18L23 20V12Z" fill="black"/>
</svg>
