<svg width="63" height="62" viewBox="0 0 63 62" fill="none" xmlns="http://www.w3.org/2000/svg">
<path d="M62.5 31C62.5 47.8372 48.6284 61.5 31.5 61.5C14.3716 61.5 0.5 47.8372 0.5 31C0.5 14.1628 14.3716 0.5 31.5 0.5C48.6284 0.5 62.5 14.1628 62.5 31Z" fill="#FFE485" stroke="black"/>
<path d="M35.5133 29.752L30.851 26.554C30.6312 26.4031 30.3757 26.3165 30.1117 26.3035C29.8477 26.2904 29.5853 26.3514 29.3524 26.4799C29.1195 26.6084 28.9249 26.7995 28.7895 27.0329C28.654 27.2663 28.5828 27.5332 28.5833 27.805V34.1995C28.5833 34.4711 28.6549 34.7375 28.7906 34.9705C28.9263 35.2035 29.1209 35.3942 29.3537 35.5223C29.5865 35.6504 29.8487 35.7111 30.1124 35.6979C30.3761 35.6848 30.6314 35.5982 30.851 35.4475L35.5133 32.2495C35.7131 32.1125 35.8768 31.9269 35.9901 31.7092C36.1034 31.4915 36.1626 31.2484 36.1626 31.0015C36.1626 30.7546 36.1034 30.5115 35.9901 30.2938C35.8768 30.0761 35.7131 29.8905 35.5133 29.7535V29.752Z" stroke="black" stroke-width="2" stroke-linecap="round" stroke-linejoin="round"/>
<path d="M44.625 31C44.625 32.7728 44.2855 34.5283 43.6259 36.1662C42.9663 37.8041 41.9995 39.2923 40.7808 40.5459C39.562 41.7995 38.1151 42.7939 36.5227 43.4724C34.9303 44.1508 33.2236 44.5 31.5 44.5C29.7764 44.5 28.0697 44.1508 26.4773 43.4724C24.8849 42.7939 23.438 41.7995 22.2192 40.5459C21.0005 39.2923 20.0337 37.8041 19.3741 36.1662C18.7145 34.5283 18.375 32.7728 18.375 31C18.375 27.4196 19.7578 23.9858 22.2192 21.4541C24.6806 18.9223 28.019 17.5 31.5 17.5C34.981 17.5 38.3194 18.9223 40.7808 21.4541C43.2422 23.9858 44.625 27.4196 44.625 31Z" stroke="black" stroke-width="2" stroke-linecap="round" stroke-linejoin="round"/>
</svg>
