<svg width="520" height="700" viewBox="0 0 520 700" fill="none" xmlns="http://www.w3.org/2000/svg">
<rect width="520" height="700" fill="#FFF7D9"/>
<path d="M22 256H494V534H22V256Z" fill="white" stroke="black" stroke-width="2"/>
<rect x="99" y="14" width="317" height="58" fill="#DDAC00" stroke="black" stroke-width="2"/>
<path d="M144.455 43.3636C144.455 45.8182 144.011 47.9394 143.125 49.7273C142.239 51.5152 141.023 52.8939 139.477 53.8636C137.932 54.8333 136.167 55.3182 134.182 55.3182C132.197 55.3182 130.432 54.8333 128.886 53.8636C127.341 52.8939 126.125 51.5152 125.239 49.7273C124.352 47.9394 123.909 45.8182 123.909 43.3636C123.909 40.9091 124.352 38.7879 125.239 37C126.125 35.2121 127.341 33.8333 128.886 32.8636C130.432 31.8939 132.197 31.4091 134.182 31.4091C136.167 31.4091 137.932 31.8939 139.477 32.8636C141.023 33.8333 142.239 35.2121 143.125 37C144.011 38.7879 144.455 40.9091 144.455 43.3636ZM141.727 43.3636C141.727 41.3485 141.39 39.6477 140.716 38.2614C140.049 36.875 139.144 35.8258 138 35.1136C136.864 34.4015 135.591 34.0455 134.182 34.0455C132.773 34.0455 131.496 34.4015 130.352 35.1136C129.216 35.8258 128.311 36.875 127.636 38.2614C126.97 39.6477 126.636 41.3485 126.636 43.3636C126.636 45.3788 126.97 47.0795 127.636 48.4659C128.311 49.8523 129.216 50.9015 130.352 51.6136C131.496 52.3258 132.773 52.6818 134.182 52.6818C135.591 52.6818 136.864 52.3258 138 51.6136C139.144 50.9015 140.049 49.8523 140.716 48.4659C141.39 47.0795 141.727 45.3788 141.727 43.3636ZM149.193 55V31.7273H157.33C158.951 31.7273 160.288 32.0076 161.341 32.5682C162.394 33.1212 163.178 33.8674 163.693 34.8068C164.208 35.7386 164.466 36.7727 164.466 37.9091C164.466 38.9091 164.288 39.7348 163.932 40.3864C163.583 41.0379 163.121 41.553 162.545 41.9318C161.977 42.3106 161.36 42.5909 160.693 42.7727V43C161.405 43.0455 162.121 43.2955 162.841 43.75C163.561 44.2045 164.163 44.8561 164.648 45.7045C165.133 46.553 165.375 47.5909 165.375 48.8182C165.375 49.9848 165.11 51.0341 164.58 51.9659C164.049 52.8977 163.212 53.6364 162.068 54.1818C160.924 54.7273 159.436 55 157.602 55H149.193ZM152.011 52.5H157.602C159.443 52.5 160.75 52.1439 161.523 51.4318C162.303 50.7121 162.693 49.8409 162.693 48.8182C162.693 48.0303 162.492 47.303 162.091 46.6364C161.689 45.9621 161.117 45.4242 160.375 45.0227C159.633 44.6136 158.754 44.4091 157.739 44.4091H152.011V52.5ZM152.011 41.9545H157.239C158.087 41.9545 158.852 41.7879 159.534 41.4545C160.223 41.1212 160.769 40.6515 161.17 40.0455C161.58 39.4394 161.784 38.7273 161.784 37.9091C161.784 36.8864 161.428 36.0189 160.716 35.3068C160.004 34.5871 158.875 34.2273 157.33 34.2273H152.011V41.9545ZM178.915 31.7273H181.733V48.3636C181.733 49.8485 181.46 51.1098 180.915 52.1477C180.369 53.1856 179.6 53.9735 178.608 54.5114C177.616 55.0492 176.445 55.3182 175.097 55.3182C173.824 55.3182 172.691 55.0871 171.699 54.625C170.706 54.1553 169.926 53.4886 169.358 52.625C168.79 51.7614 168.506 50.7348 168.506 49.5455H171.278C171.278 50.2045 171.441 50.7803 171.767 51.2727C172.1 51.7576 172.555 52.1364 173.131 52.4091C173.706 52.6818 174.362 52.8182 175.097 52.8182C175.907 52.8182 176.597 52.6477 177.165 52.3068C177.733 51.9659 178.165 51.4659 178.46 50.8068C178.763 50.1402 178.915 49.3258 178.915 48.3636V31.7273ZM187.381 55V31.7273H201.426V34.2273H190.199V42.0909H200.699V44.5909H190.199V52.5H201.608V55H187.381ZM225.233 39H222.415C222.248 38.1894 221.956 37.4773 221.54 36.8636C221.131 36.25 220.631 35.7348 220.04 35.3182C219.456 34.8939 218.809 34.5758 218.097 34.3636C217.384 34.1515 216.642 34.0455 215.869 34.0455C214.46 34.0455 213.184 34.4015 212.04 35.1136C210.903 35.8258 209.998 36.875 209.324 38.2614C208.657 39.6477 208.324 41.3485 208.324 43.3636C208.324 45.3788 208.657 47.0795 209.324 48.4659C209.998 49.8523 210.903 50.9015 212.04 51.6136C213.184 52.3258 214.46 52.6818 215.869 52.6818C216.642 52.6818 217.384 52.5758 218.097 52.3636C218.809 52.1515 219.456 51.8371 220.04 51.4205C220.631 50.9962 221.131 50.4773 221.54 49.8636C221.956 49.2424 222.248 48.5303 222.415 47.7273H225.233C225.021 48.9167 224.634 49.9811 224.074 50.9205C223.513 51.8598 222.816 52.6591 221.983 53.3182C221.15 53.9697 220.214 54.4659 219.176 54.8068C218.146 55.1477 217.044 55.3182 215.869 55.3182C213.884 55.3182 212.119 54.8333 210.574 53.8636C209.028 52.8939 207.813 51.5152 206.926 49.7273C206.04 47.9394 205.597 45.8182 205.597 43.3636C205.597 40.9091 206.04 38.7879 206.926 37C207.813 35.2121 209.028 33.8333 210.574 32.8636C212.119 31.8939 213.884 31.4091 215.869 31.4091C217.044 31.4091 218.146 31.5795 219.176 31.9205C220.214 32.2614 221.15 32.7614 221.983 33.4205C222.816 34.072 223.513 34.8674 224.074 35.8068C224.634 36.7386 225.021 37.803 225.233 39ZM228.514 34.2273V31.7273H245.969V34.2273H238.651V55H235.832V34.2273H228.514Z" fill="black"/>
<path d="M260.273 31.7273L267.182 51.3182H267.455L274.364 31.7273H277.318L268.773 55H265.864L257.318 31.7273H260.273ZM280.943 55V31.7273H294.989V34.2273H283.761V42.0909H294.261V44.5909H283.761V52.5H295.17V55H280.943ZM300.068 55V31.7273H302.886V42.0909H315.295V31.7273H318.114V55H315.295V44.5909H302.886V55H300.068ZM326.574 31.7273V55H323.756V31.7273H326.574ZM350.952 39H348.134C347.967 38.1894 347.675 37.4773 347.259 36.8636C346.849 36.25 346.349 35.7348 345.759 35.3182C345.175 34.8939 344.527 34.5758 343.815 34.3636C343.103 34.1515 342.361 34.0455 341.588 34.0455C340.179 34.0455 338.902 34.4015 337.759 35.1136C336.622 35.8258 335.717 36.875 335.043 38.2614C334.376 39.6477 334.043 41.3485 334.043 43.3636C334.043 45.3788 334.376 47.0795 335.043 48.4659C335.717 49.8523 336.622 50.9015 337.759 51.6136C338.902 52.3258 340.179 52.6818 341.588 52.6818C342.361 52.6818 343.103 52.5758 343.815 52.3636C344.527 52.1515 345.175 51.8371 345.759 51.4205C346.349 50.9962 346.849 50.4773 347.259 49.8636C347.675 49.2424 347.967 48.5303 348.134 47.7273H350.952C350.74 48.9167 350.353 49.9811 349.793 50.9205C349.232 51.8598 348.535 52.6591 347.702 53.3182C346.868 53.9697 345.933 54.4659 344.895 54.8068C343.865 55.1477 342.762 55.3182 341.588 55.3182C339.603 55.3182 337.838 54.8333 336.293 53.8636C334.747 52.8939 333.531 51.5152 332.645 49.7273C331.759 47.9394 331.315 45.8182 331.315 43.3636C331.315 40.9091 331.759 38.7879 332.645 37C333.531 35.2121 334.747 33.8333 336.293 32.8636C337.838 31.8939 339.603 31.4091 341.588 31.4091C342.762 31.4091 343.865 31.5795 344.895 31.9205C345.933 32.2614 346.868 32.7614 347.702 33.4205C348.535 34.072 349.232 34.8674 349.793 35.8068C350.353 36.7386 350.74 37.803 350.952 39ZM355.506 55V31.7273H358.324V52.5H369.142V55H355.506ZM373.506 55V31.7273H387.551V34.2273H376.324V42.0909H386.824V44.5909H376.324V52.5H387.733V55H373.506Z" fill="#FEFFF9"/>
<rect x="1" y="-1" width="228" height="26" transform="matrix(1 0 0 -1 21 107)" fill="#DDAC00" stroke="black" stroke-width="2"/>
<path d="M46.7685 101H45.3835L49.3892 90.0909H50.7528L54.7585 101H53.3736L50.1136 91.8168H50.0284L46.7685 101ZM47.2798 96.7386H52.8622V97.9105H47.2798V96.7386ZM54.5867 91.2628V90.0909H62.7686V91.2628H59.3382V101H58.0171V91.2628H54.5867ZM64.2108 91.2628V90.0909H72.3926V91.2628H68.9622V101H67.6412V91.2628H64.2108ZM74.4314 101V90.0909H78.1175C78.9697 90.0909 79.6693 90.2365 80.2162 90.5277C80.7631 90.8153 81.1679 91.2113 81.4307 91.7156C81.6934 92.2198 81.8248 92.7933 81.8248 93.4361C81.8248 94.0788 81.6934 94.6488 81.4307 95.146C81.1679 95.6431 80.7648 96.0337 80.2215 96.3178C79.6782 96.5984 78.9839 96.7386 78.1388 96.7386H75.1558V95.5455H78.0961C78.6785 95.5455 79.1473 95.4602 79.5024 95.2898C79.8611 95.1193 80.1203 94.8778 80.2801 94.5653C80.4434 94.2493 80.5251 93.8729 80.5251 93.4361C80.5251 92.9993 80.4434 92.6175 80.2801 92.2908C80.1167 91.9641 79.8557 91.712 79.4971 91.5344C79.1384 91.3533 78.6643 91.2628 78.0748 91.2628H75.7524V101H74.4314ZM79.5663 96.0994L82.251 101H80.7169L78.0748 96.0994H79.5663ZM85.3471 90.0909V101H84.0261V90.0909H85.3471ZM87.9958 101V90.0909H91.8097C92.5697 90.0909 93.1965 90.2223 93.6901 90.4851C94.1837 90.7443 94.5512 91.0941 94.7927 91.5344C95.0342 91.9712 95.1549 92.456 95.1549 92.9886C95.1549 93.4574 95.0715 93.8445 94.9046 94.1499C94.7412 94.4553 94.5246 94.6967 94.2547 94.8743C93.9884 95.0518 93.699 95.1832 93.3865 95.2685V95.375C93.7203 95.3963 94.0558 95.5135 94.3932 95.7266C94.7306 95.9396 95.0129 96.245 95.2401 96.6428C95.4674 97.0405 95.5811 97.527 95.5811 98.1023C95.5811 98.6491 95.4568 99.141 95.2082 99.5778C94.9596 100.015 94.5672 100.361 94.031 100.616C93.4948 100.872 92.797 101 91.9376 101H87.9958ZM89.3169 99.8281H91.9376C92.8005 99.8281 93.4131 99.6612 93.7753 99.3274C94.1411 98.9901 94.324 98.5817 94.324 98.1023C94.324 97.733 94.2298 97.392 94.0416 97.0795C93.8534 96.7635 93.5853 96.5114 93.2373 96.3232C92.8893 96.1314 92.4774 96.0355 92.0015 96.0355H89.3169V99.8281ZM89.3169 94.8849H91.7671C92.1649 94.8849 92.5235 94.8068 92.8431 94.6506C93.1663 94.4943 93.422 94.2741 93.6102 93.9901C93.8019 93.706 93.8978 93.3722 93.8978 92.9886C93.8978 92.5092 93.7309 92.1026 93.3971 91.7688C93.0633 91.4315 92.5342 91.2628 91.8097 91.2628H89.3169V94.8849ZM104.911 90.0909H106.232V97.3139C106.232 98.0597 106.056 98.7255 105.704 99.3114C105.356 99.8938 104.865 100.354 104.229 100.691C103.593 101.025 102.848 101.192 101.992 101.192C101.136 101.192 100.39 101.025 99.7545 100.691C99.1189 100.354 98.6253 99.8938 98.2737 99.3114C97.9257 98.7255 97.7517 98.0597 97.7517 97.3139V90.0909H99.0727V97.2074C99.0727 97.7401 99.1899 98.2141 99.4243 98.6296C99.6586 99.0415 99.9925 99.3665 100.426 99.6044C100.862 99.8388 101.384 99.956 101.992 99.956C102.599 99.956 103.121 99.8388 103.558 99.6044C103.995 99.3665 104.328 99.0415 104.559 98.6296C104.794 98.2141 104.911 97.7401 104.911 97.2074V90.0909ZM108.273 91.2628V90.0909H116.455V91.2628H113.025V101H111.704V91.2628H108.273ZM118.494 101V90.0909H125.078V91.2628H119.815V94.9489H124.737V96.1207H119.815V99.8281H125.163V101H118.494ZM133.425 92.8182C133.361 92.2784 133.101 91.8594 132.647 91.5611C132.192 91.2628 131.635 91.1136 130.974 91.1136C130.491 91.1136 130.069 91.1918 129.707 91.348C129.348 91.5043 129.067 91.7191 128.865 91.9925C128.666 92.266 128.567 92.5767 128.567 92.9247C128.567 93.2159 128.636 93.4663 128.774 93.6758C128.916 93.8817 129.098 94.054 129.318 94.1925C129.538 94.3274 129.769 94.4393 130.01 94.5281C130.252 94.6133 130.474 94.6825 130.676 94.7358L131.784 95.0341C132.068 95.1087 132.384 95.2116 132.732 95.343C133.084 95.4744 133.419 95.6538 133.739 95.881C134.062 96.1048 134.328 96.3924 134.538 96.744C134.747 97.0955 134.852 97.527 134.852 98.0384C134.852 98.6278 134.698 99.1605 134.389 99.6364C134.083 100.112 133.636 100.49 133.046 100.771C132.46 101.051 131.748 101.192 130.91 101.192C130.129 101.192 129.453 101.066 128.881 100.814C128.313 100.561 127.865 100.21 127.539 99.7589C127.215 99.3079 127.033 98.7841 126.99 98.1875H128.354C128.389 98.5994 128.528 98.9403 128.769 99.2102C129.014 99.4766 129.323 99.6754 129.696 99.8068C130.072 99.9347 130.477 99.9986 130.91 99.9986C131.415 99.9986 131.867 99.9169 132.269 99.7536C132.67 99.5866 132.988 99.3558 133.222 99.0611C133.457 98.7628 133.574 98.4148 133.574 98.017C133.574 97.6548 133.473 97.3601 133.27 97.1328C133.068 96.9055 132.801 96.7209 132.471 96.5788C132.141 96.4368 131.784 96.3125 131.4 96.206L130.058 95.8224C129.206 95.5774 128.531 95.2276 128.034 94.7731C127.537 94.3185 127.288 93.7237 127.288 92.9886C127.288 92.3778 127.453 91.8452 127.784 91.3906C128.117 90.9325 128.565 90.5774 129.126 90.3253C129.691 90.0696 130.321 89.9418 131.017 89.9418C131.72 89.9418 132.345 90.0678 132.892 90.32C133.439 90.5685 133.872 90.9094 134.192 91.3427C134.515 91.7759 134.685 92.2678 134.703 92.8182H133.425Z" fill="black"/>
<path fill-rule="evenodd" clip-rule="evenodd" d="M26 88C26 87.4696 26.2107 86.9609 26.5858 86.5858C26.9609 86.2107 27.4696 86 28 86H32.586C33.1164 86.0001 33.625 86.2109 34 86.586L37.414 90C37.7891 90.375 37.9999 90.8836 38 91.414V100C38 100.53 37.7893 101.039 37.4142 101.414C37.0391 101.789 36.5304 102 36 102H28C27.4696 102 26.9609 101.789 26.5858 101.414C26.2107 101.039 26 100.53 26 100V88Z" fill="black"/>
<rect x="1" y="-1" width="228" height="26" transform="matrix(1 0 0 -1 21 573)" fill="#DDAC00" stroke="black" stroke-width="2"/>
<path d="M46.321 556.091H47.8977L51.6051 565.146H51.733L55.4403 556.091H57.017V567H55.7812V558.712H55.6747L52.2656 567H51.0724L47.6634 558.712H47.5568V567H46.321V556.091ZM59.6657 567V556.091H66.2496V557.263H60.9868V560.949H65.9086V562.121H60.9868V565.828H66.3348V567H59.6657ZM68.034 557.263V556.091H76.2158V557.263H72.7854V567H71.4644V557.263H68.034ZM78.2546 567V556.091H79.5756V560.949H85.3924V556.091H86.7134V567H85.3924V562.121H79.5756V567H78.2546ZM98.5627 561.545C98.5627 562.696 98.3549 563.69 97.9395 564.528C97.524 565.366 96.954 566.013 96.2296 566.467C95.5051 566.922 94.6777 567.149 93.7473 567.149C92.8169 567.149 91.9895 566.922 91.2651 566.467C90.5407 566.013 89.9707 565.366 89.5552 564.528C89.1397 563.69 88.932 562.696 88.932 561.545C88.932 560.395 89.1397 559.401 89.5552 558.562C89.9707 557.724 90.5407 557.078 91.2651 556.624C91.9895 556.169 92.8169 555.942 93.7473 555.942C94.6777 555.942 95.5051 556.169 96.2296 556.624C96.954 557.078 97.524 557.724 97.9395 558.562C98.3549 559.401 98.5627 560.395 98.5627 561.545ZM97.2843 561.545C97.2843 560.601 97.1262 559.804 96.8102 559.154C96.4977 558.504 96.0733 558.012 95.5371 557.678C95.0044 557.344 94.4078 557.178 93.7473 557.178C93.0868 557.178 92.4885 557.344 91.9522 557.678C91.4196 558.012 90.9952 558.504 90.6792 559.154C90.3667 559.804 90.2104 560.601 90.2104 561.545C90.2104 562.49 90.3667 563.287 90.6792 563.937C90.9952 564.587 91.4196 565.079 91.9522 565.413C92.4885 565.746 93.0868 565.913 93.7473 565.913C94.4078 565.913 95.0044 565.746 95.5371 565.413C96.0733 565.079 96.4977 564.587 96.8102 563.937C97.1262 563.287 97.2843 562.49 97.2843 561.545ZM104.15 567H100.784V556.091H104.3C105.358 556.091 106.263 556.309 107.016 556.746C107.769 557.179 108.346 557.803 108.747 558.616C109.149 559.425 109.349 560.395 109.349 561.524C109.349 562.661 109.147 563.639 108.742 564.459C108.337 565.276 107.748 565.904 106.974 566.345C106.199 566.782 105.258 567 104.15 567ZM102.105 565.828H104.065C104.967 565.828 105.715 565.654 106.308 565.306C106.901 564.958 107.343 564.463 107.634 563.82C107.925 563.177 108.071 562.412 108.071 561.524C108.071 560.643 107.927 559.885 107.639 559.25C107.352 558.61 106.922 558.12 106.35 557.779C105.779 557.435 105.067 557.263 104.214 557.263H102.105V565.828ZM117.531 558.818C117.467 558.278 117.208 557.859 116.753 557.561C116.299 557.263 115.741 557.114 115.081 557.114C114.598 557.114 114.175 557.192 113.813 557.348C113.454 557.504 113.174 557.719 112.971 557.993C112.773 558.266 112.673 558.577 112.673 558.925C112.673 559.216 112.742 559.466 112.881 559.676C113.023 559.882 113.204 560.054 113.424 560.192C113.644 560.327 113.875 560.439 114.117 560.528C114.358 560.613 114.58 560.683 114.782 560.736L115.89 561.034C116.175 561.109 116.491 561.212 116.839 561.343C117.19 561.474 117.526 561.654 117.845 561.881C118.169 562.105 118.435 562.392 118.644 562.744C118.854 563.096 118.959 563.527 118.959 564.038C118.959 564.628 118.804 565.161 118.495 565.636C118.19 566.112 117.742 566.49 117.153 566.771C116.567 567.051 115.855 567.192 115.017 567.192C114.236 567.192 113.559 567.066 112.987 566.814C112.419 566.561 111.972 566.21 111.645 565.759C111.322 565.308 111.139 564.784 111.096 564.188H112.46C112.496 564.599 112.634 564.94 112.876 565.21C113.121 565.477 113.43 565.675 113.802 565.807C114.179 565.935 114.584 565.999 115.017 565.999C115.521 565.999 115.974 565.917 116.375 565.754C116.776 565.587 117.094 565.356 117.329 565.061C117.563 564.763 117.68 564.415 117.68 564.017C117.68 563.655 117.579 563.36 117.377 563.133C117.174 562.906 116.908 562.721 116.578 562.579C116.247 562.437 115.89 562.312 115.507 562.206L114.165 561.822C113.312 561.577 112.638 561.228 112.14 560.773C111.643 560.319 111.395 559.724 111.395 558.989C111.395 558.378 111.56 557.845 111.89 557.391C112.224 556.933 112.671 556.577 113.232 556.325C113.797 556.07 114.427 555.942 115.123 555.942C115.827 555.942 116.452 556.068 116.998 556.32C117.545 556.569 117.979 556.909 118.298 557.343C118.621 557.776 118.792 558.268 118.809 558.818H117.531Z" fill="black"/>
<path d="M46.321 556.091H47.8977L51.6051 565.146H51.733L55.4403 556.091H57.017V567H55.7812V558.712H55.6747L52.2656 567H51.0724L47.6634 558.712H47.5568V567H46.321V556.091ZM59.6657 567V556.091H66.2496V557.263H60.9868V560.949H65.9086V562.121H60.9868V565.828H66.3348V567H59.6657ZM68.034 557.263V556.091H76.2158V557.263H72.7854V567H71.4644V557.263H68.034ZM78.2546 567V556.091H79.5756V560.949H85.3924V556.091H86.7134V567H85.3924V562.121H79.5756V567H78.2546ZM98.5627 561.545C98.5627 562.696 98.3549 563.69 97.9395 564.528C97.524 565.366 96.954 566.013 96.2296 566.467C95.5051 566.922 94.6777 567.149 93.7473 567.149C92.8169 567.149 91.9895 566.922 91.2651 566.467C90.5407 566.013 89.9707 565.366 89.5552 564.528C89.1397 563.69 88.932 562.696 88.932 561.545C88.932 560.395 89.1397 559.401 89.5552 558.562C89.9707 557.724 90.5407 557.078 91.2651 556.624C91.9895 556.169 92.8169 555.942 93.7473 555.942C94.6777 555.942 95.5051 556.169 96.2296 556.624C96.954 557.078 97.524 557.724 97.9395 558.562C98.3549 559.401 98.5627 560.395 98.5627 561.545ZM97.2843 561.545C97.2843 560.601 97.1262 559.804 96.8102 559.154C96.4977 558.504 96.0733 558.012 95.5371 557.678C95.0044 557.344 94.4078 557.178 93.7473 557.178C93.0868 557.178 92.4885 557.344 91.9522 557.678C91.4196 558.012 90.9952 558.504 90.6792 559.154C90.3667 559.804 90.2104 560.601 90.2104 561.545C90.2104 562.49 90.3667 563.287 90.6792 563.937C90.9952 564.587 91.4196 565.079 91.9522 565.413C92.4885 565.746 93.0868 565.913 93.7473 565.913C94.4078 565.913 95.0044 565.746 95.5371 565.413C96.0733 565.079 96.4977 564.587 96.8102 563.937C97.1262 563.287 97.2843 562.49 97.2843 561.545ZM104.15 567H100.784V556.091H104.3C105.358 556.091 106.263 556.309 107.016 556.746C107.769 557.179 108.346 557.803 108.747 558.616C109.149 559.425 109.349 560.395 109.349 561.524C109.349 562.661 109.147 563.639 108.742 564.459C108.337 565.276 107.748 565.904 106.974 566.345C106.199 566.782 105.258 567 104.15 567ZM102.105 565.828H104.065C104.967 565.828 105.715 565.654 106.308 565.306C106.901 564.958 107.343 564.463 107.634 563.82C107.925 563.177 108.071 562.412 108.071 561.524C108.071 560.643 107.927 559.885 107.639 559.25C107.352 558.61 106.922 558.12 106.35 557.779C105.779 557.435 105.067 557.263 104.214 557.263H102.105V565.828ZM117.531 558.818C117.467 558.278 117.208 557.859 116.753 557.561C116.299 557.263 115.741 557.114 115.081 557.114C114.598 557.114 114.175 557.192 113.813 557.348C113.454 557.504 113.174 557.719 112.971 557.993C112.773 558.266 112.673 558.577 112.673 558.925C112.673 559.216 112.742 559.466 112.881 559.676C113.023 559.882 113.204 560.054 113.424 560.192C113.644 560.327 113.875 560.439 114.117 560.528C114.358 560.613 114.58 560.683 114.782 560.736L115.89 561.034C116.175 561.109 116.491 561.212 116.839 561.343C117.19 561.474 117.526 561.654 117.845 561.881C118.169 562.105 118.435 562.392 118.644 562.744C118.854 563.096 118.959 563.527 118.959 564.038C118.959 564.628 118.804 565.161 118.495 565.636C118.19 566.112 117.742 566.49 117.153 566.771C116.567 567.051 115.855 567.192 115.017 567.192C114.236 567.192 113.559 567.066 112.987 566.814C112.419 566.561 111.972 566.21 111.645 565.759C111.322 565.308 111.139 564.784 111.096 564.188H112.46C112.496 564.599 112.634 564.94 112.876 565.21C113.121 565.477 113.43 565.675 113.802 565.807C114.179 565.935 114.584 565.999 115.017 565.999C115.521 565.999 115.974 565.917 116.375 565.754C116.776 565.587 117.094 565.356 117.329 565.061C117.563 564.763 117.68 564.415 117.68 564.017C117.68 563.655 117.579 563.36 117.377 563.133C117.174 562.906 116.908 562.721 116.578 562.579C116.247 562.437 115.89 562.312 115.507 562.206L114.165 561.822C113.312 561.577 112.638 561.228 112.14 560.773C111.643 560.319 111.395 559.724 111.395 558.989C111.395 558.378 111.56 557.845 111.89 557.391C112.224 556.933 112.671 556.577 113.232 556.325C113.797 556.07 114.427 555.942 115.123 555.942C115.827 555.942 116.452 556.068 116.998 556.32C117.545 556.569 117.979 556.909 118.298 557.343C118.621 557.776 118.792 558.268 118.809 558.818H117.531Z" fill="black"/>
<path fill-rule="evenodd" clip-rule="evenodd" d="M26 554C26 553.47 26.2107 552.961 26.5858 552.586C26.9609 552.211 27.4696 552 28 552H32.586C33.1164 552 33.625 552.211 34 552.586L37.414 556C37.7891 556.375 37.9999 556.884 38 557.414V566C38 566.53 37.7893 567.039 37.4142 567.414C37.0391 567.789 36.5304 568 36 568H28C27.4696 568 26.9609 567.789 26.5858 567.414C26.2107 567.039 26 566.53 26 566V554Z" fill="black"/>
<rect x="22" y="123" width="228" height="58" rx="9" fill="#FFE485" stroke="black" stroke-width="2"/>
<rect x="1" y="-1" width="228" height="58" rx="9" transform="matrix(1 0 0 -1 21 246)" fill="#FFE485" stroke="black" stroke-width="2"/>
<rect x="1" y="-1" width="228" height="58" rx="9" transform="matrix(1 0 0 -1 265 180)" fill="#FFE485" stroke="black" stroke-width="2"/>
<rect x="1" y="-1" width="228" height="58" rx="9" transform="matrix(1 0 0 -1 265 246)" fill="#FFE485" stroke="black" stroke-width="2"/>
</svg>
