<svg width="230" height="60" viewBox="0 0 230 60" fill="none" xmlns="http://www.w3.org/2000/svg">
<rect x="1" y="1" width="228" height="58" rx="9" fill="black" stroke="#FFE485" stroke-width="2"/>
<path d="M35.321 22V11.0909H39.1349C39.8949 11.0909 40.5217 11.2223 41.0153 11.4851C41.5089 11.7443 41.8764 12.0941 42.1179 12.5344C42.3594 12.9712 42.4801 13.456 42.4801 13.9886C42.4801 14.4574 42.3967 14.8445 42.2298 15.1499C42.0664 15.4553 41.8498 15.6967 41.5799 15.8743C41.3136 16.0518 41.0241 16.1832 40.7116 16.2685V16.375C41.0455 16.3963 41.381 16.5135 41.7184 16.7266C42.0558 16.9396 42.3381 17.245 42.5653 17.6428C42.7926 18.0405 42.9062 18.527 42.9062 19.1023C42.9062 19.6491 42.782 20.141 42.5334 20.5778C42.2848 21.0146 41.8924 21.3608 41.3562 21.6165C40.82 21.8722 40.1222 22 39.2628 22H35.321ZM36.642 20.8281H39.2628C40.1257 20.8281 40.7383 20.6612 41.1005 20.3274C41.4663 19.9901 41.6491 19.5817 41.6491 19.1023C41.6491 18.733 41.555 18.392 41.3668 18.0795C41.1786 17.7635 40.9105 17.5114 40.5625 17.3232C40.2145 17.1314 39.8026 17.0355 39.3267 17.0355H36.642V20.8281ZM36.642 15.8849H39.0923C39.4901 15.8849 39.8487 15.8068 40.1683 15.6506C40.4915 15.4943 40.7472 15.2741 40.9354 14.9901C41.1271 14.706 41.223 14.3722 41.223 13.9886C41.223 13.5092 41.0561 13.1026 40.7223 12.7688C40.3885 12.4315 39.8594 12.2628 39.1349 12.2628H36.642V15.8849ZM49.2956 22V11.0909H52.9817C53.834 11.0909 54.5336 11.2365 55.0804 11.5277C55.6273 11.8153 56.0321 12.2113 56.2949 12.7156C56.5577 13.2198 56.6891 13.7933 56.6891 14.4361C56.6891 15.0788 56.5577 15.6488 56.2949 16.146C56.0321 16.6431 55.6291 17.0337 55.0858 17.3178C54.5424 17.5984 53.8482 17.7386 53.003 17.7386H50.0201V16.5455H52.9604C53.5428 16.5455 54.0115 16.4602 54.3667 16.2898C54.7253 16.1193 54.9846 15.8778 55.1444 15.5653C55.3077 15.2493 55.3894 14.8729 55.3894 14.4361C55.3894 13.9993 55.3077 13.6175 55.1444 13.2908C54.981 12.9641 54.72 12.712 54.3613 12.5344C54.0027 12.3533 53.5286 12.2628 52.9391 12.2628H50.6167V22H49.2956ZM54.4306 17.0994L57.1152 22H55.5811L52.9391 17.0994H54.4306ZM63.5566 22H62.1716L66.1773 11.0909H67.5409L71.5466 22H70.1617L66.9017 12.8168H66.8165L63.5566 22ZM64.0679 17.7386H69.6503V18.9105H64.0679V17.7386ZM86.1151 11.0909V22H84.8367L78.8921 13.4347H78.7856V22H77.4646V11.0909H78.743L84.7089 19.6776H84.8154V11.0909H86.1151ZM96.3438 22H92.9773V11.0909H96.4929C97.5511 11.0909 98.4567 11.3093 99.2095 11.7461C99.9624 12.1793 100.539 12.8026 100.941 13.6158C101.342 14.4254 101.543 15.3949 101.543 16.5241C101.543 17.6605 101.34 18.6388 100.935 19.4592C100.531 20.2759 99.9411 20.9045 99.1669 21.3448C98.3928 21.7816 97.4517 22 96.3438 22ZM94.2983 20.8281H96.2585C97.1605 20.8281 97.908 20.6541 98.5011 20.3061C99.0941 19.9581 99.5362 19.4627 99.8274 18.82C100.119 18.1772 100.264 17.4119 100.264 16.5241C100.264 15.6435 100.12 14.8853 99.8327 14.2496C99.5451 13.6104 99.1154 13.1204 98.5437 12.7795C97.9719 12.435 97.2599 12.2628 96.4077 12.2628H94.2983V20.8281Z" fill="white"/>
<path fill-rule="evenodd" clip-rule="evenodd" d="M10 11C10 10.4696 10.2107 9.96086 10.5858 9.58579C10.9609 9.21071 11.4696 9 12 9H22C22.5304 9 23.0391 9.21071 23.4142 9.58579C23.7893 9.96086 24 10.4696 24 11V21C24 21.5304 23.7893 22.0391 23.4142 22.4142C23.0391 22.7893 22.5304 23 22 23H12C11.4696 23 10.9609 22.7893 10.5858 22.4142C10.2107 22.0391 10 21.5304 10 21V11ZM21 12H13V20L17 18L21 20V12Z" fill="white"/>
</svg>
