<svg width="63" height="62" viewBox="0 0 63 62" fill="none" xmlns="http://www.w3.org/2000/svg">
<path d="M62 31C62 47.5535 48.3598 61 31.5 61C14.6402 61 1 47.5535 1 31C1 14.4465 14.6402 1 31.5 1C48.3598 1 62 14.4465 62 31Z" fill="black" stroke="#FFE485" stroke-width="2"/>
<path d="M45.7611 35.5255C43.1685 36.6982 40.2801 37.053 37.4807 36.5427C34.6813 36.0324 32.1039 34.6813 30.0919 32.6692C28.0798 30.6571 26.7286 28.0797 26.2183 25.2804C25.708 22.481 26.0629 19.5926 27.2356 17C25.1715 17.9328 23.3646 19.3523 21.9698 21.1369C20.575 22.9215 19.634 25.0178 19.2274 27.2461C18.8208 29.4743 18.9609 31.7679 19.6356 33.93C20.3103 36.0922 21.4994 38.0585 23.101 39.66C24.7026 41.2616 26.6689 42.4508 28.831 43.1255C30.9932 43.8001 33.2868 43.9402 35.515 43.5337C37.7432 43.1271 39.8396 42.1861 41.6241 40.7912C43.4087 39.3964 44.8283 37.5895 45.7611 35.5255V35.5255Z" fill="white"/>
</svg>
