<svg width="63" height="62" viewBox="0 0 63 62" fill="none" xmlns="http://www.w3.org/2000/svg">
<path d="M62 31C62 47.5535 48.3598 61 31.5 61C14.6402 61 1 47.5535 1 31C1 14.4465 14.6402 1 31.5 1C48.3598 1 62 14.4465 62 31Z" fill="black" stroke="#FFE485" stroke-width="2"/>
<path d="M30.0417 35.875L25.6667 31.5L30.0417 35.875ZM25.6667 31.5L30.0417 27.125L25.6667 31.5ZM25.6667 31.5H37.3333H25.6667ZM18.375 31.5C18.375 29.7764 18.7145 28.0697 19.3741 26.4773C20.0337 24.8849 21.0005 23.438 22.2192 22.2192C23.438 21.0005 24.8849 20.0337 26.4773 19.3741C28.0697 18.7145 29.7764 18.375 31.5 18.375C33.2236 18.375 34.9303 18.7145 36.5227 19.3741C38.1151 20.0337 39.562 21.0005 40.7808 22.2192C41.9995 23.438 42.9663 24.8849 43.6259 26.4773C44.2855 28.0697 44.625 29.7764 44.625 31.5C44.625 34.981 43.2422 38.3194 40.7808 40.7808C38.3194 43.2422 34.981 44.625 31.5 44.625C28.019 44.625 24.6806 43.2422 22.2192 40.7808C19.7578 38.3194 18.375 34.981 18.375 31.5V31.5Z" stroke="white" stroke-width="2" stroke-linecap="round" stroke-linejoin="round"/>
</svg>
