<svg width="63" height="62" viewBox="0 0 63 62" fill="none" xmlns="http://www.w3.org/2000/svg">
<path d="M62 31C62 47.5535 48.3598 61 31.5 61C14.6402 61 1 47.5535 1 31C1 14.4465 14.6402 1 31.5 1C48.3598 1 62 14.4465 62 31Z" fill="black" stroke="#FFE485" stroke-width="2"/>
<path d="M29.2083 26.75V35.5V26.75ZM35.0417 26.75V35.5V26.75ZM45.25 31.125C45.25 32.8486 44.9105 34.5553 44.2509 36.1477C43.5913 37.7401 42.6245 39.187 41.4058 40.4058C40.187 41.6245 38.7401 42.5913 37.1477 43.2509C35.5553 43.9105 33.8486 44.25 32.125 44.25C30.4014 44.25 28.6947 43.9105 27.1023 43.2509C25.5099 42.5913 24.063 41.6245 22.8442 40.4058C21.6255 39.187 20.6587 37.7401 19.9991 36.1477C19.3395 34.5553 19 32.8486 19 31.125C19 27.644 20.3828 24.3056 22.8442 21.8442C25.3056 19.3828 28.644 18 32.125 18C35.606 18 38.9444 19.3828 41.4058 21.8442C43.8672 24.3056 45.25 27.644 45.25 31.125Z" stroke="white" stroke-width="2" stroke-linecap="round" stroke-linejoin="round"/>
</svg>
