<svg width="63" height="62" viewBox="0 0 63 62" fill="none" xmlns="http://www.w3.org/2000/svg">
<path d="M62 31C62 47.5535 48.3598 61 31.5 61C14.6402 61 1 47.5535 1 31C1 14.4465 14.6402 1 31.5 1C48.3598 1 62 14.4465 62 31Z" fill="black" stroke="#FFE485" stroke-width="2"/>
<path d="M44.625 30.5C44.625 32.2236 44.2855 33.9303 43.6259 35.5227C42.9663 37.1151 41.9995 38.562 40.7808 39.7808C39.562 40.9995 38.1151 41.9663 36.5227 42.6259C34.9303 43.2855 33.2236 43.625 31.5 43.625C29.7764 43.625 28.0697 43.2855 26.4773 42.6259C24.8849 41.9663 23.438 40.9995 22.2192 39.7808C21.0005 38.562 20.0337 37.1151 19.3741 35.5227C18.7145 33.9303 18.375 32.2236 18.375 30.5C18.375 27.019 19.7578 23.6806 22.2192 21.2192C24.6806 18.7578 28.019 17.375 31.5 17.375C34.981 17.375 38.3194 18.7578 40.7808 21.2192C43.2422 23.6806 44.625 27.019 44.625 30.5Z" stroke="white" stroke-width="2" stroke-linecap="round" stroke-linejoin="round"/>
<path d="M27.125 27.5833C27.125 27.1966 27.2786 26.8256 27.5521 26.5521C27.8256 26.2786 28.1966 26.125 28.5833 26.125H34.4167C34.8034 26.125 35.1744 26.2786 35.4479 26.5521C35.7214 26.8256 35.875 27.1966 35.875 27.5833V33.4167C35.875 33.8034 35.7214 34.1744 35.4479 34.4479C35.1744 34.7214 34.8034 34.875 34.4167 34.875H28.5833C28.1966 34.875 27.8256 34.7214 27.5521 34.4479C27.2786 34.1744 27.125 33.8034 27.125 33.4167V27.5833Z" stroke="white" stroke-width="2" stroke-linecap="round" stroke-linejoin="round"/>
</svg>
