<svg width="63" height="62" viewBox="0 0 63 62" fill="none" xmlns="http://www.w3.org/2000/svg">
<path d="M62 31C62 47.5535 48.3598 61 31.5 61C14.6402 61 1 47.5535 1 31C1 14.4465 14.6402 1 31.5 1C48.3598 1 62 14.4465 62 31Z" fill="black" stroke="#FFE485" stroke-width="2"/>
<path d="M32.9583 26.125L37.3333 30.5L32.9583 26.125ZM37.3333 30.5L32.9583 34.875L37.3333 30.5ZM37.3333 30.5H25.6667H37.3333ZM44.625 30.5C44.625 32.2236 44.2855 33.9303 43.6259 35.5227C42.9663 37.1151 41.9995 38.562 40.7808 39.7808C39.562 40.9995 38.1151 41.9663 36.5227 42.6259C34.9303 43.2855 33.2236 43.625 31.5 43.625C29.7764 43.625 28.0697 43.2855 26.4773 42.6259C24.8849 41.9663 23.438 40.9995 22.2192 39.7808C21.0005 38.562 20.0337 37.1151 19.3741 35.5227C18.7145 33.9303 18.375 32.2236 18.375 30.5C18.375 27.019 19.7578 23.6806 22.2192 21.2192C24.6806 18.7578 28.019 17.375 31.5 17.375C34.981 17.375 38.3194 18.7578 40.7808 21.2192C43.2422 23.6806 44.625 27.019 44.625 30.5Z" stroke="white" stroke-width="2" stroke-linecap="round" stroke-linejoin="round"/>
</svg>
