<svg width="520" height="700" viewBox="0 0 520 700" fill="none" xmlns="http://www.w3.org/2000/svg">
<rect width="520" height="700" fill="#0B0800"/>
<path d="M22 256H494V534H22V256Z" fill="black" stroke="#FFE485" stroke-width="2"/>
<rect x="99" y="14" width="317" height="58" fill="#DDAC00" stroke="black" stroke-width="2"/>
<path d="M144.455 43.3636C144.455 45.8182 144.011 47.9394 143.125 49.7273C142.239 51.5152 141.023 52.8939 139.477 53.8636C137.932 54.8333 136.167 55.3182 134.182 55.3182C132.197 55.3182 130.432 54.8333 128.886 53.8636C127.341 52.8939 126.125 51.5152 125.239 49.7273C124.352 47.9394 123.909 45.8182 123.909 43.3636C123.909 40.9091 124.352 38.7879 125.239 37C126.125 35.2121 127.341 33.8333 128.886 32.8636C130.432 31.8939 132.197 31.4091 134.182 31.4091C136.167 31.4091 137.932 31.8939 139.477 32.8636C141.023 33.8333 142.239 35.2121 143.125 37C144.011 38.7879 144.455 40.9091 144.455 43.3636ZM141.727 43.3636C141.727 41.3485 141.39 39.6477 140.716 38.2614C140.049 36.875 139.144 35.8258 138 35.1136C136.864 34.4015 135.591 34.0455 134.182 34.0455C132.773 34.0455 131.496 34.4015 130.352 35.1136C129.216 35.8258 128.311 36.875 127.636 38.2614C126.97 39.6477 126.636 41.3485 126.636 43.3636C126.636 45.3788 126.97 47.0795 127.636 48.4659C128.311 49.8523 129.216 50.9015 130.352 51.6136C131.496 52.3258 132.773 52.6818 134.182 52.6818C135.591 52.6818 136.864 52.3258 138 51.6136C139.144 50.9015 140.049 49.8523 140.716 48.4659C141.39 47.0795 141.727 45.3788 141.727 43.3636ZM149.193 55V31.7273H157.33C158.951 31.7273 160.288 32.0076 161.341 32.5682C162.394 33.1212 163.178 33.8674 163.693 34.8068C164.208 35.7386 164.466 36.7727 164.466 37.9091C164.466 38.9091 164.288 39.7348 163.932 40.3864C163.583 41.0379 163.121 41.553 162.545 41.9318C161.977 42.3106 161.36 42.5909 160.693 42.7727V43C161.405 43.0455 162.121 43.2955 162.841 43.75C163.561 44.2045 164.163 44.8561 164.648 45.7045C165.133 46.553 165.375 47.5909 165.375 48.8182C165.375 49.9848 165.11 51.0341 164.58 51.9659C164.049 52.8977 163.212 53.6364 162.068 54.1818C160.924 54.7273 159.436 55 157.602 55H149.193ZM152.011 52.5H157.602C159.443 52.5 160.75 52.1439 161.523 51.4318C162.303 50.7121 162.693 49.8409 162.693 48.8182C162.693 48.0303 162.492 47.303 162.091 46.6364C161.689 45.9621 161.117 45.4242 160.375 45.0227C159.633 44.6136 158.754 44.4091 157.739 44.4091H152.011V52.5ZM152.011 41.9545H157.239C158.087 41.9545 158.852 41.7879 159.534 41.4545C160.223 41.1212 160.769 40.6515 161.17 40.0455C161.58 39.4394 161.784 38.7273 161.784 37.9091C161.784 36.8864 161.428 36.0189 160.716 35.3068C160.004 34.5871 158.875 34.2273 157.33 34.2273H152.011V41.9545ZM178.915 31.7273H181.733V48.3636C181.733 49.8485 181.46 51.1098 180.915 52.1477C180.369 53.1856 179.6 53.9735 178.608 54.5114C177.616 55.0492 176.445 55.3182 175.097 55.3182C173.824 55.3182 172.691 55.0871 171.699 54.625C170.706 54.1553 169.926 53.4886 169.358 52.625C168.79 51.7614 168.506 50.7348 168.506 49.5455H171.278C171.278 50.2045 171.441 50.7803 171.767 51.2727C172.1 51.7576 172.555 52.1364 173.131 52.4091C173.706 52.6818 174.362 52.8182 175.097 52.8182C175.907 52.8182 176.597 52.6477 177.165 52.3068C177.733 51.9659 178.165 51.4659 178.46 50.8068C178.763 50.1402 178.915 49.3258 178.915 48.3636V31.7273ZM187.381 55V31.7273H201.426V34.2273H190.199V42.0909H200.699V44.5909H190.199V52.5H201.608V55H187.381ZM225.233 39H222.415C222.248 38.1894 221.956 37.4773 221.54 36.8636C221.131 36.25 220.631 35.7348 220.04 35.3182C219.456 34.8939 218.809 34.5758 218.097 34.3636C217.384 34.1515 216.642 34.0455 215.869 34.0455C214.46 34.0455 213.184 34.4015 212.04 35.1136C210.903 35.8258 209.998 36.875 209.324 38.2614C208.657 39.6477 208.324 41.3485 208.324 43.3636C208.324 45.3788 208.657 47.0795 209.324 48.4659C209.998 49.8523 210.903 50.9015 212.04 51.6136C213.184 52.3258 214.46 52.6818 215.869 52.6818C216.642 52.6818 217.384 52.5758 218.097 52.3636C218.809 52.1515 219.456 51.8371 220.04 51.4205C220.631 50.9962 221.131 50.4773 221.54 49.8636C221.956 49.2424 222.248 48.5303 222.415 47.7273H225.233C225.021 48.9167 224.634 49.9811 224.074 50.9205C223.513 51.8598 222.816 52.6591 221.983 53.3182C221.15 53.9697 220.214 54.4659 219.176 54.8068C218.146 55.1477 217.044 55.3182 215.869 55.3182C213.884 55.3182 212.119 54.8333 210.574 53.8636C209.028 52.8939 207.813 51.5152 206.926 49.7273C206.04 47.9394 205.597 45.8182 205.597 43.3636C205.597 40.9091 206.04 38.7879 206.926 37C207.813 35.2121 209.028 33.8333 210.574 32.8636C212.119 31.8939 213.884 31.4091 215.869 31.4091C217.044 31.4091 218.146 31.5795 219.176 31.9205C220.214 32.2614 221.15 32.7614 221.983 33.4205C222.816 34.072 223.513 34.8674 224.074 35.8068C224.634 36.7386 225.021 37.803 225.233 39ZM228.514 34.2273V31.7273H245.969V34.2273H238.651V55H235.832V34.2273H228.514Z" fill="black"/>
<path d="M260.273 31.7273L267.182 51.3182H267.455L274.364 31.7273H277.318L268.773 55H265.864L257.318 31.7273H260.273ZM280.943 55V31.7273H294.989V34.2273H283.761V42.0909H294.261V44.5909H283.761V52.5H295.17V55H280.943ZM300.068 55V31.7273H302.886V42.0909H315.295V31.7273H318.114V55H315.295V44.5909H302.886V55H300.068ZM326.574 31.7273V55H323.756V31.7273H326.574ZM350.952 39H348.134C347.967 38.1894 347.675 37.4773 347.259 36.8636C346.849 36.25 346.349 35.7348 345.759 35.3182C345.175 34.8939 344.527 34.5758 343.815 34.3636C343.103 34.1515 342.361 34.0455 341.588 34.0455C340.179 34.0455 338.902 34.4015 337.759 35.1136C336.622 35.8258 335.717 36.875 335.043 38.2614C334.376 39.6477 334.043 41.3485 334.043 43.3636C334.043 45.3788 334.376 47.0795 335.043 48.4659C335.717 49.8523 336.622 50.9015 337.759 51.6136C338.902 52.3258 340.179 52.6818 341.588 52.6818C342.361 52.6818 343.103 52.5758 343.815 52.3636C344.527 52.1515 345.175 51.8371 345.759 51.4205C346.349 50.9962 346.849 50.4773 347.259 49.8636C347.675 49.2424 347.967 48.5303 348.134 47.7273H350.952C350.74 48.9167 350.353 49.9811 349.793 50.9205C349.232 51.8598 348.535 52.6591 347.702 53.3182C346.868 53.9697 345.933 54.4659 344.895 54.8068C343.865 55.1477 342.762 55.3182 341.588 55.3182C339.603 55.3182 337.838 54.8333 336.293 53.8636C334.747 52.8939 333.531 51.5152 332.645 49.7273C331.759 47.9394 331.315 45.8182 331.315 43.3636C331.315 40.9091 331.759 38.7879 332.645 37C333.531 35.2121 334.747 33.8333 336.293 32.8636C337.838 31.8939 339.603 31.4091 341.588 31.4091C342.762 31.4091 343.865 31.5795 344.895 31.9205C345.933 32.2614 346.868 32.7614 347.702 33.4205C348.535 34.072 349.232 34.8674 349.793 35.8068C350.353 36.7386 350.74 37.803 350.952 39ZM355.506 55V31.7273H358.324V52.5H369.142V55H355.506ZM373.506 55V31.7273H387.551V34.2273H376.324V42.0909H386.824V44.5909H376.324V52.5H387.733V55H373.506Z" fill="#FEFFF9"/>
<g filter="url(#filter0_d_7_165)">
<rect x="1" y="-1" width="228" height="26" transform="matrix(1 0 0 -1 21 107)" fill="#281F00" stroke="#FFE485" stroke-width="2"/>
<path d="M46.7685 101H45.3835L49.3892 90.0909H50.7528L54.7585 101H53.3736L50.1136 91.8168H50.0284L46.7685 101ZM47.2798 96.7386H52.8622V97.9105H47.2798V96.7386ZM54.5867 91.2628V90.0909H62.7686V91.2628H59.3382V101H58.0171V91.2628H54.5867ZM64.2108 91.2628V90.0909H72.3926V91.2628H68.9622V101H67.6412V91.2628H64.2108ZM74.4314 101V90.0909H78.1175C78.9697 90.0909 79.6693 90.2365 80.2162 90.5277C80.7631 90.8153 81.1679 91.2113 81.4307 91.7156C81.6934 92.2198 81.8248 92.7933 81.8248 93.4361C81.8248 94.0788 81.6934 94.6488 81.4307 95.146C81.1679 95.6431 80.7648 96.0337 80.2215 96.3178C79.6782 96.5984 78.9839 96.7386 78.1388 96.7386H75.1558V95.5455H78.0961C78.6785 95.5455 79.1473 95.4602 79.5024 95.2898C79.8611 95.1193 80.1203 94.8778 80.2801 94.5653C80.4434 94.2493 80.5251 93.8729 80.5251 93.4361C80.5251 92.9993 80.4434 92.6175 80.2801 92.2908C80.1167 91.9641 79.8557 91.712 79.4971 91.5344C79.1384 91.3533 78.6643 91.2628 78.0748 91.2628H75.7524V101H74.4314ZM79.5663 96.0994L82.251 101H80.7169L78.0748 96.0994H79.5663ZM85.3471 90.0909V101H84.0261V90.0909H85.3471ZM87.9958 101V90.0909H91.8097C92.5697 90.0909 93.1965 90.2223 93.6901 90.4851C94.1837 90.7443 94.5512 91.0941 94.7927 91.5344C95.0342 91.9712 95.1549 92.456 95.1549 92.9886C95.1549 93.4574 95.0715 93.8445 94.9046 94.1499C94.7412 94.4553 94.5246 94.6967 94.2547 94.8743C93.9884 95.0518 93.699 95.1832 93.3865 95.2685V95.375C93.7203 95.3963 94.0558 95.5135 94.3932 95.7266C94.7306 95.9396 95.0129 96.245 95.2401 96.6428C95.4674 97.0405 95.5811 97.527 95.5811 98.1023C95.5811 98.6491 95.4568 99.141 95.2082 99.5778C94.9596 100.015 94.5672 100.361 94.031 100.616C93.4948 100.872 92.797 101 91.9376 101H87.9958ZM89.3169 99.8281H91.9376C92.8005 99.8281 93.4131 99.6612 93.7753 99.3274C94.1411 98.9901 94.324 98.5817 94.324 98.1023C94.324 97.733 94.2298 97.392 94.0416 97.0795C93.8534 96.7635 93.5853 96.5114 93.2373 96.3232C92.8893 96.1314 92.4774 96.0355 92.0015 96.0355H89.3169V99.8281ZM89.3169 94.8849H91.7671C92.1649 94.8849 92.5235 94.8068 92.8431 94.6506C93.1663 94.4943 93.422 94.2741 93.6102 93.9901C93.8019 93.706 93.8978 93.3722 93.8978 92.9886C93.8978 92.5092 93.7309 92.1026 93.3971 91.7688C93.0633 91.4315 92.5342 91.2628 91.8097 91.2628H89.3169V94.8849ZM104.911 90.0909H106.232V97.3139C106.232 98.0597 106.056 98.7255 105.704 99.3114C105.356 99.8938 104.865 100.354 104.229 100.691C103.593 101.025 102.848 101.192 101.992 101.192C101.136 101.192 100.39 101.025 99.7545 100.691C99.1189 100.354 98.6253 99.8938 98.2737 99.3114C97.9257 98.7255 97.7517 98.0597 97.7517 97.3139V90.0909H99.0727V97.2074C99.0727 97.7401 99.1899 98.2141 99.4243 98.6296C99.6586 99.0415 99.9925 99.3665 100.426 99.6044C100.862 99.8388 101.384 99.956 101.992 99.956C102.599 99.956 103.121 99.8388 103.558 99.6044C103.995 99.3665 104.328 99.0415 104.559 98.6296C104.794 98.2141 104.911 97.7401 104.911 97.2074V90.0909ZM108.273 91.2628V90.0909H116.455V91.2628H113.025V101H111.704V91.2628H108.273ZM118.494 101V90.0909H125.078V91.2628H119.815V94.9489H124.737V96.1207H119.815V99.8281H125.163V101H118.494ZM133.425 92.8182C133.361 92.2784 133.101 91.8594 132.647 91.5611C132.192 91.2628 131.635 91.1136 130.974 91.1136C130.491 91.1136 130.069 91.1918 129.707 91.348C129.348 91.5043 129.067 91.7191 128.865 91.9925C128.666 92.266 128.567 92.5767 128.567 92.9247C128.567 93.2159 128.636 93.4663 128.774 93.6758C128.916 93.8817 129.098 94.054 129.318 94.1925C129.538 94.3274 129.769 94.4393 130.01 94.5281C130.252 94.6133 130.474 94.6825 130.676 94.7358L131.784 95.0341C132.068 95.1087 132.384 95.2116 132.732 95.343C133.084 95.4744 133.419 95.6538 133.739 95.881C134.062 96.1048 134.328 96.3924 134.538 96.744C134.747 97.0955 134.852 97.527 134.852 98.0384C134.852 98.6278 134.698 99.1605 134.389 99.6364C134.083 100.112 133.636 100.49 133.046 100.771C132.46 101.051 131.748 101.192 130.91 101.192C130.129 101.192 129.453 101.066 128.881 100.814C128.313 100.561 127.865 100.21 127.539 99.7589C127.215 99.3079 127.033 98.7841 126.99 98.1875H128.354C128.389 98.5994 128.528 98.9403 128.769 99.2102C129.014 99.4766 129.323 99.6754 129.696 99.8068C130.072 99.9347 130.477 99.9986 130.91 99.9986C131.415 99.9986 131.867 99.9169 132.269 99.7536C132.67 99.5866 132.988 99.3558 133.222 99.0611C133.457 98.7628 133.574 98.4148 133.574 98.017C133.574 97.6548 133.473 97.3601 133.27 97.1328C133.068 96.9055 132.801 96.7209 132.471 96.5788C132.141 96.4368 131.784 96.3125 131.4 96.206L130.058 95.8224C129.206 95.5774 128.531 95.2276 128.034 94.7731C127.537 94.3185 127.288 93.7237 127.288 92.9886C127.288 92.3778 127.453 91.8452 127.784 91.3906C128.117 90.9325 128.565 90.5774 129.126 90.3253C129.691 90.0696 130.321 89.9418 131.017 89.9418C131.72 89.9418 132.345 90.0678 132.892 90.32C133.439 90.5685 133.872 90.9094 134.192 91.3427C134.515 91.7759 134.685 92.2678 134.703 92.8182H133.425Z" fill="#FFE485"/>
<path fill-rule="evenodd" clip-rule="evenodd" d="M26 88C26 87.4696 26.2107 86.9609 26.5858 86.5858C26.9609 86.2107 27.4696 86 28 86H32.586C33.1164 86.0001 33.625 86.2109 34 86.586L37.414 90C37.7891 90.375 37.9999 90.8836 38 91.414V100C38 100.53 37.7893 101.039 37.4142 101.414C37.0391 101.789 36.5304 102 36 102H28C27.4696 102 26.9609 101.789 26.5858 101.414C26.2107 101.039 26 100.53 26 100V88Z" fill="#FFE485"/>
</g>
<rect x="1" y="-1" width="228" height="26" transform="matrix(1 0 0 -1 21 573)" fill="#281F00" stroke="#FFE485" stroke-width="2"/>
<path d="M46.321 556.091H47.8977L51.6051 565.146H51.733L55.4403 556.091H57.017V567H55.7812V558.712H55.6747L52.2656 567H51.0724L47.6634 558.712H47.5568V567H46.321V556.091ZM59.6657 567V556.091H66.2496V557.263H60.9868V560.949H65.9086V562.121H60.9868V565.828H66.3348V567H59.6657ZM68.034 557.263V556.091H76.2158V557.263H72.7854V567H71.4644V557.263H68.034ZM78.2546 567V556.091H79.5756V560.949H85.3924V556.091H86.7134V567H85.3924V562.121H79.5756V567H78.2546ZM98.5627 561.545C98.5627 562.696 98.3549 563.69 97.9395 564.528C97.524 565.366 96.954 566.013 96.2296 566.467C95.5051 566.922 94.6777 567.149 93.7473 567.149C92.8169 567.149 91.9895 566.922 91.2651 566.467C90.5407 566.013 89.9707 565.366 89.5552 564.528C89.1397 563.69 88.932 562.696 88.932 561.545C88.932 560.395 89.1397 559.401 89.5552 558.562C89.9707 557.724 90.5407 557.078 91.2651 556.624C91.9895 556.169 92.8169 555.942 93.7473 555.942C94.6777 555.942 95.5051 556.169 96.2296 556.624C96.954 557.078 97.524 557.724 97.9395 558.562C98.3549 559.401 98.5627 560.395 98.5627 561.545ZM97.2843 561.545C97.2843 560.601 97.1262 559.804 96.8102 559.154C96.4977 558.504 96.0733 558.012 95.5371 557.678C95.0044 557.344 94.4078 557.178 93.7473 557.178C93.0868 557.178 92.4885 557.344 91.9522 557.678C91.4196 558.012 90.9952 558.504 90.6792 559.154C90.3667 559.804 90.2104 560.601 90.2104 561.545C90.2104 562.49 90.3667 563.287 90.6792 563.937C90.9952 564.587 91.4196 565.079 91.9522 565.413C92.4885 565.746 93.0868 565.913 93.7473 565.913C94.4078 565.913 95.0044 565.746 95.5371 565.413C96.0733 565.079 96.4977 564.587 96.8102 563.937C97.1262 563.287 97.2843 562.49 97.2843 561.545ZM104.15 567H100.784V556.091H104.3C105.358 556.091 106.263 556.309 107.016 556.746C107.769 557.179 108.346 557.803 108.747 558.616C109.149 559.425 109.349 560.395 109.349 561.524C109.349 562.661 109.147 563.639 108.742 564.459C108.337 565.276 107.748 565.904 106.974 566.345C106.199 566.782 105.258 567 104.15 567ZM102.105 565.828H104.065C104.967 565.828 105.715 565.654 106.308 565.306C106.901 564.958 107.343 564.463 107.634 563.82C107.925 563.177 108.071 562.412 108.071 561.524C108.071 560.643 107.927 559.885 107.639 559.25C107.352 558.61 106.922 558.12 106.35 557.779C105.779 557.435 105.067 557.263 104.214 557.263H102.105V565.828ZM117.531 558.818C117.467 558.278 117.208 557.859 116.753 557.561C116.299 557.263 115.741 557.114 115.081 557.114C114.598 557.114 114.175 557.192 113.813 557.348C113.454 557.504 113.174 557.719 112.971 557.993C112.773 558.266 112.673 558.577 112.673 558.925C112.673 559.216 112.742 559.466 112.881 559.676C113.023 559.882 113.204 560.054 113.424 560.192C113.644 560.327 113.875 560.439 114.117 560.528C114.358 560.613 114.58 560.683 114.782 560.736L115.89 561.034C116.175 561.109 116.491 561.212 116.839 561.343C117.19 561.474 117.526 561.654 117.845 561.881C118.169 562.105 118.435 562.392 118.644 562.744C118.854 563.096 118.959 563.527 118.959 564.038C118.959 564.628 118.804 565.161 118.495 565.636C118.19 566.112 117.742 566.49 117.153 566.771C116.567 567.051 115.855 567.192 115.017 567.192C114.236 567.192 113.559 567.066 112.987 566.814C112.419 566.561 111.972 566.21 111.645 565.759C111.322 565.308 111.139 564.784 111.096 564.188H112.46C112.496 564.599 112.634 564.94 112.876 565.21C113.121 565.477 113.43 565.675 113.802 565.807C114.179 565.935 114.584 565.999 115.017 565.999C115.521 565.999 115.974 565.917 116.375 565.754C116.776 565.587 117.094 565.356 117.329 565.061C117.563 564.763 117.68 564.415 117.68 564.017C117.68 563.655 117.579 563.36 117.377 563.133C117.174 562.906 116.908 562.721 116.578 562.579C116.247 562.437 115.89 562.312 115.507 562.206L114.165 561.822C113.312 561.577 112.638 561.228 112.14 560.773C111.643 560.319 111.395 559.724 111.395 558.989C111.395 558.378 111.56 557.845 111.89 557.391C112.224 556.933 112.671 556.577 113.232 556.325C113.797 556.07 114.427 555.942 115.123 555.942C115.827 555.942 116.452 556.068 116.998 556.32C117.545 556.569 117.979 556.909 118.298 557.343C118.621 557.776 118.792 558.268 118.809 558.818H117.531Z" fill="black"/>
<path d="M46.321 556.091H47.8977L51.6051 565.146H51.733L55.4403 556.091H57.017V567H55.7812V558.712H55.6747L52.2656 567H51.0724L47.6634 558.712H47.5568V567H46.321V556.091ZM59.6657 567V556.091H66.2496V557.263H60.9868V560.949H65.9086V562.121H60.9868V565.828H66.3348V567H59.6657ZM68.034 557.263V556.091H76.2158V557.263H72.7854V567H71.4644V557.263H68.034ZM78.2546 567V556.091H79.5756V560.949H85.3924V556.091H86.7134V567H85.3924V562.121H79.5756V567H78.2546ZM98.5627 561.545C98.5627 562.696 98.3549 563.69 97.9395 564.528C97.524 565.366 96.954 566.013 96.2296 566.467C95.5051 566.922 94.6777 567.149 93.7473 567.149C92.8169 567.149 91.9895 566.922 91.2651 566.467C90.5407 566.013 89.9707 565.366 89.5552 564.528C89.1397 563.69 88.932 562.696 88.932 561.545C88.932 560.395 89.1397 559.401 89.5552 558.562C89.9707 557.724 90.5407 557.078 91.2651 556.624C91.9895 556.169 92.8169 555.942 93.7473 555.942C94.6777 555.942 95.5051 556.169 96.2296 556.624C96.954 557.078 97.524 557.724 97.9395 558.562C98.3549 559.401 98.5627 560.395 98.5627 561.545ZM97.2843 561.545C97.2843 560.601 97.1262 559.804 96.8102 559.154C96.4977 558.504 96.0733 558.012 95.5371 557.678C95.0044 557.344 94.4078 557.178 93.7473 557.178C93.0868 557.178 92.4885 557.344 91.9522 557.678C91.4196 558.012 90.9952 558.504 90.6792 559.154C90.3667 559.804 90.2104 560.601 90.2104 561.545C90.2104 562.49 90.3667 563.287 90.6792 563.937C90.9952 564.587 91.4196 565.079 91.9522 565.413C92.4885 565.746 93.0868 565.913 93.7473 565.913C94.4078 565.913 95.0044 565.746 95.5371 565.413C96.0733 565.079 96.4977 564.587 96.8102 563.937C97.1262 563.287 97.2843 562.49 97.2843 561.545ZM104.15 567H100.784V556.091H104.3C105.358 556.091 106.263 556.309 107.016 556.746C107.769 557.179 108.346 557.803 108.747 558.616C109.149 559.425 109.349 560.395 109.349 561.524C109.349 562.661 109.147 563.639 108.742 564.459C108.337 565.276 107.748 565.904 106.974 566.345C106.199 566.782 105.258 567 104.15 567ZM102.105 565.828H104.065C104.967 565.828 105.715 565.654 106.308 565.306C106.901 564.958 107.343 564.463 107.634 563.82C107.925 563.177 108.071 562.412 108.071 561.524C108.071 560.643 107.927 559.885 107.639 559.25C107.352 558.61 106.922 558.12 106.35 557.779C105.779 557.435 105.067 557.263 104.214 557.263H102.105V565.828ZM117.531 558.818C117.467 558.278 117.208 557.859 116.753 557.561C116.299 557.263 115.741 557.114 115.081 557.114C114.598 557.114 114.175 557.192 113.813 557.348C113.454 557.504 113.174 557.719 112.971 557.993C112.773 558.266 112.673 558.577 112.673 558.925C112.673 559.216 112.742 559.466 112.881 559.676C113.023 559.882 113.204 560.054 113.424 560.192C113.644 560.327 113.875 560.439 114.117 560.528C114.358 560.613 114.58 560.683 114.782 560.736L115.89 561.034C116.175 561.109 116.491 561.212 116.839 561.343C117.19 561.474 117.526 561.654 117.845 561.881C118.169 562.105 118.435 562.392 118.644 562.744C118.854 563.096 118.959 563.527 118.959 564.038C118.959 564.628 118.804 565.161 118.495 565.636C118.19 566.112 117.742 566.49 117.153 566.771C116.567 567.051 115.855 567.192 115.017 567.192C114.236 567.192 113.559 567.066 112.987 566.814C112.419 566.561 111.972 566.21 111.645 565.759C111.322 565.308 111.139 564.784 111.096 564.188H112.46C112.496 564.599 112.634 564.94 112.876 565.21C113.121 565.477 113.43 565.675 113.802 565.807C114.179 565.935 114.584 565.999 115.017 565.999C115.521 565.999 115.974 565.917 116.375 565.754C116.776 565.587 117.094 565.356 117.329 565.061C117.563 564.763 117.68 564.415 117.68 564.017C117.68 563.655 117.579 563.36 117.377 563.133C117.174 562.906 116.908 562.721 116.578 562.579C116.247 562.437 115.89 562.312 115.507 562.206L114.165 561.822C113.312 561.577 112.638 561.228 112.14 560.773C111.643 560.319 111.395 559.724 111.395 558.989C111.395 558.378 111.56 557.845 111.89 557.391C112.224 556.933 112.671 556.577 113.232 556.325C113.797 556.07 114.427 555.942 115.123 555.942C115.827 555.942 116.452 556.068 116.998 556.32C117.545 556.569 117.979 556.909 118.298 557.343C118.621 557.776 118.792 558.268 118.809 558.818H117.531Z" fill="white"/>
<path fill-rule="evenodd" clip-rule="evenodd" d="M26 554C26 553.47 26.2107 552.961 26.5858 552.586C26.9609 552.211 27.4696 552 28 552H32.586C33.1164 552 33.625 552.211 34 552.586L37.414 556C37.7891 556.375 37.9999 556.884 38 557.414V566C38 566.53 37.7893 567.039 37.4142 567.414C37.0391 567.789 36.5304 568 36 568H28C27.4696 568 26.9609 567.789 26.5858 567.414C26.2107 567.039 26 566.53 26 566V554Z" fill="white"/>
<rect x="22" y="123" width="228" height="58" rx="9" fill="black" stroke="#FFE485" stroke-width="2"/>
<path d="M56.321 144V133.091H60.1349C60.8949 133.091 61.5217 133.222 62.0153 133.485C62.5089 133.744 62.8764 134.094 63.1179 134.534C63.3594 134.971 63.4801 135.456 63.4801 135.989C63.4801 136.457 63.3967 136.844 63.2298 137.15C63.0664 137.455 62.8498 137.697 62.5799 137.874C62.3136 138.052 62.0241 138.183 61.7116 138.268V138.375C62.0455 138.396 62.381 138.513 62.7184 138.727C63.0558 138.94 63.3381 139.245 63.5653 139.643C63.7926 140.04 63.9062 140.527 63.9062 141.102C63.9062 141.649 63.782 142.141 63.5334 142.578C63.2848 143.015 62.8924 143.361 62.3562 143.616C61.82 143.872 61.1222 144 60.2628 144H56.321ZM57.642 142.828H60.2628C61.1257 142.828 61.7383 142.661 62.1005 142.327C62.4663 141.99 62.6491 141.582 62.6491 141.102C62.6491 140.733 62.555 140.392 62.3668 140.08C62.1786 139.763 61.9105 139.511 61.5625 139.323C61.2145 139.131 60.8026 139.036 60.3267 139.036H57.642V142.828ZM57.642 137.885H60.0923C60.4901 137.885 60.8487 137.807 61.1683 137.651C61.4915 137.494 61.7472 137.274 61.9354 136.99C62.1271 136.706 62.223 136.372 62.223 135.989C62.223 135.509 62.0561 135.103 61.7223 134.769C61.3885 134.431 60.8594 134.263 60.1349 134.263H57.642V137.885ZM70.2956 144V133.091H73.9817C74.834 133.091 75.5336 133.237 76.0804 133.528C76.6273 133.815 77.0321 134.211 77.2949 134.716C77.5577 135.22 77.6891 135.793 77.6891 136.436C77.6891 137.079 77.5577 137.649 77.2949 138.146C77.0321 138.643 76.6291 139.034 76.0858 139.318C75.5424 139.598 74.8482 139.739 74.003 139.739H71.0201V138.545H73.9604C74.5428 138.545 75.0115 138.46 75.3667 138.29C75.7253 138.119 75.9846 137.878 76.1444 137.565C76.3077 137.249 76.3894 136.873 76.3894 136.436C76.3894 135.999 76.3077 135.618 76.1444 135.291C75.981 134.964 75.72 134.712 75.3613 134.534C75.0027 134.353 74.5286 134.263 73.9391 134.263H71.6167V144H70.2956ZM75.4306 139.099L78.1152 144H76.5811L73.9391 139.099H75.4306ZM84.5566 144H83.1716L87.1773 133.091H88.5409L92.5466 144H91.1617L87.9017 134.817H87.8165L84.5566 144ZM85.0679 139.739H90.6503V140.911H85.0679V139.739ZM107.115 133.091V144H105.837L99.8921 135.435H99.7856V144H98.4646V133.091H99.743L105.709 141.678H105.815V133.091H107.115ZM117.344 144H113.977V133.091H117.493C118.551 133.091 119.457 133.309 120.21 133.746C120.962 134.179 121.539 134.803 121.941 135.616C122.342 136.425 122.543 137.395 122.543 138.524C122.543 139.661 122.34 140.639 121.935 141.459C121.531 142.276 120.941 142.904 120.167 143.345C119.393 143.782 118.452 144 117.344 144ZM115.298 142.828H117.259C118.161 142.828 118.908 142.654 119.501 142.306C120.094 141.958 120.536 141.463 120.827 140.82C121.119 140.177 121.264 139.412 121.264 138.524C121.264 137.643 121.12 136.885 120.833 136.25C120.545 135.61 120.115 135.12 119.544 134.779C118.972 134.435 118.26 134.263 117.408 134.263H115.298V142.828Z" fill="white"/>
<path fill-rule="evenodd" clip-rule="evenodd" d="M31 133C31 132.47 31.2107 131.961 31.5858 131.586C31.9609 131.211 32.4696 131 33 131H43C43.5304 131 44.0391 131.211 44.4142 131.586C44.7893 131.961 45 132.47 45 133V143C45 143.53 44.7893 144.039 44.4142 144.414C44.0391 144.789 43.5304 145 43 145H33C32.4696 145 31.9609 144.789 31.5858 144.414C31.2107 144.039 31 143.53 31 143V133ZM42 134H34V142L38 140L42 142V134Z" fill="white"/>
<rect x="1" y="-1" width="228" height="58" rx="9" transform="matrix(1 0 0 -1 21 246)" fill="black" stroke="#FFE485" stroke-width="2"/>
<path d="M56.321 198.091H57.8977L61.6051 207.146H61.733L65.4403 198.091H67.017V209H65.7812V200.712H65.6747L62.2656 209H61.0724L57.6634 200.712H57.5568V209H56.321V198.091ZM83.089 203.545C83.089 204.696 82.8813 205.69 82.4658 206.528C82.0503 207.366 81.4804 208.013 80.7559 208.467C80.0315 208.922 79.2041 209.149 78.2737 209.149C77.3433 209.149 76.5159 208.922 75.7915 208.467C75.067 208.013 74.4971 207.366 74.0816 206.528C73.6661 205.69 73.4584 204.696 73.4584 203.545C73.4584 202.395 73.6661 201.401 74.0816 200.562C74.4971 199.724 75.067 199.078 75.7915 198.624C76.5159 198.169 77.3433 197.942 78.2737 197.942C79.2041 197.942 80.0315 198.169 80.7559 198.624C81.4804 199.078 82.0503 199.724 82.4658 200.562C82.8813 201.401 83.089 202.395 83.089 203.545ZM81.8106 203.545C81.8106 202.601 81.6526 201.804 81.3366 201.154C81.0241 200.504 80.5997 200.012 80.0635 199.678C79.5308 199.344 78.9342 199.178 78.2737 199.178C77.6132 199.178 77.0148 199.344 76.4786 199.678C75.9459 200.012 75.5216 200.504 75.2055 201.154C74.893 201.804 74.7368 202.601 74.7368 203.545C74.7368 204.49 74.893 205.287 75.2055 205.937C75.5216 206.587 75.9459 207.079 76.4786 207.413C77.0148 207.746 77.6132 207.913 78.2737 207.913C78.9342 207.913 79.5308 207.746 80.0635 207.413C80.5997 207.079 81.0241 206.587 81.3366 205.937C81.6526 205.287 81.8106 204.49 81.8106 203.545ZM92.8955 209H89.529V198.091H93.0447C94.1029 198.091 95.0084 198.309 95.7613 198.746C96.5141 199.179 97.0912 199.803 97.4925 200.616C97.8937 201.425 98.0944 202.395 98.0944 203.524C98.0944 204.661 97.892 205.639 97.4871 206.459C97.0823 207.276 96.4928 207.904 95.7187 208.345C94.9445 208.782 94.0035 209 92.8955 209ZM90.8501 207.828H92.8103C93.7123 207.828 94.4598 207.654 95.0528 207.306C95.6459 206.958 96.088 206.463 96.3792 205.82C96.6704 205.177 96.816 204.412 96.816 203.524C96.816 202.643 96.6721 201.885 96.3845 201.25C96.0969 200.61 95.6672 200.12 95.0954 199.779C94.5237 199.435 93.8117 199.263 92.9594 199.263H90.8501V207.828ZM104.529 209V198.091H111.113V199.263H105.85V202.949H110.772V204.121H105.85V207.828H111.198V209H104.529ZM117.713 209V198.091H119.034V207.828H124.105V209H117.713Z" fill="white"/>
<path fill-rule="evenodd" clip-rule="evenodd" d="M33 199C33 198.47 33.2107 197.961 33.5858 197.586C33.9609 197.211 34.4696 197 35 197H45C45.5304 197 46.0391 197.211 46.4142 197.586C46.7893 197.961 47 198.47 47 199V209C47 209.53 46.7893 210.039 46.4142 210.414C46.0391 210.789 45.5304 211 45 211H35C34.4696 211 33.9609 210.789 33.5858 210.414C33.2107 210.039 33 209.53 33 209V199ZM44 200H36V208L40 206L44 208V200Z" fill="white"/>
<rect x="1" y="-1" width="228" height="58" rx="9" transform="matrix(1 0 0 -1 265 180)" fill="black" stroke="#FFE485" stroke-width="2"/>
<path d="M298.321 146V135.091H302.007C302.859 135.091 303.559 135.237 304.106 135.528C304.653 135.815 305.058 136.211 305.32 136.716C305.583 137.22 305.714 137.793 305.714 138.436C305.714 139.079 305.583 139.649 305.32 140.146C305.058 140.643 304.654 141.034 304.111 141.318C303.568 141.598 302.874 141.739 302.028 141.739H299.045V140.545H301.986C302.568 140.545 303.037 140.46 303.392 140.29C303.751 140.119 304.01 139.878 304.17 139.565C304.333 139.249 304.415 138.873 304.415 138.436C304.415 137.999 304.333 137.618 304.17 137.291C304.006 136.964 303.745 136.712 303.387 136.534C303.028 136.353 302.554 136.263 301.964 136.263H299.642V146H298.321ZM303.456 141.099L306.141 146H304.607L301.964 141.099H303.456ZM312.134 146V135.091H318.718V136.263H313.456V139.949H318.377V141.121H313.456V144.828H318.804V146H312.134ZM325.318 146V135.091H331.859V136.263H326.639V139.949H331.369V141.121H326.639V146H325.318ZM338.341 146V135.091H344.924V136.263H339.662V139.949H344.583V141.121H339.662V144.828H345.01V146H338.341ZM351.524 146V135.091H355.21C356.063 135.091 356.762 135.237 357.309 135.528C357.856 135.815 358.261 136.211 358.523 136.716C358.786 137.22 358.918 137.793 358.918 138.436C358.918 139.079 358.786 139.649 358.523 140.146C358.261 140.643 357.858 141.034 357.314 141.318C356.771 141.598 356.077 141.739 355.232 141.739H352.249V140.545H355.189C355.771 140.545 356.24 140.46 356.595 140.29C356.954 140.119 357.213 139.878 357.373 139.565C357.536 139.249 357.618 138.873 357.618 138.436C357.618 137.999 357.536 137.618 357.373 137.291C357.21 136.964 356.949 136.712 356.59 136.534C356.231 136.353 355.757 136.263 355.168 136.263H352.845V146H351.524ZM356.659 141.099L359.344 146H357.81L355.168 141.099H356.659ZM365.338 146V135.091H371.921V136.263H366.659V139.949H371.581V141.121H366.659V144.828H372.007V146H365.338ZM387.172 135.091V146H385.893L379.949 137.435H379.842V146H378.521V135.091H379.8L385.766 143.678H385.872V135.091H387.172ZM402.812 138.5H401.491C401.413 138.12 401.276 137.786 401.081 137.499C400.889 137.211 400.655 136.969 400.378 136.774C400.105 136.575 399.801 136.426 399.467 136.327C399.133 136.227 398.785 136.178 398.423 136.178C397.763 136.178 397.164 136.344 396.628 136.678C396.095 137.012 395.671 137.504 395.355 138.154C395.042 138.804 394.886 139.601 394.886 140.545C394.886 141.49 395.042 142.287 395.355 142.937C395.671 143.587 396.095 144.079 396.628 144.413C397.164 144.746 397.763 144.913 398.423 144.913C398.785 144.913 399.133 144.864 399.467 144.764C399.801 144.665 400.105 144.517 400.378 144.322C400.655 144.123 400.889 143.88 401.081 143.592C401.276 143.301 401.413 142.967 401.491 142.591H402.812C402.713 143.148 402.532 143.647 402.269 144.088C402.006 144.528 401.68 144.903 401.289 145.212C400.898 145.517 400.46 145.75 399.973 145.909C399.49 146.069 398.974 146.149 398.423 146.149C397.493 146.149 396.665 145.922 395.941 145.467C395.216 145.013 394.646 144.366 394.231 143.528C393.816 142.69 393.608 141.696 393.608 140.545C393.608 139.395 393.816 138.401 394.231 137.562C394.646 136.724 395.216 136.078 395.941 135.624C396.665 135.169 397.493 134.942 398.423 134.942C398.974 134.942 399.49 135.022 399.973 135.181C400.46 135.341 400.898 135.576 401.289 135.885C401.68 136.19 402.006 136.563 402.269 137.003C402.532 137.44 402.713 137.939 402.812 138.5ZM409.166 146V135.091H415.75V136.263H410.487V139.949H415.409V141.121H410.487V144.828H415.835V146H409.166Z" fill="white"/>
<path fill-rule="evenodd" clip-rule="evenodd" d="M272 135C272 134.47 272.211 133.961 272.586 133.586C272.961 133.211 273.47 133 274 133H284C284.53 133 285.039 133.211 285.414 133.586C285.789 133.961 286 134.47 286 135V145C286 145.53 285.789 146.039 285.414 146.414C285.039 146.789 284.53 147 284 147H274C273.47 147 272.961 146.789 272.586 146.414C272.211 146.039 272 145.53 272 145V135ZM283 136H275V144L279 142L283 144V136Z" fill="white"/>
<rect x="1" y="-1" width="228" height="58" rx="9" transform="matrix(1 0 0 -1 265 246)" fill="black" stroke="#FFE485" stroke-width="2"/>
<path d="M306.099 200.5H304.778C304.7 200.12 304.564 199.786 304.368 199.499C304.176 199.211 303.942 198.969 303.665 198.774C303.392 198.575 303.088 198.426 302.754 198.327C302.42 198.227 302.072 198.178 301.71 198.178C301.05 198.178 300.451 198.344 299.915 198.678C299.382 199.012 298.958 199.504 298.642 200.154C298.33 200.804 298.173 201.601 298.173 202.545C298.173 203.49 298.33 204.287 298.642 204.937C298.958 205.587 299.382 206.079 299.915 206.413C300.451 206.746 301.05 206.913 301.71 206.913C302.072 206.913 302.42 206.864 302.754 206.764C303.088 206.665 303.392 206.517 303.665 206.322C303.942 206.123 304.176 205.88 304.368 205.592C304.564 205.301 304.7 204.967 304.778 204.591H306.099C306 205.148 305.819 205.647 305.556 206.088C305.293 206.528 304.967 206.903 304.576 207.212C304.185 207.517 303.747 207.75 303.26 207.909C302.777 208.069 302.261 208.149 301.71 208.149C300.78 208.149 299.952 207.922 299.228 207.467C298.504 207.013 297.934 206.366 297.518 205.528C297.103 204.69 296.895 203.696 296.895 202.545C296.895 201.395 297.103 200.401 297.518 199.562C297.934 198.724 298.504 198.078 299.228 197.624C299.952 197.169 300.78 196.942 301.71 196.942C302.261 196.942 302.777 197.022 303.26 197.181C303.747 197.341 304.185 197.576 304.576 197.885C304.967 198.19 305.293 198.563 305.556 199.003C305.819 199.44 306 199.939 306.099 200.5ZM321.657 202.545C321.657 203.696 321.45 204.69 321.034 205.528C320.619 206.366 320.049 207.013 319.324 207.467C318.6 207.922 317.772 208.149 316.842 208.149C315.912 208.149 315.084 207.922 314.36 207.467C313.635 207.013 313.065 206.366 312.65 205.528C312.234 204.69 312.027 203.696 312.027 202.545C312.027 201.395 312.234 200.401 312.65 199.562C313.065 198.724 313.635 198.078 314.36 197.624C315.084 197.169 315.912 196.942 316.842 196.942C317.772 196.942 318.6 197.169 319.324 197.624C320.049 198.078 320.619 198.724 321.034 199.562C321.45 200.401 321.657 201.395 321.657 202.545ZM320.379 202.545C320.379 201.601 320.221 200.804 319.905 200.154C319.592 199.504 319.168 199.012 318.632 198.678C318.099 198.344 317.503 198.178 316.842 198.178C316.182 198.178 315.583 198.344 315.047 198.678C314.514 199.012 314.09 199.504 313.774 200.154C313.461 200.804 313.305 201.601 313.305 202.545C313.305 203.49 313.461 204.287 313.774 204.937C314.09 205.587 314.514 206.079 315.047 206.413C315.583 206.746 316.182 206.913 316.842 206.913C317.503 206.913 318.099 206.746 318.632 206.413C319.168 206.079 319.592 205.587 319.905 204.937C320.221 204.287 320.379 203.49 320.379 202.545ZM328.097 208V197.091H329.418V206.828H334.489V208H328.097ZM349.958 202.545C349.958 203.696 349.75 204.69 349.335 205.528C348.919 206.366 348.35 207.013 347.625 207.467C346.901 207.922 346.073 208.149 345.143 208.149C344.212 208.149 343.385 207.922 342.661 207.467C341.936 207.013 341.366 206.366 340.951 205.528C340.535 204.69 340.328 203.696 340.328 202.545C340.328 201.395 340.535 200.401 340.951 199.562C341.366 198.724 341.936 198.078 342.661 197.624C343.385 197.169 344.212 196.942 345.143 196.942C346.073 196.942 346.901 197.169 347.625 197.624C348.35 198.078 348.919 198.724 349.335 199.562C349.75 200.401 349.958 201.395 349.958 202.545ZM348.68 202.545C348.68 201.601 348.522 200.804 348.206 200.154C347.893 199.504 347.469 199.012 346.933 198.678C346.4 198.344 345.803 198.178 345.143 198.178C344.482 198.178 343.884 198.344 343.348 198.678C342.815 199.012 342.391 199.504 342.075 200.154C341.762 200.804 341.606 201.601 341.606 202.545C341.606 203.49 341.762 204.287 342.075 204.937C342.391 205.587 342.815 206.079 343.348 206.413C343.884 206.746 344.482 206.913 345.143 206.913C345.803 206.913 346.4 206.746 346.933 206.413C347.469 206.079 347.893 205.587 348.206 204.937C348.522 204.287 348.68 203.49 348.68 202.545ZM356.398 208V197.091H360.084C360.937 197.091 361.636 197.237 362.183 197.528C362.73 197.815 363.135 198.211 363.397 198.716C363.66 199.22 363.792 199.793 363.792 200.436C363.792 201.079 363.66 201.649 363.397 202.146C363.135 202.643 362.732 203.034 362.188 203.318C361.645 203.598 360.951 203.739 360.106 203.739H357.123V202.545H360.063C360.645 202.545 361.114 202.46 361.469 202.29C361.828 202.119 362.087 201.878 362.247 201.565C362.41 201.249 362.492 200.873 362.492 200.436C362.492 199.999 362.41 199.618 362.247 199.291C362.084 198.964 361.823 198.712 361.464 198.534C361.105 198.353 360.631 198.263 360.042 198.263H357.719V208H356.398ZM361.533 203.099L364.218 208H362.684L360.042 203.099H361.533Z" fill="white"/>
<path fill-rule="evenodd" clip-rule="evenodd" d="M275 197C275 196.47 275.211 195.961 275.586 195.586C275.961 195.211 276.47 195 277 195H287C287.53 195 288.039 195.211 288.414 195.586C288.789 195.961 289 196.47 289 197V207C289 207.53 288.789 208.039 288.414 208.414C288.039 208.789 287.53 209 287 209H277C276.47 209 275.961 208.789 275.586 208.414C275.211 208.039 275 207.53 275 207V197ZM286 198H278V206L282 204L286 206V198Z" fill="white"/>
<defs>
<filter id="filter0_d_7_165" x="17" y="81" width="238" height="36" filterUnits="userSpaceOnUse" color-interpolation-filters="sRGB">
<feFlood flood-opacity="0" result="BackgroundImageFix"/>
<feColorMatrix in="SourceAlpha" type="matrix" values="0 0 0 0 0 0 0 0 0 0 0 0 0 0 0 0 0 0 127 0" result="hardAlpha"/>
<feOffset dy="4"/>
<feGaussianBlur stdDeviation="2"/>
<feComposite in2="hardAlpha" operator="out"/>
<feColorMatrix type="matrix" values="0 0 0 0 0 0 0 0 0 0 0 0 0 0 0 0 0 0 0.25 0"/>
<feBlend mode="normal" in2="BackgroundImageFix" result="effect1_dropShadow_7_165"/>
<feBlend mode="normal" in="SourceGraphic" in2="effect1_dropShadow_7_165" result="shape"/>
</filter>
</defs>
</svg>
