<svg width="382" height="40" viewBox="0 0 382 40" fill="none" xmlns="http://www.w3.org/2000/svg">
<rect width="382" height="40" rx="20" fill="#004170"/>
<path d="M32.2467 15V11V15ZM42.1688 15V11V15ZM31.0064 19H43.409H31.0064ZM28.5259 29H45.8896C46.5474 29 47.1784 28.7893 47.6436 28.4142C48.1087 28.0391 48.3701 27.5304 48.3701 27V15C48.3701 14.4696 48.1087 13.9609 47.6436 13.5858C47.1784 13.2107 46.5474 13 45.8896 13H28.5259C27.8681 13 27.2371 13.2107 26.7719 13.5858C26.3067 13.9609 26.0454 14.4696 26.0454 15V27C26.0454 27.5304 26.3067 28.0391 26.7719 28.4142C27.2371 28.7893 27.8681 29 28.5259 29Z" stroke="white" stroke-width="2" stroke-linecap="round" stroke-linejoin="round"/>
</svg>
