<svg width="382" height="40" viewBox="0 0 382 40" fill="none" xmlns="http://www.w3.org/2000/svg">
<rect width="382" height="40" rx="20" fill="#004170"/>
<path d="M37.5936 15C37.5936 16.0609 37.0826 17.0783 36.1729 17.8284C35.2632 18.5786 34.0294 19 32.7429 19C31.4563 19 30.2225 18.5786 29.3128 17.8284C28.4031 17.0783 27.8921 16.0609 27.8921 15C27.8921 13.9391 28.4031 12.9217 29.3128 12.1716C30.2225 11.4214 31.4563 11 32.7429 11C34.0294 11 35.2632 11.4214 36.1729 12.1716C37.0826 12.9217 37.5936 13.9391 37.5936 15V15ZM32.7429 22C30.4915 22 28.3323 22.7375 26.7403 24.0503C25.1483 25.363 24.254 27.1435 24.254 29H41.2317C41.2317 27.1435 40.3374 25.363 38.7454 24.0503C37.1534 22.7375 34.9942 22 32.7429 22V22Z" stroke="white" stroke-width="2" stroke-linecap="round" stroke-linejoin="round"/>
</svg>
