<svg width="208" height="24" viewBox="0 0 208 24" fill="none" xmlns="http://www.w3.org/2000/svg">
<rect width="162" height="24" rx="12" fill="#004170"/>
<path d="M64.6699 18.0205C64.4876 18.0205 64.3555 18.0046 64.2734 17.9727C64.1914 17.9362 64.1504 17.8838 64.1504 17.8154C64.1504 17.7835 64.1618 17.7288 64.1846 17.6514L67.0625 9.66016C67.1081 9.52799 67.2699 9.46191 67.5479 9.46191H67.9033C68.1813 9.46191 68.3431 9.52799 68.3887 9.66016L71.2666 17.6582C71.2894 17.7083 71.3008 17.7607 71.3008 17.8154C71.3008 17.9521 71.1299 18.0205 70.7881 18.0205H70.6855C70.403 18.0205 70.2389 17.9567 70.1934 17.8291L69.4824 15.833H65.9141L65.2168 17.8291C65.1758 17.9567 65.014 18.0205 64.7314 18.0205H64.6699ZM69.1543 14.9102L67.8828 11.2939C67.8464 11.1937 67.8167 11.0798 67.7939 10.9521C67.7712 10.8245 67.7507 10.7015 67.7324 10.583H67.7051C67.6504 10.8883 67.5889 11.1253 67.5205 11.2939L66.249 14.9102H69.1543ZM75.8945 18.0684C74.6732 18.0684 73.7435 17.7174 73.1055 17.0156C72.4674 16.3092 72.1484 15.2428 72.1484 13.8164C72.1484 10.8815 73.4587 9.41406 76.0791 9.41406C76.4619 9.41406 76.8333 9.45508 77.1934 9.53711C77.5534 9.61458 77.8451 9.71257 78.0684 9.83105C78.2917 9.94954 78.4033 10.0635 78.4033 10.1729C78.4033 10.2412 78.3783 10.3324 78.3281 10.4463C78.2826 10.5602 78.2279 10.6605 78.1641 10.7471C78.1003 10.8337 78.0433 10.877 77.9932 10.877C77.9704 10.877 77.9066 10.8473 77.8018 10.7881C77.5648 10.6605 77.3164 10.5534 77.0566 10.4668C76.7969 10.3802 76.4801 10.3369 76.1064 10.3369C75.0765 10.3369 74.3428 10.6217 73.9053 11.1914C73.4678 11.7565 73.249 12.5951 73.249 13.707C73.249 14.7552 73.4518 15.5915 73.8574 16.2158C74.2676 16.8356 74.974 17.1455 75.9766 17.1455C76.2819 17.1455 76.5758 17.1318 76.8584 17.1045C77.1455 17.0726 77.3734 17.0339 77.542 16.9883V14.5342H76.1201C76.0335 14.5342 75.9697 14.5068 75.9287 14.4521C75.8923 14.3929 75.874 14.2995 75.874 14.1719V13.9736C75.874 13.846 75.8923 13.7549 75.9287 13.7002C75.9697 13.641 76.0335 13.6113 76.1201 13.6113H78.2461C78.3737 13.6113 78.4671 13.641 78.5264 13.7002C78.5856 13.7549 78.6152 13.846 78.6152 13.9736V17.1934C78.6152 17.5078 78.36 17.7334 77.8496 17.8701C77.3392 18.0023 76.6875 18.0684 75.8945 18.0684ZM81.1719 18C81.0443 18 80.9508 17.9704 80.8916 17.9111C80.8324 17.8519 80.8027 17.7607 80.8027 17.6377V9.8584C80.8027 9.73079 80.8324 9.63965 80.8916 9.58496C80.9508 9.52572 81.0443 9.49609 81.1719 9.49609H85.4102C85.4967 9.49609 85.5583 9.52344 85.5947 9.57812C85.6357 9.63281 85.6562 9.72624 85.6562 9.8584V10.0566C85.6562 10.1797 85.6357 10.2708 85.5947 10.3301C85.5583 10.3893 85.4967 10.4189 85.4102 10.4189H81.876V13.1875H85.0479C85.1344 13.1875 85.196 13.2171 85.2324 13.2764C85.2734 13.3356 85.2939 13.429 85.2939 13.5566V13.7412C85.2939 13.8688 85.2734 13.9622 85.2324 14.0215C85.196 14.0762 85.1344 14.1035 85.0479 14.1035H81.876V17.0771H85.4238C85.5104 17.0771 85.5719 17.1068 85.6084 17.166C85.6494 17.2207 85.6699 17.3118 85.6699 17.4395V17.6377C85.6699 17.7607 85.6494 17.8519 85.6084 17.9111C85.5719 17.9704 85.5104 18 85.4238 18H81.1719Z" fill="white"/>
<path d="M64.2734 17.9727L63.8673 18.8865L63.8889 18.8961L63.911 18.9047L64.2734 17.9727ZM64.1846 17.6514L63.2437 17.3125L63.2336 17.3406L63.2252 17.3692L64.1846 17.6514ZM67.0625 9.66016L68.0034 9.99902L68.0079 9.98615L67.0625 9.66016ZM68.3887 9.66016L67.4432 9.98618L67.4477 9.99873L68.3887 9.66016ZM71.2666 17.6582L70.3257 17.9968L70.3394 18.035L70.3562 18.072L71.2666 17.6582ZM70.1934 17.8291L69.2513 18.1646L69.2516 18.1654L70.1934 17.8291ZM69.4824 15.833L70.4245 15.4975L70.1878 14.833H69.4824V15.833ZM65.9141 15.833V14.833H65.2041L64.97 15.5032L65.9141 15.833ZM65.2168 17.8291L64.2727 17.4993L64.2686 17.5112L64.2648 17.5231L65.2168 17.8291ZM69.1543 14.9102V15.9102H70.5659L70.0977 14.5785L69.1543 14.9102ZM67.8828 11.2939L68.8263 10.9622L68.8226 10.9522L67.8828 11.2939ZM67.7939 10.9521L66.8095 11.1279L67.7939 10.9521ZM67.7324 10.583L68.7208 10.431L68.5903 9.58301H67.7324V10.583ZM67.7051 10.583V9.58301H66.8683L66.7207 10.4067L67.7051 10.583ZM67.5205 11.2939L66.5938 10.9182L66.5849 10.94L66.5771 10.9622L67.5205 11.2939ZM66.249 14.9102L65.3056 14.5785L64.8374 15.9102H66.249V14.9102ZM64.6699 17.0205C64.6387 17.0205 64.6133 17.0198 64.5933 17.0188C64.573 17.0178 64.5603 17.0165 64.5539 17.0157C64.5472 17.0149 64.5508 17.0151 64.5624 17.0176C64.5685 17.019 64.5777 17.0213 64.5897 17.0248C64.6015 17.0283 64.6172 17.0334 64.6359 17.0407L63.911 18.9047C64.1767 19.008 64.4676 19.0205 64.6699 19.0205V17.0205ZM64.6796 17.0588C64.7382 17.0849 64.8593 17.15 64.9687 17.2897C65.0898 17.4445 65.1504 17.6328 65.1504 17.8154H63.1504C63.1504 18.0665 63.2315 18.3151 63.3936 18.5223C63.544 18.7145 63.7266 18.8239 63.8673 18.8865L64.6796 17.0588ZM65.1504 17.8154C65.1504 17.8636 65.1463 17.8998 65.144 17.9177C65.1414 17.9372 65.1388 17.9501 65.1379 17.9544C65.1363 17.9622 65.1371 17.9567 65.1439 17.9335L63.2252 17.3692C63.2043 17.4403 63.1504 17.6222 63.1504 17.8154H65.1504ZM65.1254 17.9902L68.0033 9.99899L66.1217 9.32132L63.2437 17.3125L65.1254 17.9902ZM68.0079 9.98615C67.9659 10.1078 67.8957 10.2139 67.8095 10.2962C67.7274 10.3748 67.6472 10.4164 67.5961 10.4372C67.5071 10.4736 67.4708 10.4619 67.5479 10.4619V8.46191C67.3469 8.46191 67.0907 8.48329 66.8399 8.58572C66.5643 8.69828 66.2565 8.93006 66.1171 9.33417L68.0079 9.98615ZM67.5479 10.4619H67.9033V8.46191H67.5479V10.4619ZM67.9033 10.4619C67.9804 10.4619 67.944 10.4736 67.855 10.4372C67.804 10.4164 67.7238 10.3748 67.6417 10.2962C67.5555 10.2139 67.4852 10.1078 67.4433 9.98615L69.334 9.33417C69.1947 8.93006 68.8868 8.69828 68.6113 8.58572C68.3605 8.48329 68.1043 8.46191 67.9033 8.46191V10.4619ZM67.4477 9.99873L70.3257 17.9968L72.2075 17.3196L69.3296 9.32158L67.4477 9.99873ZM70.3562 18.072C70.3204 17.9931 70.3008 17.9045 70.3008 17.8154H72.3008C72.3008 17.617 72.2584 17.4236 72.177 17.2444L70.3562 18.072ZM70.3008 17.8154C70.3008 17.6219 70.3682 17.4238 70.5005 17.265C70.6181 17.1239 70.7453 17.0631 70.8012 17.0408C70.8957 17.003 70.9218 17.0205 70.7881 17.0205V19.0205C70.9962 19.0205 71.2786 19.0039 71.544 18.8977C71.6854 18.8412 71.8767 18.7377 72.037 18.5453C72.212 18.3353 72.3008 18.0773 72.3008 17.8154H70.3008ZM70.7881 17.0205H70.6855V19.0205H70.7881V17.0205ZM70.6855 17.0205C70.6023 17.0205 70.6309 17.0087 70.713 17.0407C70.7604 17.0591 70.8401 17.0978 70.924 17.1744C71.0126 17.2552 71.0889 17.3634 71.1351 17.4928L69.2516 18.1654C69.3993 18.579 69.7221 18.8012 69.9881 18.9047C70.2344 19.0004 70.4862 19.0205 70.6855 19.0205V17.0205ZM71.1354 17.4936L70.4245 15.4975L68.5404 16.1685L69.2513 18.1646L71.1354 17.4936ZM69.4824 14.833H65.9141V16.833H69.4824V14.833ZM64.97 15.5032L64.2727 17.4993L66.1609 18.1589L66.8581 16.1628L64.97 15.5032ZM64.2648 17.5231C64.3082 17.3878 64.3848 17.2726 64.477 17.1856C64.5641 17.1034 64.6481 17.062 64.6978 17.0424C64.784 17.0084 64.8158 17.0205 64.7314 17.0205V19.0205C64.9297 19.0205 65.1836 19.0007 65.4316 18.9029C65.7018 18.7964 66.0308 18.5645 66.1688 18.1351L64.2648 17.5231ZM64.7314 17.0205H64.6699V19.0205H64.7314V17.0205ZM70.0977 14.5785L68.8262 10.9622L66.9394 11.6256L68.2109 15.2419L70.0977 14.5785ZM68.8226 10.9522C68.8094 10.9159 68.7931 10.859 68.7784 10.7764L66.8095 11.1279C66.8403 11.3005 66.8833 11.4715 66.943 11.6357L68.8226 10.9522ZM68.7784 10.7764C68.7569 10.656 68.7377 10.5409 68.7208 10.431L66.7441 10.7351C66.7636 10.8621 66.7854 10.9931 66.8095 11.1279L68.7784 10.7764ZM67.7324 9.58301H67.7051V11.583H67.7324V9.58301ZM66.7207 10.4067C66.671 10.6843 66.6242 10.8433 66.5938 10.9182L68.4472 11.6697C68.5536 11.4074 68.6298 11.0924 68.6894 10.7593L66.7207 10.4067ZM66.5771 10.9622L65.3056 14.5785L67.1924 15.2419L68.4639 11.6256L66.5771 10.9622ZM66.249 15.9102H69.1543V13.9102H66.249V15.9102ZM73.1055 17.0156L72.3634 17.6859L72.3655 17.6883L73.1055 17.0156ZM77.1934 9.53711L76.9712 10.5122L76.983 10.5147L77.1934 9.53711ZM78.3281 10.4463L77.4128 10.0436L77.406 10.0591L77.3996 10.0749L78.3281 10.4463ZM77.8018 10.7881L78.2938 9.91752L78.2849 9.91248L78.2759 9.90761L77.8018 10.7881ZM73.9053 11.1914L74.696 11.8036L74.6984 11.8005L73.9053 11.1914ZM73.8574 16.2158L73.0188 16.7606L73.0235 16.7677L73.8574 16.2158ZM76.8584 17.1045L76.9547 18.0998L76.9618 18.0992L76.9688 18.0984L76.8584 17.1045ZM77.542 16.9883L77.8029 17.9536L78.542 17.7539V16.9883H77.542ZM77.542 14.5342H78.542V13.5342H77.542V14.5342ZM75.9287 14.4521L75.0771 14.9762L75.1011 15.0154L75.1287 15.0521L75.9287 14.4521ZM75.9287 13.7002L75.1065 13.131L75.1015 13.1382L75.0967 13.1455L75.9287 13.7002ZM78.5264 13.7002L77.8193 14.4073L77.8334 14.4214L77.8481 14.435L78.5264 13.7002ZM77.8496 17.8701L78.1003 18.8382L78.1083 18.8361L77.8496 17.8701ZM75.8945 17.0684C74.8689 17.0684 74.2429 16.7801 73.8454 16.343L72.3655 17.6883C73.2441 18.6548 74.4775 19.0684 75.8945 19.0684V17.0684ZM73.8476 16.3453C73.4416 15.8958 73.1484 15.1154 73.1484 13.8164H71.1484C71.1484 15.3702 71.4933 16.7227 72.3634 17.6859L73.8476 16.3453ZM73.1484 13.8164C73.1484 12.4769 73.4499 11.6591 73.877 11.1807C74.2849 10.7238 74.9542 10.4141 76.0791 10.4141V8.41406C74.5836 8.41406 73.2875 8.83802 72.3852 9.84863C71.5021 10.8377 71.1484 12.221 71.1484 13.8164H73.1484ZM76.0791 10.4141C76.3899 10.4141 76.6867 10.4473 76.9712 10.5121L77.4155 8.5621C76.98 8.46286 76.5339 8.41406 76.0791 8.41406V10.4141ZM76.983 10.5147C77.2901 10.5808 77.4855 10.6539 77.5996 10.7144L78.5371 8.94771C78.2046 8.77128 77.8167 8.64835 77.4037 8.55949L76.983 10.5147ZM77.5996 10.7144C77.667 10.7502 77.6508 10.7517 77.6054 10.7053C77.5617 10.6607 77.4033 10.479 77.4033 10.1729H79.4033C79.4033 9.75728 79.1891 9.46396 79.0338 9.30544C78.8767 9.14512 78.693 9.03044 78.5371 8.94771L77.5996 10.7144ZM77.4033 10.1729C77.4033 10.1297 77.4072 10.0957 77.4107 10.0732C77.4143 10.0504 77.4183 10.0348 77.4203 10.0273C77.424 10.0139 77.424 10.0181 77.4128 10.0436L79.2434 10.849C79.311 10.6954 79.4033 10.451 79.4033 10.1729H77.4033ZM77.3996 10.0749C77.3813 10.1208 77.3659 10.1445 77.359 10.1539L78.9691 11.3403C79.0898 11.1765 79.1838 10.9996 79.2566 10.8177L77.3996 10.0749ZM77.359 10.1539C77.361 10.1511 77.3696 10.1397 77.3852 10.123C77.4003 10.1067 77.4277 10.0792 77.4684 10.0483C77.5418 9.99256 77.7237 9.87695 77.9932 9.87695V11.877C78.3127 11.877 78.5482 11.7397 78.6786 11.6406C78.811 11.54 78.906 11.4259 78.9691 11.3403L77.359 10.1539ZM77.9932 9.87695C78.0901 9.87695 78.1648 9.89158 78.2014 9.89977C78.2426 9.90901 78.2741 9.9191 78.2921 9.92523C78.327 9.93717 78.3484 9.94731 78.3493 9.94773C78.3526 9.94923 78.3368 9.94184 78.2938 9.91752L77.3097 11.6586C77.3715 11.6936 77.4401 11.7306 77.5071 11.7617C77.5399 11.777 77.5882 11.7982 77.6447 11.8176C77.6766 11.8285 77.8147 11.877 77.9932 11.877V9.87695ZM78.2759 9.90761C77.9874 9.75231 77.6862 9.62255 77.3729 9.51811L76.7404 11.4155C76.9466 11.4842 77.1421 11.5687 77.3277 11.6686L78.2759 9.90761ZM77.3729 9.51811C76.9815 9.38767 76.5512 9.33691 76.1064 9.33691V11.3369C76.4091 11.3369 76.6122 11.3727 76.7404 11.4155L77.3729 9.51811ZM76.1064 9.33691C74.9075 9.33691 73.8112 9.67219 73.1122 10.5823L74.6984 11.8005C74.8744 11.5713 75.2455 11.3369 76.1064 11.3369V9.33691ZM73.1145 10.5792C72.4844 11.3932 72.249 12.4893 72.249 13.707H74.249C74.249 12.7008 74.4512 12.1198 74.696 11.8036L73.1145 10.5792ZM72.249 13.707C72.249 14.873 72.4731 15.9206 73.0188 16.7606L74.696 15.671C74.4305 15.2624 74.249 14.6374 74.249 13.707H72.249ZM73.0235 16.7677C73.6804 17.7603 74.7678 18.1455 75.9766 18.1455V16.1455C75.1801 16.1455 74.8548 15.9109 74.6914 15.664L73.0235 16.7677ZM75.9766 18.1455C76.3117 18.1455 76.6379 18.1305 76.9547 18.0998L76.7621 16.1091C76.5138 16.1332 76.2521 16.1455 75.9766 16.1455V18.1455ZM76.9688 18.0984C77.2785 18.064 77.5635 18.0183 77.8029 17.9536L77.2811 16.0229C77.1832 16.0494 77.0125 16.0812 76.748 16.1106L76.9688 18.0984ZM78.542 16.9883V14.5342H76.542V16.9883H78.542ZM77.542 13.5342H76.1201V15.5342H77.542V13.5342ZM76.1201 13.5342C76.1798 13.5342 76.282 13.5434 76.4012 13.5945C76.5277 13.6487 76.6425 13.7371 76.7287 13.8521L75.1287 15.0521C75.408 15.4246 75.8115 15.5342 76.1201 15.5342V13.5342ZM76.7804 13.9281C76.8435 14.0306 76.8632 14.1155 76.8692 14.1461C76.8757 14.1797 76.874 14.1916 76.874 14.1719H74.874C74.874 14.3526 74.8922 14.6758 75.0771 14.9762L76.7804 13.9281ZM76.874 14.1719V13.9736H74.874V14.1719H76.874ZM76.874 13.9736C76.874 13.9532 76.8758 13.9679 76.8683 14.0057C76.8616 14.0391 76.8384 14.1385 76.7608 14.2549L75.0967 13.1455C74.8881 13.4584 74.874 13.8044 74.874 13.9736H76.874ZM76.7509 14.2694C76.6727 14.3823 76.562 14.4786 76.4284 14.5406C76.3016 14.5995 76.1895 14.6113 76.1201 14.6113V12.6113C75.7808 12.6113 75.3735 12.7453 75.1065 13.131L76.7509 14.2694ZM76.1201 14.6113H78.2461V12.6113H76.1201V14.6113ZM78.2461 14.6113C78.2447 14.6113 78.0258 14.6139 77.8193 14.4073L79.2335 12.9931C78.9084 12.668 78.5027 12.6113 78.2461 12.6113V14.6113ZM77.8481 14.435C77.73 14.326 77.6701 14.2052 77.642 14.1187C77.6156 14.0376 77.6152 13.9822 77.6152 13.9736H79.6152C79.6152 13.7261 79.5623 13.2955 79.2046 12.9654L77.8481 14.435ZM77.6152 13.9736V17.1934H79.6152V13.9736H77.6152ZM77.6152 17.1934C77.6152 17.1322 77.6287 17.0584 77.6633 16.9853C77.6969 16.9141 77.7379 16.87 77.7615 16.8491C77.7829 16.8302 77.7872 16.8326 77.7568 16.847C77.7269 16.8612 77.674 16.8819 77.5909 16.9042L78.1083 18.8361C78.4386 18.7476 78.7961 18.604 79.0861 18.3476C79.4083 18.0628 79.6152 17.663 79.6152 17.1934H77.6152ZM77.5989 16.902C77.2004 17.0052 76.6408 17.0684 75.8945 17.0684V19.0684C76.7342 19.0684 77.478 18.9993 78.1003 18.8382L77.5989 16.902ZM80.8916 17.9111L80.1845 18.6182L80.8916 17.9111ZM80.8916 9.58496L81.5699 10.3198L81.5846 10.3062L81.5987 10.2921L80.8916 9.58496ZM85.5947 9.57812L84.7627 10.1328L84.7781 10.1559L84.7947 10.1781L85.5947 9.57812ZM85.5947 10.3301L84.7725 9.76087L84.7572 9.78303L84.7431 9.80598L85.5947 10.3301ZM81.876 10.4189V9.41895H80.876V10.4189H81.876ZM81.876 13.1875H80.876V14.1875H81.876V13.1875ZM85.2324 13.2764L84.3808 13.8005L84.3949 13.8234L84.4102 13.8456L85.2324 13.2764ZM85.2324 14.0215L84.4102 13.4523L84.4052 13.4595L84.4004 13.4668L85.2324 14.0215ZM81.876 14.1035V13.1035H80.876V14.1035H81.876ZM81.876 17.0771H80.876V18.0771H81.876V17.0771ZM85.6084 17.166L84.7567 17.6901L84.7808 17.7293L84.8084 17.766L85.6084 17.166ZM85.6084 17.9111L84.7862 17.3419L84.7709 17.3641L84.7567 17.387L85.6084 17.9111ZM81.1719 17C81.1733 17 81.3921 16.9975 81.5987 17.204L80.1845 18.6182C80.5095 18.9433 80.9153 19 81.1719 19V17ZM81.5987 17.204C81.7994 17.4047 81.8027 17.6194 81.8027 17.6377H79.8027C79.8027 17.9021 79.8653 18.299 80.1845 18.6182L81.5987 17.204ZM81.8027 17.6377V9.8584H79.8027V17.6377H81.8027ZM81.8027 9.8584C81.8027 9.867 81.8023 9.92232 81.776 10.0034C81.7479 10.09 81.688 10.2108 81.5699 10.3198L80.2133 8.85016C79.8557 9.18028 79.8027 9.61087 79.8027 9.8584H81.8027ZM81.5987 10.2921C81.3921 10.4986 81.1733 10.4961 81.1719 10.4961V8.49609C80.9153 8.49609 80.5095 8.5528 80.1845 8.87785L81.5987 10.2921ZM81.1719 10.4961H85.4102V8.49609H81.1719V10.4961ZM85.4102 10.4961C85.352 10.4961 85.2432 10.4873 85.1151 10.4304C84.9772 10.3691 84.8522 10.2671 84.7627 10.1328L86.4268 9.02342C86.1477 8.60484 85.713 8.49609 85.4102 8.49609V10.4961ZM84.7947 10.1781C84.7023 10.0549 84.6731 9.9445 84.6641 9.90362C84.6543 9.85896 84.6562 9.83924 84.6562 9.8584H86.6562C86.6562 9.68162 86.6404 9.30568 86.3947 8.97813L84.7947 10.1781ZM84.6562 9.8584V10.0566H86.6562V9.8584H84.6562ZM84.6562 10.0566C84.6562 10.0661 84.6551 10.0428 84.6653 9.99777C84.6752 9.95343 84.7018 9.86311 84.7725 9.76087L86.4169 10.8993C86.63 10.5915 86.6562 10.2546 86.6562 10.0566H84.6562ZM84.7431 9.80598C84.8232 9.6758 84.9423 9.5656 85.0874 9.49573C85.2233 9.43033 85.3423 9.41895 85.4102 9.41895V11.4189C85.7461 11.4189 86.1819 11.284 86.4464 10.8542L84.7431 9.80598ZM85.4102 9.41895H81.876V11.4189H85.4102V9.41895ZM80.876 10.4189V13.1875H82.876V10.4189H80.876ZM81.876 14.1875H85.0479V12.1875H81.876V14.1875ZM85.0479 14.1875C84.98 14.1875 84.861 14.1761 84.7251 14.1107C84.58 14.0408 84.4609 13.9306 84.3808 13.8005L86.0841 12.7523C85.8196 12.3225 85.3838 12.1875 85.0479 12.1875V14.1875ZM84.4102 13.8456C84.3367 13.7393 84.3108 13.6464 84.3018 13.6053C84.2925 13.5627 84.2939 13.5426 84.2939 13.5566H86.2939C86.2939 13.3634 86.2707 13.0193 86.0546 12.7072L84.4102 13.8456ZM84.2939 13.5566V13.7412H86.2939V13.5566H84.2939ZM84.2939 13.7412C84.2939 13.7552 84.2925 13.7352 84.3018 13.6926C84.3108 13.6515 84.3367 13.5585 84.4102 13.4523L86.0546 14.5907C86.2707 14.2786 86.2939 13.9345 86.2939 13.7412H84.2939ZM84.4004 13.4668C84.4899 13.3325 84.6149 13.2305 84.7528 13.1692C84.8809 13.1123 84.9897 13.1035 85.0479 13.1035V15.1035C85.3507 15.1035 85.7854 14.9948 86.0645 14.5762L84.4004 13.4668ZM85.0479 13.1035H81.876V15.1035H85.0479V13.1035ZM80.876 14.1035V17.0771H82.876V14.1035H80.876ZM81.876 18.0771H85.4238V16.0771H81.876V18.0771ZM85.4238 18.0771C85.356 18.0771 85.2369 18.0658 85.1011 18.0004C84.956 17.9305 84.8369 17.8203 84.7567 17.6901L86.4601 16.6419C86.1956 16.2121 85.7597 16.0771 85.4238 16.0771V18.0771ZM84.8084 17.766C84.7191 17.647 84.689 17.5396 84.6789 17.4949C84.6683 17.4477 84.6699 17.4247 84.6699 17.4395H86.6699C86.6699 17.2576 86.651 16.8895 86.4084 16.566L84.8084 17.766ZM84.6699 17.4395V17.6377H86.6699V17.4395H84.6699ZM84.6699 17.6377C84.6699 17.6472 84.6688 17.6238 84.6789 17.5788C84.6889 17.5345 84.7154 17.4442 84.7862 17.3419L86.4306 18.4803C86.6436 18.1726 86.6699 17.8357 86.6699 17.6377H84.6699ZM84.7567 17.387C84.8369 17.2569 84.956 17.1467 85.1011 17.0768C85.2369 17.0114 85.356 17 85.4238 17V19C85.7597 19 86.1956 18.865 86.4601 18.4352L84.7567 17.387ZM85.4238 17H81.1719V19H85.4238V17Z" fill="black"/>
</svg>
