<svg width="208" height="24" viewBox="0 0 208 24" fill="none" xmlns="http://www.w3.org/2000/svg">
<rect width="162" height="24" rx="12" fill="#004170"/>
<path d="M65.5449 18C65.4173 18 65.3239 17.9704 65.2646 17.9111C65.2054 17.8519 65.1758 17.7607 65.1758 17.6377V9.8584C65.1758 9.73079 65.2054 9.63965 65.2646 9.58496C65.3239 9.52572 65.4173 9.49609 65.5449 9.49609H67.999C69.1383 9.49609 70.0498 9.83333 70.7334 10.5078C71.417 11.1823 71.7588 12.2601 71.7588 13.7412C71.7588 15.2314 71.417 16.3138 70.7334 16.9883C70.0498 17.6628 69.1383 18 67.999 18H65.5449ZM67.917 17.0771C68.7373 17.0771 69.3981 16.8105 69.8994 16.2773C70.4007 15.7396 70.6514 14.8942 70.6514 13.7412C70.6514 12.9665 70.5329 12.333 70.2959 11.8408C70.0589 11.3441 69.7354 10.984 69.3252 10.7607C68.915 10.5329 68.4456 10.4189 67.917 10.4189H66.249V17.0771H67.917ZM73.1191 18.0205C72.9368 18.0205 72.8047 18.0046 72.7227 17.9727C72.6406 17.9362 72.5996 17.8838 72.5996 17.8154C72.5996 17.7835 72.611 17.7288 72.6338 17.6514L75.5117 9.66016C75.5573 9.52799 75.7191 9.46191 75.9971 9.46191H76.3525C76.6305 9.46191 76.7923 9.52799 76.8379 9.66016L79.7158 17.6582C79.7386 17.7083 79.75 17.7607 79.75 17.8154C79.75 17.9521 79.5791 18.0205 79.2373 18.0205H79.1348C78.8522 18.0205 78.6882 17.9567 78.6426 17.8291L77.9316 15.833H74.3633L73.666 17.8291C73.625 17.9567 73.4632 18.0205 73.1807 18.0205H73.1191ZM77.6035 14.9102L76.332 11.2939C76.2956 11.1937 76.266 11.0798 76.2432 10.9521C76.2204 10.8245 76.1999 10.7015 76.1816 10.583H76.1543C76.0996 10.8883 76.0381 11.1253 75.9697 11.2939L74.6982 14.9102H77.6035ZM82.7168 18.0205C82.5482 18.0205 82.4251 18 82.3477 17.959C82.2702 17.9134 82.2314 17.8451 82.2314 17.7539V10.4189H79.8936C79.807 10.4189 79.7454 10.3893 79.709 10.3301C79.6725 10.2708 79.6543 10.1797 79.6543 10.0566V9.8584C79.6543 9.73079 79.6725 9.63965 79.709 9.58496C79.7454 9.52572 79.807 9.49609 79.8936 9.49609H85.5947C85.6813 9.49609 85.7428 9.52572 85.7793 9.58496C85.8158 9.63965 85.834 9.73079 85.834 9.8584V10.0566C85.834 10.1797 85.8158 10.2708 85.7793 10.3301C85.7428 10.3893 85.6813 10.4189 85.5947 10.4189H83.3047V17.7539C83.3047 17.9316 83.1406 18.0205 82.8125 18.0205H82.7168ZM87.625 18C87.4974 18 87.404 17.9704 87.3447 17.9111C87.2855 17.8519 87.2559 17.7607 87.2559 17.6377V9.8584C87.2559 9.73079 87.2855 9.63965 87.3447 9.58496C87.404 9.52572 87.4974 9.49609 87.625 9.49609H91.8633C91.9499 9.49609 92.0114 9.52344 92.0479 9.57812C92.0889 9.63281 92.1094 9.72624 92.1094 9.8584V10.0566C92.1094 10.1797 92.0889 10.2708 92.0479 10.3301C92.0114 10.3893 91.9499 10.4189 91.8633 10.4189H88.3291V13.1875H91.501C91.5876 13.1875 91.6491 13.2171 91.6855 13.2764C91.7266 13.3356 91.7471 13.429 91.7471 13.5566V13.7412C91.7471 13.8688 91.7266 13.9622 91.6855 14.0215C91.6491 14.0762 91.5876 14.1035 91.501 14.1035H88.3291V17.0771H91.877C91.9635 17.0771 92.0251 17.1068 92.0615 17.166C92.1025 17.2207 92.123 17.3118 92.123 17.4395V17.6377C92.123 17.7607 92.1025 17.8519 92.0615 17.9111C92.0251 17.9704 91.9635 18 91.877 18H87.625ZM100.087 18.0684C98.8701 18.0684 97.9427 17.6992 97.3047 16.9609C96.6667 16.2227 96.3477 15.1426 96.3477 13.7207C96.3477 12.3034 96.6644 11.2324 97.2979 10.5078C97.9359 9.77865 98.8656 9.41406 100.087 9.41406C101.313 9.41406 102.245 9.77865 102.883 10.5078C103.521 11.2324 103.84 12.3034 103.84 13.7207C103.84 15.1426 103.521 16.2227 102.883 16.9609C102.245 17.6992 101.313 18.0684 100.087 18.0684ZM100.087 17.1455C100.944 17.1455 101.6 16.8538 102.056 16.2705C102.511 15.6826 102.739 14.8327 102.739 13.7207C102.739 12.6087 102.511 11.7679 102.056 11.1982C101.604 10.624 100.948 10.3369 100.087 10.3369C99.2301 10.3369 98.5762 10.624 98.125 11.1982C97.6738 11.7679 97.4482 12.6087 97.4482 13.7207C97.4482 14.8372 97.6738 15.6872 98.125 16.2705C98.5762 16.8538 99.2301 17.1455 100.087 17.1455ZM106.205 18.0205C105.877 18.0205 105.713 17.9316 105.713 17.7539V9.8584C105.713 9.73079 105.743 9.63965 105.802 9.58496C105.861 9.52572 105.954 9.49609 106.082 9.49609H109.91C109.997 9.49609 110.058 9.52572 110.095 9.58496C110.131 9.63965 110.149 9.73079 110.149 9.8584V10.0566C110.149 10.1797 110.131 10.2708 110.095 10.3301C110.058 10.3893 109.997 10.4189 109.91 10.4189H106.786V13.1875H109.691C109.773 13.1875 109.835 13.2171 109.876 13.2764C109.917 13.3356 109.938 13.429 109.938 13.5566V13.7412C109.938 13.8688 109.917 13.9622 109.876 14.0215C109.835 14.0762 109.773 14.1035 109.691 14.1035H106.786V17.7539C106.786 17.9316 106.624 18.0205 106.301 18.0205H106.205ZM115.119 18C114.992 18 114.898 17.9704 114.839 17.9111C114.78 17.8519 114.75 17.7607 114.75 17.6377V9.8584C114.75 9.73079 114.78 9.63965 114.839 9.58496C114.898 9.52572 114.992 9.49609 115.119 9.49609H117.293C117.885 9.49609 118.384 9.58496 118.79 9.7627C119.196 9.94043 119.501 10.1911 119.706 10.5146C119.911 10.8382 120.014 11.2142 120.014 11.6426C120.014 11.9069 119.952 12.1712 119.829 12.4355C119.706 12.6953 119.542 12.9209 119.337 13.1123C119.132 13.2992 118.913 13.4245 118.681 13.4883V13.5361C118.681 13.5042 118.838 13.5658 119.152 13.7207C119.467 13.8711 119.749 14.0967 120 14.3975C120.255 14.6937 120.383 15.0788 120.383 15.5527C120.383 17.1842 119.326 18 117.211 18H115.119ZM117.238 13.1602C117.557 13.1602 117.844 13.0986 118.1 12.9756C118.355 12.848 118.553 12.6771 118.694 12.4629C118.84 12.2441 118.913 12.0026 118.913 11.7383C118.913 11.2826 118.776 10.9499 118.503 10.7402C118.229 10.526 117.792 10.4189 117.19 10.4189H115.823V13.1602H117.238ZM117.601 17.0771C118.134 17.0771 118.546 16.9382 118.838 16.6602C119.13 16.3776 119.275 15.9925 119.275 15.5049C119.275 15.0537 119.116 14.7051 118.797 14.459C118.478 14.2083 118.008 14.083 117.389 14.083H115.823V17.0771H117.601ZM122.447 18.0205C122.119 18.0205 121.955 17.9316 121.955 17.7539V9.73535C121.955 9.55306 122.119 9.46191 122.447 9.46191H122.543C122.867 9.46191 123.028 9.55306 123.028 9.73535V17.7539C123.028 17.9316 122.867 18.0205 122.543 18.0205H122.447ZM125.879 18.0205C125.551 18.0205 125.387 17.9316 125.387 17.7539V9.8584C125.387 9.73079 125.416 9.63965 125.476 9.58496C125.535 9.52572 125.628 9.49609 125.756 9.49609H127.8C128.771 9.49609 129.5 9.66699 129.987 10.0088C130.479 10.3506 130.726 10.8952 130.726 11.6426C130.726 12.1484 130.603 12.5745 130.356 12.9209C130.115 13.2627 129.773 13.5202 129.331 13.6934V13.7412C129.568 13.8232 129.762 13.9827 129.912 14.2197C130.067 14.4521 130.238 14.7985 130.425 15.2588L131.375 17.6582C131.398 17.7402 131.409 17.7972 131.409 17.8291C131.409 17.9567 131.238 18.0205 130.896 18.0205H130.773C130.65 18.0205 130.543 18.0046 130.452 17.9727C130.366 17.9362 130.311 17.8883 130.288 17.8291L129.365 15.4434C129.247 15.1335 129.108 14.8919 128.948 14.7188C128.789 14.5456 128.6 14.4248 128.381 14.3564C128.162 14.2881 127.886 14.2539 127.554 14.2539H126.46V17.7539C126.46 17.9316 126.298 18.0205 125.975 18.0205H125.879ZM128.06 13.3311C128.347 13.3311 128.609 13.2627 128.846 13.126C129.087 12.9893 129.276 12.807 129.413 12.5791C129.554 12.3467 129.625 12.1006 129.625 11.8408C129.625 11.3623 129.479 11.0068 129.188 10.7744C128.896 10.5374 128.493 10.4189 127.978 10.4189H126.46V13.3311H128.06ZM134.943 18.0205C134.775 18.0205 134.652 18 134.574 17.959C134.497 17.9134 134.458 17.8451 134.458 17.7539V10.4189H132.12C132.034 10.4189 131.972 10.3893 131.936 10.3301C131.899 10.2708 131.881 10.1797 131.881 10.0566V9.8584C131.881 9.73079 131.899 9.63965 131.936 9.58496C131.972 9.52572 132.034 9.49609 132.12 9.49609H137.821C137.908 9.49609 137.969 9.52572 138.006 9.58496C138.042 9.63965 138.061 9.73079 138.061 9.8584V10.0566C138.061 10.1797 138.042 10.2708 138.006 10.3301C137.969 10.3893 137.908 10.4189 137.821 10.4189H135.531V17.7539C135.531 17.9316 135.367 18.0205 135.039 18.0205H134.943ZM139.975 18.0205C139.646 18.0205 139.482 17.9316 139.482 17.7539V9.73535C139.482 9.55306 139.646 9.46191 139.975 9.46191H140.07C140.394 9.46191 140.556 9.55306 140.556 9.73535V13.1738H144.958V9.73535C144.958 9.55306 145.12 9.46191 145.443 9.46191H145.539C145.863 9.46191 146.024 9.55306 146.024 9.73535V17.7539C146.024 17.8451 145.986 17.9134 145.908 17.959C145.831 18 145.708 18.0205 145.539 18.0205H145.443C145.275 18.0205 145.152 18 145.074 17.959C144.997 17.9134 144.958 17.8451 144.958 17.7539V14.0967H140.556V17.7539C140.556 17.9316 140.394 18.0205 140.07 18.0205H139.975Z" fill="white"/>
<path d="M65.2646 17.9111L64.5575 18.6182L65.2646 17.9111ZM65.2646 9.58496L65.9429 10.3198L65.9576 10.3062L65.9718 10.2921L65.2646 9.58496ZM70.7334 10.5078L70.0311 11.2196L70.7334 10.5078ZM69.8994 16.2773L70.628 16.9623L70.6309 16.9592L69.8994 16.2773ZM70.2959 11.8408L69.3933 12.2714L69.3949 12.2746L70.2959 11.8408ZM69.3252 10.7607L68.8395 11.6349L68.847 11.639L69.3252 10.7607ZM66.249 10.4189V9.41895H65.249V10.4189H66.249ZM66.249 17.0771H65.249V18.0771H66.249V17.0771ZM65.5449 17C65.5463 17 65.7652 16.9975 65.9718 17.204L64.5575 18.6182C64.8826 18.9433 65.2883 19 65.5449 19V17ZM65.9718 17.204C66.1725 17.4047 66.1758 17.6194 66.1758 17.6377H64.1758C64.1758 17.9021 64.2383 18.299 64.5575 18.6182L65.9718 17.204ZM66.1758 17.6377V9.8584H64.1758V17.6377H66.1758ZM66.1758 9.8584C66.1758 9.867 66.1754 9.92232 66.149 10.0034C66.1209 10.09 66.061 10.2108 65.9429 10.3198L64.5864 8.85016C64.2287 9.18028 64.1758 9.61087 64.1758 9.8584H66.1758ZM65.9718 10.2921C65.7652 10.4986 65.5463 10.4961 65.5449 10.4961V8.49609C65.2883 8.49609 64.8826 8.5528 64.5575 8.87785L65.9718 10.2921ZM65.5449 10.4961H67.999V8.49609H65.5449V10.4961ZM67.999 10.4961C68.928 10.4961 69.5689 10.7637 70.0311 11.2196L71.4357 9.79598C70.5307 8.90298 69.3487 8.49609 67.999 8.49609V10.4961ZM70.0311 11.2196C70.4425 11.6256 70.7588 12.3856 70.7588 13.7412H72.7588C72.7588 12.1346 72.3915 10.7389 71.4357 9.79598L70.0311 11.2196ZM70.7588 13.7412C70.7588 15.1081 70.4416 15.8714 70.0311 16.2764L71.4357 17.7001C72.3924 16.7562 72.7588 15.3548 72.7588 13.7412H70.7588ZM70.0311 16.2764C69.5689 16.7324 68.928 17 67.999 17V19C69.3487 19 70.5307 18.5931 71.4357 17.7001L70.0311 16.2764ZM67.999 17H65.5449V19H67.999V17ZM67.917 18.0771C68.9764 18.0771 69.9139 17.7219 70.628 16.9623L69.1708 15.5924C68.8824 15.8992 68.4982 16.0771 67.917 16.0771V18.0771ZM70.6309 16.9592C71.3802 16.1554 71.6514 15.0091 71.6514 13.7412H69.6514C69.6514 14.7793 69.4212 15.3238 69.1679 15.5955L70.6309 16.9592ZM71.6514 13.7412C71.6514 12.8749 71.5204 12.0789 71.1969 11.407L69.3949 12.2746C69.5453 12.5871 69.6514 13.0581 69.6514 13.7412H71.6514ZM71.1985 11.4102C70.8874 10.7583 70.43 10.2236 69.8034 9.88247L68.847 11.639C69.0407 11.7445 69.2304 11.9299 69.3933 12.2714L71.1985 11.4102ZM69.8108 9.88658C69.2341 9.56617 68.5937 9.41895 67.917 9.41895V11.4189C68.2976 11.4189 68.596 11.4996 68.8396 11.6349L69.8108 9.88658ZM67.917 9.41895H66.249V11.4189H67.917V9.41895ZM65.249 10.4189V17.0771H67.249V10.4189H65.249ZM66.249 18.0771H67.917V16.0771H66.249V18.0771ZM72.7227 17.9727L72.3165 18.8865L72.3381 18.8961L72.3602 18.9047L72.7227 17.9727ZM72.6338 17.6514L71.6929 17.3125L71.6828 17.3406L71.6744 17.3692L72.6338 17.6514ZM75.5117 9.66016L76.4527 9.99902L76.4571 9.98615L75.5117 9.66016ZM76.8379 9.66016L75.8924 9.98618L75.897 9.99873L76.8379 9.66016ZM79.7158 17.6582L78.7749 17.9968L78.7886 18.035L78.8055 18.072L79.7158 17.6582ZM78.6426 17.8291L77.7005 18.1646L77.7008 18.1654L78.6426 17.8291ZM77.9316 15.833L78.8737 15.4975L78.637 14.833H77.9316V15.833ZM74.3633 15.833V14.833H73.6533L73.4192 15.5032L74.3633 15.833ZM73.666 17.8291L72.722 17.4993L72.7178 17.5112L72.714 17.5231L73.666 17.8291ZM77.6035 14.9102V15.9102H79.0151L78.5469 14.5785L77.6035 14.9102ZM76.332 11.2939L77.2755 10.9622L77.2718 10.9522L76.332 11.2939ZM76.2432 10.9521L75.2587 11.1279L76.2432 10.9521ZM76.1816 10.583L77.17 10.431L77.0396 9.58301H76.1816V10.583ZM76.1543 10.583V9.58301H75.3175L75.17 10.4067L76.1543 10.583ZM75.9697 11.2939L75.043 10.9182L75.0341 10.94L75.0263 10.9622L75.9697 11.2939ZM74.6982 14.9102L73.7549 14.5785L73.2866 15.9102H74.6982V14.9102ZM73.1191 17.0205C73.0879 17.0205 73.0625 17.0198 73.0425 17.0188C73.0223 17.0178 73.0095 17.0165 73.0031 17.0157C72.9964 17.0149 73 17.0151 73.0116 17.0176C73.0177 17.019 73.027 17.0213 73.0389 17.0248C73.0507 17.0283 73.0664 17.0334 73.0851 17.0407L72.3602 18.9047C72.626 19.008 72.9169 19.0205 73.1191 19.0205V17.0205ZM73.1288 17.0588C73.1874 17.0849 73.3085 17.15 73.4179 17.2897C73.539 17.4445 73.5996 17.6328 73.5996 17.8154H71.5996C71.5996 18.0665 71.6807 18.3151 71.8429 18.5223C71.9932 18.7145 72.1759 18.8239 72.3165 18.8865L73.1288 17.0588ZM73.5996 17.8154C73.5996 17.8636 73.5956 17.8998 73.5932 17.9177C73.5906 17.9372 73.588 17.9501 73.5871 17.9544C73.5855 17.9622 73.5863 17.9567 73.5932 17.9335L71.6744 17.3692C71.6535 17.4403 71.5996 17.6222 71.5996 17.8154H73.5996ZM73.5746 17.9902L76.4526 9.99899L74.5709 9.32132L71.6929 17.3125L73.5746 17.9902ZM76.4571 9.98615C76.4152 10.1078 76.3449 10.2139 76.2587 10.2962C76.1766 10.3748 76.0964 10.4164 76.0454 10.4372C75.9564 10.4736 75.92 10.4619 75.9971 10.4619V8.46191C75.7961 8.46191 75.5399 8.48329 75.2891 8.58572C75.0135 8.69828 74.7057 8.93006 74.5663 9.33417L76.4571 9.98615ZM75.9971 10.4619H76.3525V8.46191H75.9971V10.4619ZM76.3525 10.4619C76.4296 10.4619 76.3932 10.4736 76.3042 10.4372C76.2532 10.4164 76.173 10.3748 76.0909 10.2962C76.0047 10.2139 75.9345 10.1078 75.8925 9.98615L77.7833 9.33417C77.6439 8.93006 77.3361 8.69828 77.0605 8.58572C76.8097 8.48329 76.5535 8.46191 76.3525 8.46191V10.4619ZM75.897 9.99873L78.7749 17.9968L80.6568 17.3196L77.7788 9.32158L75.897 9.99873ZM78.8055 18.072C78.7696 17.9931 78.75 17.9045 78.75 17.8154H80.75C80.75 17.617 80.7076 17.4236 80.6262 17.2444L78.8055 18.072ZM78.75 17.8154C78.75 17.6219 78.8174 17.4238 78.9497 17.265C79.0673 17.1239 79.1945 17.0631 79.2504 17.0408C79.3449 17.003 79.371 17.0205 79.2373 17.0205V19.0205C79.4454 19.0205 79.7278 19.0039 79.9932 18.8977C80.1346 18.8412 80.3259 18.7377 80.4862 18.5453C80.6612 18.3353 80.75 18.0773 80.75 17.8154H78.75ZM79.2373 17.0205H79.1348V19.0205H79.2373V17.0205ZM79.1348 17.0205C79.0516 17.0205 79.0801 17.0087 79.1623 17.0407C79.2096 17.0591 79.2894 17.0978 79.3732 17.1744C79.4618 17.2552 79.5381 17.3634 79.5843 17.4928L77.7008 18.1654C77.8485 18.579 78.1713 18.8012 78.4374 18.9047C78.6836 19.0004 78.9354 19.0205 79.1348 19.0205V17.0205ZM79.5846 17.4936L78.8737 15.4975L76.9896 16.1685L77.7005 18.1646L79.5846 17.4936ZM77.9316 14.833H74.3633V16.833H77.9316V14.833ZM73.4192 15.5032L72.722 17.4993L74.6101 18.1589L75.3073 16.1628L73.4192 15.5032ZM72.714 17.5231C72.7575 17.3878 72.8341 17.2726 72.9262 17.1856C73.0133 17.1034 73.0973 17.062 73.147 17.0424C73.2333 17.0084 73.265 17.0205 73.1807 17.0205V19.0205C73.3789 19.0205 73.6328 19.0007 73.8808 18.9029C74.151 18.7964 74.48 18.5645 74.618 18.1351L72.714 17.5231ZM73.1807 17.0205H73.1191V19.0205H73.1807V17.0205ZM78.5469 14.5785L77.2754 10.9622L75.3886 11.6256L76.6601 15.2419L78.5469 14.5785ZM77.2718 10.9522C77.2586 10.9159 77.2424 10.859 77.2276 10.7764L75.2587 11.1279C75.2895 11.3005 75.3325 11.4715 75.3922 11.6357L77.2718 10.9522ZM77.2276 10.7764C77.2061 10.656 77.1869 10.5409 77.17 10.431L75.1933 10.7351C75.2128 10.8621 75.2347 10.9931 75.2587 11.1279L77.2276 10.7764ZM76.1816 9.58301H76.1543V11.583H76.1816V9.58301ZM75.17 10.4067C75.1202 10.6843 75.0734 10.8433 75.043 10.9182L76.8965 11.6697C77.0028 11.4074 77.079 11.0924 77.1386 10.7593L75.17 10.4067ZM75.0263 10.9622L73.7549 14.5785L75.6416 15.2419L76.9131 11.6256L75.0263 10.9622ZM74.6982 15.9102H77.6035V13.9102H74.6982V15.9102ZM82.3477 17.959L81.8406 18.8209L81.86 18.8323L81.8798 18.8428L82.3477 17.959ZM82.2314 10.4189H83.2314V9.41895H82.2314V10.4189ZM79.709 9.58496L80.541 10.1397L80.5511 10.1245L80.5606 10.1091L79.709 9.58496ZM85.7793 9.58496L84.9276 10.1091L84.9372 10.1245L84.9472 10.1397L85.7793 9.58496ZM83.3047 10.4189V9.41895H82.3047V10.4189H83.3047ZM82.7168 17.0205C82.6698 17.0205 82.6545 17.0174 82.6624 17.0187C82.6674 17.0196 82.6834 17.0225 82.7076 17.0299C82.7316 17.0372 82.7695 17.0508 82.8155 17.0752L81.8798 18.8428C82.1814 19.0025 82.5095 19.0205 82.7168 19.0205V17.0205ZM82.8547 17.0971C82.9451 17.1502 83.0515 17.2411 83.1305 17.3805C83.2091 17.5192 83.2314 17.6546 83.2314 17.7539H81.2314C81.2314 18.1933 81.4525 18.5926 81.8406 18.8209L82.8547 17.0971ZM83.2314 17.7539V10.4189H81.2314V17.7539H83.2314ZM82.2314 9.41895H79.8936V11.4189H82.2314V9.41895ZM79.8936 9.41895C79.9614 9.41895 80.0805 9.43033 80.2163 9.49573C80.3614 9.5656 80.4805 9.6758 80.5606 9.80598L78.8573 10.8542C79.1218 11.284 79.5576 11.4189 79.8936 11.4189V9.41895ZM80.5606 9.80598C80.6214 9.90476 80.6418 9.98731 80.6485 10.0212C80.6557 10.057 80.6543 10.0721 80.6543 10.0566H78.6543C78.6543 10.2411 78.6749 10.5577 78.8573 10.8542L80.5606 9.80598ZM80.6543 10.0566V9.8584H78.6543V10.0566H80.6543ZM80.6543 9.8584C80.6543 9.83797 80.6561 9.85262 80.6485 9.89045C80.6419 9.92387 80.6186 10.0233 80.541 10.1397L78.8769 9.03026C78.6683 9.34317 78.6543 9.6892 78.6543 9.8584H80.6543ZM80.5606 10.1091C80.4805 10.2392 80.3614 10.3494 80.2163 10.4193C80.0805 10.4847 79.9614 10.4961 79.8936 10.4961V8.49609C79.5576 8.49609 79.1218 8.63108 78.8573 9.06086L80.5606 10.1091ZM79.8936 10.4961H85.5947V8.49609H79.8936V10.4961ZM85.5947 10.4961C85.5269 10.4961 85.4078 10.4847 85.272 10.4193C85.1269 10.3494 85.0077 10.2392 84.9276 10.1091L86.631 9.06086C86.3665 8.63108 85.9306 8.49609 85.5947 8.49609V10.4961ZM84.9472 10.1397C84.8696 10.0233 84.8464 9.92387 84.8397 9.89045C84.8322 9.85262 84.834 9.83797 84.834 9.8584H86.834C86.834 9.6892 86.82 9.34317 86.6113 9.03026L84.9472 10.1397ZM84.834 9.8584V10.0566H86.834V9.8584H84.834ZM84.834 10.0566C84.834 10.0721 84.8326 10.057 84.8397 10.0212C84.8465 9.98731 84.8669 9.90476 84.9276 9.80598L86.631 10.8542C86.8134 10.5577 86.834 10.2411 86.834 10.0566H84.834ZM84.9276 9.80598C85.0077 9.6758 85.1269 9.5656 85.272 9.49573C85.4078 9.43033 85.5269 9.41895 85.5947 9.41895V11.4189C85.9306 11.4189 86.3665 11.284 86.631 10.8542L84.9276 9.80598ZM85.5947 9.41895H83.3047V11.4189H85.5947V9.41895ZM82.3047 10.4189V17.7539H84.3047V10.4189H82.3047ZM82.3047 17.7539C82.3047 17.639 82.3332 17.4913 82.4223 17.3464C82.5098 17.2042 82.622 17.1197 82.7054 17.0746C82.8421 17.0005 82.919 17.0205 82.8125 17.0205V19.0205C83.0341 19.0205 83.3571 18.9961 83.6579 18.8331C83.8233 18.7435 83.997 18.6035 84.1256 18.3946C84.2557 18.1832 84.3047 17.9577 84.3047 17.7539H82.3047ZM82.8125 17.0205H82.7168V19.0205H82.8125V17.0205ZM87.3447 17.9111L86.6376 18.6182L87.3447 17.9111ZM87.3447 9.58496L88.023 10.3198L88.0377 10.3062L88.0518 10.2921L87.3447 9.58496ZM92.0479 9.57812L91.2158 10.1328L91.2312 10.1559L91.2479 10.1781L92.0479 9.57812ZM92.0479 10.3301L91.2257 9.76087L91.2103 9.78303L91.1962 9.80598L92.0479 10.3301ZM88.3291 10.4189V9.41895H87.3291V10.4189H88.3291ZM88.3291 13.1875H87.3291V14.1875H88.3291V13.1875ZM91.6855 13.2764L90.8339 13.8005L90.848 13.8234L90.8634 13.8456L91.6855 13.2764ZM91.6855 14.0215L90.8634 13.4523L90.8584 13.4595L90.8535 13.4668L91.6855 14.0215ZM88.3291 14.1035V13.1035H87.3291V14.1035H88.3291ZM88.3291 17.0771H87.3291V18.0771H88.3291V17.0771ZM92.0615 17.166L91.2099 17.6901L91.234 17.7293L91.2615 17.766L92.0615 17.166ZM92.0615 17.9111L91.2393 17.3419L91.224 17.3641L91.2099 17.387L92.0615 17.9111ZM87.625 17C87.6264 17 87.8453 16.9975 88.0518 17.204L86.6376 18.6182C86.9627 18.9433 87.3684 19 87.625 19V17ZM88.0518 17.204C88.2525 17.4047 88.2559 17.6194 88.2559 17.6377H86.2559C86.2559 17.9021 86.3184 18.299 86.6376 18.6182L88.0518 17.204ZM88.2559 17.6377V9.8584H86.2559V17.6377H88.2559ZM88.2559 9.8584C88.2559 9.867 88.2555 9.92232 88.2291 10.0034C88.201 10.09 88.1411 10.2108 88.023 10.3198L86.6664 8.85016C86.3088 9.18028 86.2559 9.61087 86.2559 9.8584H88.2559ZM88.0518 10.2921C87.8453 10.4986 87.6264 10.4961 87.625 10.4961V8.49609C87.3684 8.49609 86.9627 8.5528 86.6376 8.87785L88.0518 10.2921ZM87.625 10.4961H91.8633V8.49609H87.625V10.4961ZM91.8633 10.4961C91.8051 10.4961 91.6963 10.4873 91.5682 10.4304C91.4303 10.3691 91.3053 10.2671 91.2158 10.1328L92.8799 9.02342C92.6008 8.60484 92.1661 8.49609 91.8633 8.49609V10.4961ZM91.2479 10.1781C91.1555 10.0549 91.1262 9.9445 91.1172 9.90362C91.1074 9.85896 91.1094 9.83924 91.1094 9.8584H93.1094C93.1094 9.68162 93.0935 9.30568 92.8479 8.97813L91.2479 10.1781ZM91.1094 9.8584V10.0566H93.1094V9.8584H91.1094ZM91.1094 10.0566C91.1094 10.0661 91.1083 10.0428 91.1184 9.99777C91.1284 9.95343 91.1549 9.86311 91.2257 9.76087L92.87 10.8993C93.0831 10.5915 93.1094 10.2546 93.1094 10.0566H91.1094ZM91.1962 9.80598C91.2763 9.6758 91.3954 9.5656 91.5405 9.49573C91.6764 9.43033 91.7954 9.41895 91.8633 9.41895V11.4189C92.1992 11.4189 92.635 11.284 92.8995 10.8542L91.1962 9.80598ZM91.8633 9.41895H88.3291V11.4189H91.8633V9.41895ZM87.3291 10.4189V13.1875H89.3291V10.4189H87.3291ZM88.3291 14.1875H91.501V12.1875H88.3291V14.1875ZM91.501 14.1875C91.4331 14.1875 91.3141 14.1761 91.1782 14.1107C91.0331 14.0408 90.914 13.9306 90.8339 13.8005L92.5372 12.7523C92.2727 12.3225 91.8369 12.1875 91.501 12.1875V14.1875ZM90.8634 13.8456C90.7898 13.7393 90.764 13.6464 90.7549 13.6053C90.7456 13.5627 90.7471 13.5426 90.7471 13.5566H92.7471C92.7471 13.3634 92.7238 13.0193 92.5077 12.7072L90.8634 13.8456ZM90.7471 13.5566V13.7412H92.7471V13.5566H90.7471ZM90.7471 13.7412C90.7471 13.7552 90.7456 13.7352 90.7549 13.6926C90.764 13.6515 90.7898 13.5585 90.8634 13.4523L92.5077 14.5907C92.7238 14.2786 92.7471 13.9345 92.7471 13.7412H90.7471ZM90.8535 13.4668C90.943 13.3325 91.068 13.2305 91.2059 13.1692C91.334 13.1123 91.4428 13.1035 91.501 13.1035V15.1035C91.8038 15.1035 92.2385 14.9948 92.5176 14.5762L90.8535 13.4668ZM91.501 13.1035H88.3291V15.1035H91.501V13.1035ZM87.3291 14.1035V17.0771H89.3291V14.1035H87.3291ZM88.3291 18.0771H91.877V16.0771H88.3291V18.0771ZM91.877 18.0771C91.8091 18.0771 91.6901 18.0658 91.5542 18.0004C91.4091 17.9305 91.29 17.8203 91.2099 17.6901L92.9132 16.6419C92.6487 16.2121 92.2129 16.0771 91.877 16.0771V18.0771ZM91.2615 17.766C91.1722 17.647 91.1421 17.5396 91.1321 17.4949C91.1214 17.4477 91.123 17.4247 91.123 17.4395H93.123C93.123 17.2576 93.1042 16.8895 92.8615 16.566L91.2615 17.766ZM91.123 17.4395V17.6377H93.123V17.4395H91.123ZM91.123 17.6377C91.123 17.6472 91.1219 17.6238 91.1321 17.5788C91.142 17.5345 91.1686 17.4442 91.2393 17.3419L92.8837 18.4803C93.0968 18.1726 93.123 17.8357 93.123 17.6377H91.123ZM91.2099 17.387C91.29 17.2569 91.4091 17.1467 91.5542 17.0768C91.6901 17.0114 91.8091 17 91.877 17V19C92.2129 19 92.6487 18.865 92.9132 18.4352L91.2099 17.387ZM91.877 17H87.625V19H91.877V17ZM97.2979 10.5078L96.5453 9.84931L96.545 9.84964L97.2979 10.5078ZM102.883 10.5078L102.13 11.1663L102.132 11.1687L102.883 10.5078ZM102.883 16.9609L103.639 17.6148L102.883 16.9609ZM102.056 16.2705L102.844 16.8862L102.846 16.8832L102.056 16.2705ZM102.056 11.1982L101.269 11.8161L101.275 11.8229L102.056 11.1982ZM98.125 11.1982L98.9089 11.8191L98.9113 11.8161L98.125 11.1982ZM100.087 17.0684C99.0829 17.0684 98.4639 16.7729 98.0613 16.3071L96.5481 17.6148C97.4216 18.6255 98.6573 19.0684 100.087 19.0684V17.0684ZM98.0613 16.3071C97.6386 15.8179 97.3477 15.0099 97.3477 13.7207H95.3477C95.3477 15.2753 95.6948 16.6274 96.5481 17.6148L98.0613 16.3071ZM97.3477 13.7207C97.3477 12.4338 97.6373 11.6389 98.0507 11.166L96.545 9.84964C95.6915 10.8259 95.3477 12.173 95.3477 13.7207H97.3477ZM98.0504 11.1663C98.4511 10.7084 99.073 10.4141 100.087 10.4141V8.41406C98.6581 8.41406 97.4206 8.84889 96.5453 9.84931L98.0504 11.1663ZM100.087 10.4141C101.107 10.4141 101.73 10.7092 102.13 11.1663L103.635 9.84931C102.759 8.84808 101.519 8.41406 100.087 8.41406V10.4141ZM102.132 11.1687C102.549 11.6415 102.84 12.4353 102.84 13.7207H104.84C104.84 12.1715 104.493 10.8233 103.633 9.84697L102.132 11.1687ZM102.84 13.7207C102.84 15.0099 102.549 15.8179 102.126 16.3071L103.639 17.6148C104.493 16.6274 104.84 15.2753 104.84 13.7207H102.84ZM102.126 16.3071C101.725 16.7712 101.103 17.0684 100.087 17.0684V19.0684C101.523 19.0684 102.765 18.6272 103.639 17.6148L102.126 16.3071ZM100.087 18.1455C101.197 18.1455 102.167 17.7521 102.844 16.8862L101.268 15.6549C101.033 15.9556 100.691 16.1455 100.087 16.1455V18.1455ZM102.846 16.8832C103.49 16.052 103.739 14.9496 103.739 13.7207H101.739C101.739 14.7158 101.532 15.3132 101.265 15.6578L102.846 16.8832ZM103.739 13.7207C103.739 12.495 103.492 11.3924 102.837 10.5735L101.275 11.8229C101.531 12.1434 101.739 12.7225 101.739 13.7207H103.739ZM102.842 10.5804C102.166 9.72021 101.193 9.33691 100.087 9.33691V11.3369C100.703 11.3369 101.043 11.5278 101.269 11.8161L102.842 10.5804ZM100.087 9.33691C98.983 9.33691 98.0135 9.72158 97.3387 10.5804L98.9113 11.8161C99.1389 11.5265 99.4773 11.3369 100.087 11.3369V9.33691ZM97.3411 10.5774C96.6929 11.3958 96.4482 12.4968 96.4482 13.7207H98.4482C98.4482 12.7207 98.6548 12.14 98.9089 11.8191L97.3411 10.5774ZM96.4482 13.7207C96.4482 14.9505 96.6934 16.0541 97.334 16.8823L98.916 15.6587C98.6543 15.3203 98.4482 14.724 98.4482 13.7207H96.4482ZM97.334 16.8823C98.0066 17.752 98.9772 18.1455 100.087 18.1455V16.1455C99.4831 16.1455 99.1457 15.9557 98.916 15.6587L97.334 16.8823ZM105.802 9.58496L106.48 10.3198L106.495 10.3062L106.509 10.2921L105.802 9.58496ZM110.095 9.58496L109.243 10.1091L109.253 10.1245L109.263 10.1397L110.095 9.58496ZM106.786 10.4189V9.41895H105.786V10.4189H106.786ZM106.786 13.1875H105.786V14.1875H106.786V13.1875ZM109.876 14.0215L110.676 14.6215L110.687 14.6063L110.698 14.5907L109.876 14.0215ZM106.786 14.1035V13.1035H105.786V14.1035H106.786ZM106.205 17.0205C106.099 17.0205 106.175 17.0005 106.312 17.0746C106.396 17.1197 106.508 17.2042 106.595 17.3464C106.684 17.4913 106.713 17.639 106.713 17.7539H104.713C104.713 17.9577 104.762 18.1832 104.892 18.3946C105.021 18.6035 105.194 18.7435 105.36 18.8331C105.66 18.9961 105.983 19.0205 106.205 19.0205V17.0205ZM106.713 17.7539V9.8584H104.713V17.7539H106.713ZM106.713 9.8584C106.713 9.867 106.712 9.92232 106.686 10.0034C106.658 10.09 106.598 10.2108 106.48 10.3198L105.123 8.85016C104.766 9.18028 104.713 9.61087 104.713 9.8584H106.713ZM106.509 10.2921C106.302 10.4986 106.083 10.4961 106.082 10.4961V8.49609C105.825 8.49609 105.42 8.5528 105.095 8.87785L106.509 10.2921ZM106.082 10.4961H109.91V8.49609H106.082V10.4961ZM109.91 10.4961C109.842 10.4961 109.723 10.4847 109.587 10.4193C109.442 10.3494 109.323 10.2392 109.243 10.1091L110.946 9.06086C110.682 8.63108 110.246 8.49609 109.91 8.49609V10.4961ZM109.263 10.1397C109.185 10.0233 109.162 9.92387 109.155 9.89045C109.148 9.85262 109.149 9.83797 109.149 9.8584H111.149C111.149 9.6892 111.135 9.34317 110.927 9.03026L109.263 10.1397ZM109.149 9.8584V10.0566H111.149V9.8584H109.149ZM109.149 10.0566C109.149 10.0721 109.148 10.057 109.155 10.0212C109.162 9.98731 109.182 9.90476 109.243 9.80598L110.946 10.8542C111.129 10.5577 111.149 10.2411 111.149 10.0566H109.149ZM109.243 9.80598C109.323 9.6758 109.442 9.5656 109.587 9.49573C109.723 9.43033 109.842 9.41895 109.91 9.41895V11.4189C110.246 11.4189 110.682 11.284 110.946 10.8542L109.243 9.80598ZM109.91 9.41895H106.786V11.4189H109.91V9.41895ZM105.786 10.4189V13.1875H107.786V10.4189H105.786ZM106.786 14.1875H109.691V12.1875H106.786V14.1875ZM109.691 14.1875C109.612 14.1875 109.494 14.1729 109.365 14.1107C109.231 14.0462 109.126 13.9501 109.054 13.8456L110.698 12.7072C110.442 12.3375 110.049 12.1875 109.691 12.1875V14.1875ZM109.054 13.8456C108.98 13.7393 108.954 13.6464 108.945 13.6053C108.936 13.5627 108.938 13.5426 108.938 13.5566H110.938C110.938 13.3634 110.914 13.0193 110.698 12.7072L109.054 13.8456ZM108.938 13.5566V13.7412H110.938V13.5566H108.938ZM108.938 13.7412C108.938 13.7552 108.936 13.7352 108.945 13.6926C108.954 13.6515 108.98 13.5585 109.054 13.4523L110.698 14.5907C110.914 14.2786 110.938 13.9345 110.938 13.7412H108.938ZM109.076 13.4215C109.156 13.3145 109.265 13.2259 109.393 13.1692C109.515 13.115 109.622 13.1035 109.691 13.1035V15.1035C110.017 15.1035 110.407 14.9797 110.676 14.6215L109.076 13.4215ZM109.691 13.1035H106.786V15.1035H109.691V13.1035ZM105.786 14.1035V17.7539H107.786V14.1035H105.786ZM105.786 17.7539C105.786 17.6415 105.814 17.4958 105.901 17.3518C105.987 17.2097 106.098 17.124 106.183 17.0774C106.323 17.0007 106.404 17.0205 106.301 17.0205V19.0205C106.521 19.0205 106.845 18.9959 107.146 18.8303C107.312 18.7393 107.484 18.598 107.611 18.3893C107.739 18.1787 107.786 17.9552 107.786 17.7539H105.786ZM106.301 17.0205H106.205V19.0205H106.301V17.0205ZM114.839 17.9111L114.132 18.6182L114.839 17.9111ZM114.839 9.58496L115.517 10.3198L115.532 10.3062L115.546 10.2921L114.839 9.58496ZM119.829 12.4355L120.733 12.8636L120.736 12.8576L119.829 12.4355ZM119.337 13.1123L120.01 13.8516L120.019 13.8434L119.337 13.1123ZM118.681 13.4883L118.416 12.524L117.681 12.7258V13.4883H118.681ZM119.152 13.7207L118.71 14.6178L118.721 14.6228L119.152 13.7207ZM120 14.3975L119.232 15.0376L119.237 15.044L119.242 15.0502L120 14.3975ZM118.1 12.9756L118.534 13.8764L118.54 13.8732L118.547 13.87L118.1 12.9756ZM118.694 12.4629L117.862 11.9082L117.86 11.9123L118.694 12.4629ZM118.503 10.7402L117.886 11.5275L117.894 11.5338L118.503 10.7402ZM115.823 10.4189V9.41895H114.823V10.4189H115.823ZM115.823 13.1602H114.823V14.1602H115.823V13.1602ZM118.838 16.6602L119.528 17.384L119.534 17.3784L118.838 16.6602ZM118.797 14.459L118.179 15.2453L118.186 15.2508L118.797 14.459ZM115.823 14.083V13.083H114.823V14.083H115.823ZM115.823 17.0771H114.823V18.0771H115.823V17.0771ZM115.119 17C115.121 17 115.339 16.9975 115.546 17.204L114.132 18.6182C114.457 18.9433 114.863 19 115.119 19V17ZM115.546 17.204C115.747 17.4047 115.75 17.6194 115.75 17.6377H113.75C113.75 17.9021 113.813 18.299 114.132 18.6182L115.546 17.204ZM115.75 17.6377V9.8584H113.75V17.6377H115.75ZM115.75 9.8584C115.75 9.867 115.75 9.92232 115.723 10.0034C115.695 10.09 115.635 10.2108 115.517 10.3198L114.161 8.85016C113.803 9.18028 113.75 9.61087 113.75 9.8584H115.75ZM115.546 10.2921C115.339 10.4986 115.121 10.4961 115.119 10.4961V8.49609C114.863 8.49609 114.457 8.5528 114.132 8.87785L115.546 10.2921ZM115.119 10.4961H117.293V8.49609H115.119V10.4961ZM117.293 10.4961C117.791 10.4961 118.145 10.5717 118.389 10.6786L119.191 8.84677C118.624 8.59824 117.979 8.49609 117.293 8.49609V10.4961ZM118.389 10.6786C118.641 10.7893 118.779 10.9196 118.861 11.05L120.551 9.97931C120.223 9.46251 119.75 9.09161 119.191 8.84677L118.389 10.6786ZM118.861 11.05C118.953 11.195 119.014 11.3806 119.014 11.6426H121.014C121.014 11.0477 120.869 10.4815 120.551 9.97931L118.861 11.05ZM119.014 11.6426C119.014 11.7466 118.99 11.8676 118.923 12.0135L120.736 12.8576C120.914 12.4748 121.014 12.0672 121.014 11.6426H119.014ZM118.925 12.0075C118.855 12.156 118.765 12.2781 118.655 12.3812L120.019 13.8434C120.319 13.5637 120.557 13.2346 120.733 12.8636L118.925 12.0075ZM118.663 12.3731C118.557 12.4698 118.475 12.5078 118.416 12.524L118.945 14.4526C119.351 14.3411 119.706 14.1285 120.01 13.8515L118.663 12.3731ZM117.681 13.4883V13.5361H119.681V13.4883H117.681ZM119.681 13.5361C119.681 13.7573 119.604 14.0178 119.4 14.2282C119.217 14.4161 119.012 14.4815 118.9 14.5057C118.7 14.5493 118.542 14.5157 118.525 14.5124C118.447 14.4978 118.404 14.4777 118.434 14.4896C118.471 14.5041 118.558 14.5425 118.71 14.6177L119.594 12.8237C119.433 12.744 119.283 12.6741 119.163 12.6271C119.115 12.6082 119.012 12.5691 118.895 12.547C118.858 12.54 118.686 12.5057 118.476 12.5514C118.359 12.5766 118.15 12.6439 117.965 12.8343C117.758 13.0472 117.681 13.3109 117.681 13.5361H119.681ZM118.721 14.6228C118.89 14.7039 119.062 14.8337 119.232 15.0376L120.768 13.7573C120.437 13.3596 120.043 13.0383 119.584 12.8186L118.721 14.6228ZM119.242 15.0502C119.31 15.1284 119.383 15.2653 119.383 15.5527H121.383C121.383 14.8922 121.201 14.259 120.758 13.7448L119.242 15.0502ZM119.383 15.5527C119.383 16.1349 119.207 16.4202 118.979 16.5964C118.701 16.8107 118.168 17 117.211 17V19C118.369 19 119.421 18.7814 120.201 18.1799C121.03 17.5405 121.383 16.602 121.383 15.5527H119.383ZM117.211 17H115.119V19H117.211V17ZM117.238 14.1602C117.689 14.1602 118.127 14.0725 118.534 13.8764L117.665 12.0748C117.562 12.1247 117.426 12.1602 117.238 12.1602V14.1602ZM118.547 13.87C118.941 13.6728 119.281 13.3903 119.529 13.0135L117.86 11.9123C117.826 11.9639 117.768 12.0231 117.652 12.0812L118.547 13.87ZM119.526 13.0176C119.782 12.6336 119.913 12.1989 119.913 11.7383H117.913C117.913 11.8063 117.898 11.8547 117.862 11.9082L119.526 13.0176ZM119.913 11.7383C119.913 11.0802 119.707 10.4031 119.111 9.94663L117.894 11.5338C117.893 11.5323 117.888 11.5286 117.885 11.5237C117.881 11.5191 117.882 11.5188 117.886 11.5271C117.893 11.5453 117.913 11.6073 117.913 11.7383H119.913ZM119.12 9.95301C118.582 9.53159 117.868 9.41895 117.19 9.41895V11.4189C117.436 11.4189 117.612 11.4412 117.732 11.4706C117.852 11.5 117.889 11.5298 117.886 11.5275L119.12 9.95301ZM117.19 9.41895H115.823V11.4189H117.19V9.41895ZM114.823 10.4189V13.1602H116.823V10.4189H114.823ZM115.823 14.1602H117.238V12.1602H115.823V14.1602ZM117.601 18.0771C118.305 18.0771 118.996 17.8905 119.528 17.384L118.148 15.9363C118.096 15.9858 117.962 16.0771 117.601 16.0771V18.0771ZM119.534 17.3784C120.058 16.8703 120.275 16.2048 120.275 15.5049H118.275C118.275 15.7803 118.201 15.8849 118.142 15.9419L119.534 17.3784ZM120.275 15.5049C120.275 14.7862 120.004 14.1271 119.408 13.6672L118.186 15.2508C118.228 15.283 118.275 15.3213 118.275 15.5049H120.275ZM119.415 13.6727C118.848 13.2274 118.12 13.083 117.389 13.083V15.083C117.897 15.083 118.108 15.1893 118.179 15.2453L119.415 13.6727ZM117.389 13.083H115.823V15.083H117.389V13.083ZM114.823 14.083V17.0771H116.823V14.083H114.823ZM115.823 18.0771H117.601V16.0771H115.823V18.0771ZM122.447 17.0205C122.341 17.0205 122.418 17.0005 122.554 17.0746C122.638 17.1197 122.75 17.2042 122.837 17.3464C122.927 17.4913 122.955 17.639 122.955 17.7539H120.955C120.955 17.9577 121.004 18.1832 121.134 18.3946C121.263 18.6035 121.436 18.7435 121.602 18.8331C121.903 18.9961 122.226 19.0205 122.447 19.0205V17.0205ZM122.955 17.7539V9.73535H120.955V17.7539H122.955ZM122.955 9.73535C122.955 9.84454 122.929 9.98775 122.843 10.1302C122.759 10.2712 122.649 10.3572 122.564 10.4044C122.424 10.4821 122.343 10.4619 122.447 10.4619V8.46191C122.223 8.46191 121.896 8.48733 121.592 8.65612C121.425 8.7489 121.254 8.89189 121.128 9.10123C121.002 9.31206 120.955 9.53501 120.955 9.73535H122.955ZM122.447 10.4619H122.543V8.46191H122.447V10.4619ZM122.543 10.4619C122.644 10.4619 122.559 10.4818 122.416 10.4015C122.33 10.3529 122.221 10.2656 122.137 10.1249C122.054 9.98333 122.028 9.84206 122.028 9.73535H124.028C124.028 9.27487 123.786 8.8777 123.398 8.65903C123.094 8.4876 122.766 8.46191 122.543 8.46191V10.4619ZM122.028 9.73535V17.7539H124.028V9.73535H122.028ZM122.028 17.7539C122.028 17.6415 122.056 17.4958 122.143 17.3518C122.229 17.2097 122.341 17.124 122.426 17.0774C122.565 17.0007 122.646 17.0205 122.543 17.0205V19.0205C122.764 19.0205 123.087 18.9959 123.388 18.8303C123.554 18.7393 123.726 18.598 123.853 18.3893C123.981 18.1787 124.028 17.9552 124.028 17.7539H122.028ZM122.543 17.0205H122.447V19.0205H122.543V17.0205ZM125.476 9.58496L126.154 10.3198L126.169 10.3062L126.183 10.2921L125.476 9.58496ZM129.987 10.0088L129.413 10.8277L129.417 10.8302L129.987 10.0088ZM130.356 12.9209L129.541 12.3417L129.54 12.3438L130.356 12.9209ZM129.331 13.6934L128.966 12.7623L128.331 13.0111V13.6934H129.331ZM129.331 13.7412H128.331V14.4533L129.004 14.6862L129.331 13.7412ZM129.912 14.2197L129.068 14.7556L129.074 14.7651L129.08 14.7744L129.912 14.2197ZM130.425 15.2588L131.355 14.8906L131.351 14.8827L130.425 15.2588ZM131.375 17.6582L132.339 17.3906L132.324 17.3394L132.305 17.29L131.375 17.6582ZM130.452 17.9727L130.064 18.8943L130.093 18.9063L130.122 18.9165L130.452 17.9727ZM130.288 17.8291L131.221 17.4701L131.221 17.4683L130.288 17.8291ZM129.365 15.4434L128.431 15.8005L128.433 15.8041L129.365 15.4434ZM126.46 14.2539V13.2539H125.46V14.2539H126.46ZM128.846 13.126L128.353 12.2557L128.346 12.2598L128.846 13.126ZM129.413 12.5791L128.559 12.0597L128.556 12.0646L129.413 12.5791ZM129.188 10.7744L128.557 11.5506L128.564 11.5565L129.188 10.7744ZM126.46 10.4189V9.41895H125.46V10.4189H126.46ZM126.46 13.3311H125.46V14.3311H126.46V13.3311ZM125.879 17.0205C125.772 17.0205 125.849 17.0005 125.986 17.0746C126.069 17.1197 126.182 17.2042 126.269 17.3464C126.358 17.4913 126.387 17.639 126.387 17.7539H124.387C124.387 17.9577 124.436 18.1832 124.566 18.3946C124.694 18.6035 124.868 18.7435 125.033 18.8331C125.334 18.9961 125.657 19.0205 125.879 19.0205V17.0205ZM126.387 17.7539V9.8584H124.387V17.7539H126.387ZM126.387 9.8584C126.387 9.867 126.386 9.92232 126.36 10.0034C126.332 10.09 126.272 10.2108 126.154 10.3198L124.797 8.85016C124.44 9.18028 124.387 9.61087 124.387 9.8584H126.387ZM126.183 10.2921C125.976 10.4986 125.757 10.4961 125.756 10.4961V8.49609C125.499 8.49609 125.094 8.5528 124.768 8.87785L126.183 10.2921ZM125.756 10.4961H127.8V8.49609H125.756V10.4961ZM127.8 10.4961C128.683 10.4961 129.17 10.657 129.413 10.8277L130.561 9.18992C129.829 8.67697 128.858 8.49609 127.8 8.49609V10.4961ZM129.417 10.8302C129.573 10.9385 129.726 11.1316 129.726 11.6426H131.726C131.726 10.6588 131.386 9.7627 130.558 9.18742L129.417 10.8302ZM129.726 11.6426C129.726 11.9814 129.646 12.1948 129.541 12.3417L131.172 13.5001C131.559 12.9543 131.726 12.3155 131.726 11.6426H129.726ZM129.54 12.3438C129.426 12.5052 129.252 12.6505 128.966 12.7623L129.696 14.6245C130.295 14.3899 130.804 14.0202 131.173 13.498L129.54 12.3438ZM128.331 13.6934V13.7412H130.331V13.6934H128.331ZM129.004 14.6862C129.01 14.6883 129.013 14.6901 129.018 14.6943C129.025 14.6994 129.043 14.7158 129.068 14.7556L130.756 13.6839C130.5 13.2801 130.134 12.9611 129.658 12.7962L129.004 14.6862ZM129.08 14.7744C129.179 14.9234 129.32 15.1969 129.498 15.6349L131.351 14.8827C131.155 14.4001 130.955 13.9809 130.744 13.665L129.08 14.7744ZM129.495 15.627L130.445 18.0264L132.305 17.29L131.355 14.8906L129.495 15.627ZM130.411 17.9258C130.419 17.953 130.421 17.9624 130.42 17.9586C130.42 17.9563 130.417 17.9452 130.415 17.9276C130.413 17.912 130.409 17.8768 130.409 17.8291H132.409C132.409 17.6424 132.358 17.4613 132.339 17.3906L130.411 17.9258ZM130.409 17.8291C130.409 17.6138 130.49 17.4051 130.631 17.2468C130.754 17.1094 130.882 17.0542 130.931 17.0358C131.017 17.0039 131.034 17.0205 130.896 17.0205V19.0205C131.101 19.0205 131.374 19.0052 131.631 18.9095C131.765 18.8592 131.958 18.7641 132.123 18.5789C132.307 18.3728 132.409 18.1082 132.409 17.8291H130.409ZM130.896 17.0205H130.773V19.0205H130.896V17.0205ZM130.773 17.0205C130.755 17.0205 130.747 17.0193 130.748 17.0195C130.75 17.0197 130.762 17.0216 130.782 17.0288L130.122 18.9165C130.344 18.9942 130.567 19.0205 130.773 19.0205V17.0205ZM130.84 17.051C130.884 17.0695 131.108 17.1751 131.221 17.4701L129.355 18.1881C129.514 18.6016 129.847 18.8029 130.064 18.8943L130.84 17.051ZM131.221 17.4683L130.298 15.0826L128.433 15.8041L129.355 18.1899L131.221 17.4683ZM130.299 15.0862C130.153 14.7027 129.957 14.3374 129.684 14.0413L128.213 15.3962C128.259 15.4464 128.341 15.5642 128.431 15.8005L130.299 15.0862ZM129.684 14.0413C129.409 13.7427 129.07 13.5242 128.679 13.402L128.083 15.3109C128.129 15.3255 128.169 15.3485 128.213 15.3962L129.684 14.0413ZM128.679 13.402C128.331 13.2932 127.946 13.2539 127.554 13.2539V15.2539C127.827 15.2539 127.993 15.283 128.083 15.3109L128.679 13.402ZM127.554 13.2539H126.46V15.2539H127.554V13.2539ZM125.46 14.2539V17.7539H127.46V14.2539H125.46ZM125.46 17.7539C125.46 17.6415 125.487 17.4958 125.575 17.3518C125.661 17.2097 125.772 17.124 125.857 17.0774C125.997 17.0007 126.078 17.0205 125.975 17.0205V19.0205C126.195 19.0205 126.519 18.9959 126.82 18.8303C126.986 18.7393 127.158 18.598 127.285 18.3893C127.412 18.1787 127.46 17.9552 127.46 17.7539H125.46ZM125.975 17.0205H125.879V19.0205H125.975V17.0205ZM128.06 14.3311C128.513 14.3311 128.949 14.2209 129.345 13.9922L128.346 12.2598C128.269 12.3044 128.18 12.3311 128.06 12.3311V14.3311ZM129.338 13.9962C129.723 13.7784 130.041 13.4763 130.271 13.0936L128.556 12.0646C128.512 12.1377 128.451 12.2002 128.353 12.2557L129.338 13.9962ZM130.268 13.0985C130.499 12.7173 130.625 12.2926 130.625 11.8408H128.625C128.625 11.9086 128.609 11.9761 128.559 12.0597L130.268 13.0985ZM130.625 11.8408C130.625 11.1516 130.405 10.4661 129.811 9.99235L128.564 11.5565C128.573 11.5631 128.58 11.5699 128.59 11.5949C128.603 11.6266 128.625 11.7009 128.625 11.8408H130.625ZM129.818 9.9983C129.292 9.57093 128.638 9.41895 127.978 9.41895V11.4189C128.347 11.4189 128.5 11.5039 128.557 11.5505L129.818 9.9983ZM127.978 9.41895H126.46V11.4189H127.978V9.41895ZM125.46 10.4189V13.3311H127.46V10.4189H125.46ZM126.46 14.3311H128.06V12.3311H126.46V14.3311ZM134.574 17.959L134.067 18.8209L134.087 18.8323L134.106 18.8428L134.574 17.959ZM134.458 10.4189H135.458V9.41895H134.458V10.4189ZM131.936 9.58496L132.768 10.1397L132.778 10.1245L132.787 10.1091L131.936 9.58496ZM138.006 9.58496L137.154 10.1091L137.164 10.1245L137.174 10.1397L138.006 9.58496ZM135.531 10.4189V9.41895H134.531V10.4189H135.531ZM134.943 17.0205C134.896 17.0205 134.881 17.0174 134.889 17.0187C134.894 17.0196 134.91 17.0225 134.934 17.0299C134.958 17.0372 134.996 17.0508 135.042 17.0752L134.106 18.8428C134.408 19.0025 134.736 19.0205 134.943 19.0205V17.0205ZM135.081 17.0971C135.172 17.1502 135.278 17.2411 135.357 17.3805C135.436 17.5192 135.458 17.6546 135.458 17.7539H133.458C133.458 18.1933 133.679 18.5926 134.067 18.8209L135.081 17.0971ZM135.458 17.7539V10.4189H133.458V17.7539H135.458ZM134.458 9.41895H132.12V11.4189H134.458V9.41895ZM132.12 9.41895C132.188 9.41895 132.307 9.43033 132.443 9.49573C132.588 9.5656 132.707 9.6758 132.787 9.80598L131.084 10.8542C131.348 11.284 131.784 11.4189 132.12 11.4189V9.41895ZM132.787 9.80598C132.848 9.90476 132.868 9.98731 132.875 10.0212C132.882 10.057 132.881 10.0721 132.881 10.0566H130.881C130.881 10.2411 130.901 10.5577 131.084 10.8542L132.787 9.80598ZM132.881 10.0566V9.8584H130.881V10.0566H132.881ZM132.881 9.8584C132.881 9.83797 132.883 9.85262 132.875 9.89045C132.868 9.92387 132.845 10.0233 132.768 10.1397L131.103 9.03026C130.895 9.34317 130.881 9.6892 130.881 9.8584H132.881ZM132.787 10.1091C132.707 10.2392 132.588 10.3494 132.443 10.4193C132.307 10.4847 132.188 10.4961 132.12 10.4961V8.49609C131.784 8.49609 131.348 8.63108 131.084 9.06086L132.787 10.1091ZM132.12 10.4961H137.821V8.49609H132.12V10.4961ZM137.821 10.4961C137.753 10.4961 137.634 10.4847 137.499 10.4193C137.353 10.3494 137.234 10.2392 137.154 10.1091L138.858 9.06086C138.593 8.63108 138.157 8.49609 137.821 8.49609V10.4961ZM137.174 10.1397C137.096 10.0233 137.073 9.92387 137.066 9.89045C137.059 9.85262 137.061 9.83797 137.061 9.8584H139.061C139.061 9.6892 139.047 9.34317 138.838 9.03026L137.174 10.1397ZM137.061 9.8584V10.0566H139.061V9.8584H137.061ZM137.061 10.0566C137.061 10.0721 137.059 10.057 137.066 10.0212C137.073 9.98731 137.093 9.90476 137.154 9.80598L138.858 10.8542C139.04 10.5577 139.061 10.2411 139.061 10.0566H137.061ZM137.154 9.80598C137.234 9.6758 137.353 9.5656 137.499 9.49573C137.634 9.43033 137.753 9.41895 137.821 9.41895V11.4189C138.157 11.4189 138.593 11.284 138.858 10.8542L137.154 9.80598ZM137.821 9.41895H135.531V11.4189H137.821V9.41895ZM134.531 10.4189V17.7539H136.531V10.4189H134.531ZM134.531 17.7539C134.531 17.639 134.56 17.4913 134.649 17.3464C134.736 17.2042 134.849 17.1197 134.932 17.0746C135.069 17.0005 135.146 17.0205 135.039 17.0205V19.0205C135.261 19.0205 135.584 18.9961 135.884 18.8331C136.05 18.7435 136.224 18.6035 136.352 18.3946C136.482 18.1832 136.531 17.9577 136.531 17.7539H134.531ZM135.039 17.0205H134.943V19.0205H135.039V17.0205ZM140.556 13.1738H139.556V14.1738H140.556V13.1738ZM144.958 13.1738V14.1738H145.958V13.1738H144.958ZM145.908 17.959L146.376 18.8428L146.396 18.8323L146.415 18.8209L145.908 17.959ZM145.074 17.959L144.567 18.8209L144.587 18.8323L144.606 18.8428L145.074 17.959ZM144.958 14.0967H145.958V13.0967H144.958V14.0967ZM140.556 14.0967V13.0967H139.556V14.0967H140.556ZM139.975 17.0205C139.868 17.0205 139.945 17.0005 140.082 17.0746C140.165 17.1197 140.277 17.2042 140.365 17.3464C140.454 17.4913 140.482 17.639 140.482 17.7539H138.482C138.482 17.9577 138.531 18.1832 138.662 18.3946C138.79 18.6035 138.964 18.7435 139.129 18.8331C139.43 18.9961 139.753 19.0205 139.975 19.0205V17.0205ZM140.482 17.7539V9.73535H138.482V17.7539H140.482ZM140.482 9.73535C140.482 9.84454 140.456 9.98775 140.371 10.1302C140.286 10.2712 140.176 10.3572 140.091 10.4044C139.951 10.4821 139.87 10.4619 139.975 10.4619V8.46191C139.751 8.46191 139.424 8.48733 139.12 8.65612C138.953 8.7489 138.781 8.89189 138.656 9.10123C138.529 9.31206 138.482 9.53501 138.482 9.73535H140.482ZM139.975 10.4619H140.07V8.46191H139.975V10.4619ZM140.07 10.4619C140.171 10.4619 140.086 10.4818 139.943 10.4015C139.857 10.3529 139.748 10.2656 139.665 10.1249C139.581 9.98333 139.556 9.84206 139.556 9.73535H141.556C141.556 9.27487 141.313 8.8777 140.925 8.65903C140.621 8.4876 140.293 8.46191 140.07 8.46191V10.4619ZM139.556 9.73535V13.1738H141.556V9.73535H139.556ZM140.556 14.1738H144.958V12.1738H140.556V14.1738ZM145.958 13.1738V9.73535H143.958V13.1738H145.958ZM145.958 9.73535C145.958 9.84206 145.933 9.98333 145.849 10.1249C145.766 10.2656 145.657 10.3529 145.57 10.4015C145.428 10.4818 145.343 10.4619 145.443 10.4619V8.46191C145.22 8.46191 144.893 8.4876 144.589 8.65903C144.2 8.8777 143.958 9.27487 143.958 9.73535H145.958ZM145.443 10.4619H145.539V8.46191H145.443V10.4619ZM145.539 10.4619C145.64 10.4619 145.555 10.4818 145.412 10.4015C145.326 10.3529 145.217 10.2656 145.133 10.1249C145.05 9.98333 145.024 9.84206 145.024 9.73535H147.024C147.024 9.27487 146.782 8.8777 146.394 8.65903C146.09 8.4876 145.762 8.46191 145.539 8.46191V10.4619ZM145.024 9.73535V17.7539H147.024V9.73535H145.024ZM145.024 17.7539C145.024 17.6546 145.047 17.5192 145.125 17.3805C145.204 17.2411 145.311 17.1502 145.401 17.0971L146.415 18.8209C146.803 18.5926 147.024 18.1933 147.024 17.7539H145.024ZM145.44 17.0752C145.486 17.0508 145.524 17.0372 145.548 17.0299C145.572 17.0225 145.588 17.0196 145.593 17.0187C145.601 17.0174 145.586 17.0205 145.539 17.0205V19.0205C145.746 19.0205 146.074 19.0025 146.376 18.8428L145.44 17.0752ZM145.539 17.0205H145.443V19.0205H145.539V17.0205ZM145.443 17.0205C145.396 17.0205 145.381 17.0174 145.389 17.0187C145.394 17.0196 145.41 17.0225 145.434 17.0299C145.458 17.0372 145.496 17.0508 145.542 17.0752L144.606 18.8428C144.908 19.0025 145.236 19.0205 145.443 19.0205V17.0205ZM145.581 17.0971C145.672 17.1502 145.778 17.2411 145.857 17.3805C145.936 17.5192 145.958 17.6546 145.958 17.7539H143.958C143.958 18.1933 144.179 18.5926 144.567 18.8209L145.581 17.0971ZM145.958 17.7539V14.0967H143.958V17.7539H145.958ZM144.958 13.0967H140.556V15.0967H144.958V13.0967ZM139.556 14.0967V17.7539H141.556V14.0967H139.556ZM139.556 17.7539C139.556 17.6415 139.583 17.4958 139.67 17.3518C139.757 17.2097 139.868 17.124 139.953 17.0774C140.092 17.0007 140.173 17.0205 140.07 17.0205V19.0205C140.291 19.0205 140.614 18.9959 140.916 18.8303C141.082 18.7393 141.254 18.598 141.38 18.3893C141.508 18.1787 141.556 17.9552 141.556 17.7539H139.556ZM140.07 17.0205H139.975V19.0205H140.07V17.0205Z" fill="black"/>
</svg>
