<svg width="206" height="24" viewBox="0 0 206 24" fill="none" xmlns="http://www.w3.org/2000/svg">
<rect width="159.802" height="24" rx="12" fill="#004170"/>
<path d="M65.668 18.0205C65.3398 18.0205 65.1758 17.9316 65.1758 17.7539V9.8584C65.1758 9.73079 65.2054 9.63965 65.2646 9.58496C65.3239 9.52572 65.4173 9.49609 65.5449 9.49609H69.373C69.4596 9.49609 69.5212 9.52572 69.5576 9.58496C69.5941 9.63965 69.6123 9.73079 69.6123 9.8584V10.0566C69.6123 10.1797 69.5941 10.2708 69.5576 10.3301C69.5212 10.3893 69.4596 10.4189 69.373 10.4189H66.249V13.1875H69.1543C69.2363 13.1875 69.2979 13.2171 69.3389 13.2764C69.3799 13.3356 69.4004 13.429 69.4004 13.5566V13.7412C69.4004 13.8688 69.3799 13.9622 69.3389 14.0215C69.2979 14.0762 69.2363 14.1035 69.1543 14.1035H66.249V17.7539C66.249 17.9316 66.0872 18.0205 65.7637 18.0205H65.668ZM74.4385 18.0684C73.7321 18.0684 73.1305 17.959 72.6338 17.7402C72.137 17.5169 71.7611 17.1956 71.5059 16.7764C71.2507 16.3571 71.123 15.8558 71.123 15.2725V9.73535C71.123 9.55306 71.2848 9.46191 71.6084 9.46191H71.7041C72.0277 9.46191 72.1895 9.55306 72.1895 9.73535V15.3135C72.1895 15.6689 72.2874 15.9857 72.4834 16.2637C72.6794 16.5417 72.9482 16.7581 73.29 16.9131C73.6318 17.068 74.0146 17.1455 74.4385 17.1455C74.8669 17.1455 75.252 17.068 75.5938 16.9131C75.9355 16.7536 76.2021 16.5348 76.3936 16.2568C76.5895 15.9788 76.6875 15.6644 76.6875 15.3135V9.73535C76.6875 9.55306 76.8493 9.46191 77.1729 9.46191H77.2754C77.5944 9.46191 77.7539 9.55306 77.7539 9.73535V15.2725C77.7539 15.8558 77.6263 16.3571 77.3711 16.7764C77.1159 17.1956 76.7399 17.5169 76.2432 17.7402C75.7464 17.959 75.1449 18.0684 74.4385 18.0684ZM80.3105 18C80.1829 18 80.0895 17.9704 80.0303 17.9111C79.971 17.8519 79.9414 17.7607 79.9414 17.6377V9.73535C79.9414 9.55306 80.1055 9.46191 80.4336 9.46191H80.5293C80.8529 9.46191 81.0146 9.55306 81.0146 9.73535V17.0771H84.3574C84.444 17.0771 84.5055 17.1068 84.542 17.166C84.5785 17.2207 84.5967 17.3118 84.5967 17.4395V17.6377C84.5967 17.7607 84.5785 17.8519 84.542 17.9111C84.5055 17.9704 84.444 18 84.3574 18H80.3105ZM86.1895 18C86.0618 18 85.9684 17.9704 85.9092 17.9111C85.8499 17.8519 85.8203 17.7607 85.8203 17.6377V9.73535C85.8203 9.55306 85.9844 9.46191 86.3125 9.46191H86.4082C86.7318 9.46191 86.8936 9.55306 86.8936 9.73535V17.0771H90.2363C90.3229 17.0771 90.3844 17.1068 90.4209 17.166C90.4574 17.2207 90.4756 17.3118 90.4756 17.4395V17.6377C90.4756 17.7607 90.4574 17.8519 90.4209 17.9111C90.3844 17.9704 90.3229 18 90.2363 18H86.1895ZM92.1094 18.0205C91.9362 18.0205 91.8109 18 91.7334 17.959C91.6559 17.9134 91.6172 17.8451 91.6172 17.7539V9.73535C91.6172 9.55306 91.7812 9.46191 92.1094 9.46191H92.3623C92.4899 9.46191 92.5902 9.48014 92.6631 9.5166C92.7406 9.55306 92.8089 9.6123 92.8682 9.69434L96.751 15.5527L97.1133 16.2363V9.73535C97.1133 9.55306 97.2728 9.46191 97.5918 9.46191H97.6875C98.0065 9.46191 98.166 9.55306 98.166 9.73535V17.7539C98.166 17.8451 98.1273 17.9134 98.0498 17.959C97.9723 18 97.8516 18.0205 97.6875 18.0205H97.4414C97.3275 18.0205 97.2363 18.0068 97.168 17.9795C97.0996 17.9521 97.0472 17.9089 97.0107 17.8496L93.0049 11.8066L92.6768 11.1777V17.7539C92.6768 17.9316 92.515 18.0205 92.1914 18.0205H92.1094ZM99.9297 18.0205C99.7474 18.0205 99.6152 18.0046 99.5332 17.9727C99.4512 17.9362 99.4102 17.8838 99.4102 17.8154C99.4102 17.7835 99.4215 17.7288 99.4443 17.6514L102.322 9.66016C102.368 9.52799 102.53 9.46191 102.808 9.46191H103.163C103.441 9.46191 103.603 9.52799 103.648 9.66016L106.526 17.6582C106.549 17.7083 106.561 17.7607 106.561 17.8154C106.561 17.9521 106.39 18.0205 106.048 18.0205H105.945C105.663 18.0205 105.499 17.9567 105.453 17.8291L104.742 15.833H101.174L100.477 17.8291C100.436 17.9567 100.274 18.0205 99.9912 18.0205H99.9297ZM104.414 14.9102L103.143 11.2939C103.106 11.1937 103.076 11.0798 103.054 10.9521C103.031 10.8245 103.01 10.7015 102.992 10.583H102.965C102.91 10.8883 102.849 11.1253 102.78 11.2939L101.509 14.9102H104.414ZM108.297 18.0205C108.124 18.0205 107.998 18 107.921 17.959C107.843 17.9134 107.805 17.8451 107.805 17.7539V9.73535C107.805 9.55306 107.969 9.46191 108.297 9.46191H108.728C108.996 9.46191 109.167 9.53711 109.24 9.6875L111.537 13.6729L111.852 14.4385L112.166 13.7412L114.47 9.6875C114.547 9.53711 114.716 9.46191 114.976 9.46191H115.379C115.702 9.46191 115.864 9.55306 115.864 9.73535V17.7539C115.864 17.9316 115.702 18.0205 115.379 18.0205H115.297C115.124 18.0205 114.998 18 114.921 17.959C114.843 17.9134 114.805 17.8451 114.805 17.7539V11.2119L114.784 11.2666L112.364 15.4707C112.332 15.5254 112.296 15.5664 112.255 15.5938C112.214 15.6165 112.161 15.6279 112.098 15.6279H111.612C111.489 15.6279 111.398 15.5755 111.339 15.4707L108.864 11.1436V17.7539C108.864 17.9316 108.702 18.0205 108.379 18.0205H108.297ZM118.496 18C118.368 18 118.275 17.9704 118.216 17.9111C118.157 17.8519 118.127 17.7607 118.127 17.6377V9.8584C118.127 9.73079 118.157 9.63965 118.216 9.58496C118.275 9.52572 118.368 9.49609 118.496 9.49609H122.734C122.821 9.49609 122.882 9.52344 122.919 9.57812C122.96 9.63281 122.98 9.72624 122.98 9.8584V10.0566C122.98 10.1797 122.96 10.2708 122.919 10.3301C122.882 10.3893 122.821 10.4189 122.734 10.4189H119.2V13.1875H122.372C122.459 13.1875 122.52 13.2171 122.557 13.2764C122.598 13.3356 122.618 13.429 122.618 13.5566V13.7412C122.618 13.8688 122.598 13.9622 122.557 14.0215C122.52 14.0762 122.459 14.1035 122.372 14.1035H119.2V17.0771H122.748C122.835 17.0771 122.896 17.1068 122.933 17.166C122.974 17.2207 122.994 17.3118 122.994 17.4395V17.6377C122.994 17.7607 122.974 17.8519 122.933 17.9111C122.896 17.9704 122.835 18 122.748 18H118.496Z" fill="white"/>
<path d="M65.2646 9.58496L65.9429 10.3198L65.9576 10.3062L65.9718 10.2921L65.2646 9.58496ZM69.5576 9.58496L68.706 10.1091L68.7155 10.1245L68.7256 10.1397L69.5576 9.58496ZM66.249 10.4189V9.41895H65.249V10.4189H66.249ZM66.249 13.1875H65.249V14.1875H66.249V13.1875ZM69.3389 14.0215L70.1389 14.6215L70.1503 14.6063L70.1611 14.5907L69.3389 14.0215ZM66.249 14.1035V13.1035H65.249V14.1035H66.249ZM65.668 17.0205C65.5615 17.0205 65.6384 17.0005 65.7751 17.0746C65.8585 17.1197 65.9707 17.2042 66.0582 17.3464C66.1473 17.4913 66.1758 17.639 66.1758 17.7539H64.1758C64.1758 17.9577 64.2248 18.1832 64.3549 18.3946C64.4834 18.6035 64.6571 18.7435 64.8225 18.8331C65.1234 18.9961 65.4463 19.0205 65.668 19.0205V17.0205ZM66.1758 17.7539V9.8584H64.1758V17.7539H66.1758ZM66.1758 9.8584C66.1758 9.867 66.1754 9.92232 66.149 10.0034C66.1209 10.09 66.061 10.2108 65.9429 10.3198L64.5864 8.85016C64.2287 9.18028 64.1758 9.61087 64.1758 9.8584H66.1758ZM65.9718 10.2921C65.7652 10.4986 65.5463 10.4961 65.5449 10.4961V8.49609C65.2883 8.49609 64.8826 8.5528 64.5575 8.87785L65.9718 10.2921ZM65.5449 10.4961H69.373V8.49609H65.5449V10.4961ZM69.373 10.4961C69.3052 10.4961 69.1861 10.4847 69.0503 10.4193C68.9052 10.3494 68.7861 10.2392 68.706 10.1091L70.4093 9.06086C70.1448 8.63108 69.709 8.49609 69.373 8.49609V10.4961ZM68.7256 10.1397C68.648 10.0233 68.6247 9.92387 68.6181 9.89045C68.6105 9.85262 68.6123 9.83797 68.6123 9.8584H70.6123C70.6123 9.6892 70.5983 9.34317 70.3897 9.03026L68.7256 10.1397ZM68.6123 9.8584V10.0566H70.6123V9.8584H68.6123ZM68.6123 10.0566C68.6123 10.0721 68.6109 10.057 68.6181 10.0212C68.6248 9.98731 68.6452 9.90476 68.706 9.80598L70.4093 10.8542C70.5917 10.5577 70.6123 10.2411 70.6123 10.0566H68.6123ZM68.706 9.80598C68.7861 9.6758 68.9052 9.5656 69.0503 9.49573C69.1861 9.43033 69.3052 9.41895 69.373 9.41895V11.4189C69.709 11.4189 70.1448 11.284 70.4093 10.8542L68.706 9.80598ZM69.373 9.41895H66.249V11.4189H69.373V9.41895ZM65.249 10.4189V13.1875H67.249V10.4189H65.249ZM66.249 14.1875H69.1543V12.1875H66.249V14.1875ZM69.1543 14.1875C69.075 14.1875 68.9573 14.1729 68.8281 14.1107C68.6942 14.0462 68.5891 13.9501 68.5167 13.8456L70.1611 12.7072C69.9052 12.3375 69.5118 12.1875 69.1543 12.1875V14.1875ZM68.5167 13.8456C68.4431 13.7393 68.4173 13.6464 68.4083 13.6053C68.3989 13.5627 68.4004 13.5426 68.4004 13.5566H70.4004C70.4004 13.3634 70.3771 13.0193 70.1611 12.7072L68.5167 13.8456ZM68.4004 13.5566V13.7412H70.4004V13.5566H68.4004ZM68.4004 13.7412C68.4004 13.7552 68.3989 13.7352 68.4083 13.6926C68.4173 13.6515 68.4431 13.5585 68.5167 13.4523L70.1611 14.5907C70.3771 14.2786 70.4004 13.9345 70.4004 13.7412H68.4004ZM68.5389 13.4215C68.6191 13.3145 68.7282 13.2259 68.8558 13.1692C68.9777 13.115 69.0853 13.1035 69.1543 13.1035V15.1035C69.4803 15.1035 69.8702 14.9797 70.1389 14.6215L68.5389 13.4215ZM69.1543 13.1035H66.249V15.1035H69.1543V13.1035ZM65.249 14.1035V17.7539H67.249V14.1035H65.249ZM65.249 17.7539C65.249 17.6415 65.2764 17.4958 65.3638 17.3518C65.45 17.2097 65.5614 17.124 65.6462 17.0774C65.7858 17.0007 65.8667 17.0205 65.7637 17.0205V19.0205C65.9843 19.0205 66.3078 18.9959 66.6091 18.8303C66.7749 18.7393 66.9469 18.598 67.0736 18.3893C67.2014 18.1787 67.249 17.9552 67.249 17.7539H65.249ZM65.7637 17.0205H65.668V19.0205H65.7637V17.0205ZM72.6338 17.7402L72.2238 18.6523L72.2308 18.6554L72.6338 17.7402ZM71.5059 16.7764L70.6517 17.2963L71.5059 16.7764ZM72.4834 16.2637L71.6661 16.8398L72.4834 16.2637ZM75.5938 16.9131L76.0067 17.8239L76.0166 17.8193L75.5938 16.9131ZM76.3936 16.2568L75.5762 15.6806L75.5699 15.6897L76.3936 16.2568ZM76.2432 17.7402L76.6462 18.6555L76.6532 18.6523L76.2432 17.7402ZM74.4385 17.0684C73.8309 17.0684 73.3744 16.9737 73.0368 16.825L72.2308 18.6554C72.8866 18.9442 73.6333 19.0684 74.4385 19.0684V17.0684ZM73.0438 16.8282C72.7103 16.6782 72.4988 16.4844 72.3601 16.2564L70.6517 17.2963C71.0233 17.9069 71.5638 18.3556 72.2238 18.6523L73.0438 16.8282ZM72.3601 16.2564C72.2168 16.0211 72.123 15.7073 72.123 15.2725H70.123C70.123 16.0043 70.2845 16.6931 70.6517 17.2963L72.3601 16.2564ZM72.123 15.2725V9.73535H70.123V15.2725H72.123ZM72.123 9.73535C72.123 9.84206 72.0978 9.98333 72.014 10.1249C71.9308 10.2656 71.8216 10.3529 71.7352 10.4015C71.5927 10.4818 71.5077 10.4619 71.6084 10.4619V8.46191C71.3855 8.46191 71.0578 8.4876 70.7535 8.65903C70.3654 8.8777 70.123 9.27487 70.123 9.73535H72.123ZM71.6084 10.4619H71.7041V8.46191H71.6084V10.4619ZM71.7041 10.4619C71.8048 10.4619 71.7198 10.4818 71.5773 10.4015C71.4909 10.3529 71.3817 10.2656 71.2985 10.1249C71.2147 9.98333 71.1895 9.84206 71.1895 9.73535H73.1895C73.1895 9.27487 72.9471 8.8777 72.559 8.65903C72.2547 8.4876 71.927 8.46191 71.7041 8.46191V10.4619ZM71.1895 9.73535V15.3135H73.1895V9.73535H71.1895ZM71.1895 15.3135C71.1895 15.8653 71.3457 16.3853 71.6661 16.8398L73.3007 15.6875C73.2292 15.586 73.1895 15.4725 73.1895 15.3135H71.1895ZM71.6661 16.8398C71.975 17.2781 72.3904 17.6032 72.8772 17.8239L73.7029 16.0023C73.5061 15.9131 73.3837 15.8052 73.3007 15.6875L71.6661 16.8398ZM72.8772 17.8239C73.3645 18.0448 73.8907 18.1455 74.4385 18.1455V16.1455C74.1386 16.1455 73.8992 16.0913 73.7029 16.0023L72.8772 17.8239ZM74.4385 18.1455C74.9892 18.1455 75.518 18.0454 76.0066 17.8239L75.1809 16.0023C74.9859 16.0907 74.7446 16.1455 74.4385 16.1455V18.1455ZM76.0166 17.8193C76.5004 17.5935 76.9133 17.2653 77.2172 16.8239L75.5699 15.6897C75.491 15.8043 75.3707 15.9137 75.1709 16.0069L76.0166 17.8193ZM77.2109 16.833C77.5297 16.3808 77.6875 15.8637 77.6875 15.3135H75.6875C75.6875 15.4651 75.6494 15.5769 75.5762 15.6807L77.2109 16.833ZM77.6875 15.3135V9.73535H75.6875V15.3135H77.6875ZM77.6875 9.73535C77.6875 9.84206 77.6623 9.98333 77.5785 10.1249C77.4952 10.2656 77.3861 10.3529 77.2997 10.4015C77.1572 10.4818 77.0722 10.4619 77.1729 10.4619V8.46191C76.95 8.46191 76.6223 8.4876 76.318 8.65903C75.9299 8.8777 75.6875 9.27487 75.6875 9.73535H77.6875ZM77.1729 10.4619H77.2754V8.46191H77.1729V10.4619ZM77.2754 10.4619C77.3724 10.4619 77.2834 10.4815 77.1381 10.3985C77.0504 10.3484 76.9421 10.2599 76.8602 10.1196C76.7782 9.9789 76.7539 9.83958 76.7539 9.73535H78.7539C78.7539 9.28189 78.5187 8.88392 78.1304 8.66203C77.8257 8.48788 77.4974 8.46191 77.2754 8.46191V10.4619ZM76.7539 9.73535V15.2725H78.7539V9.73535H76.7539ZM76.7539 15.2725C76.7539 15.7073 76.6601 16.0211 76.5169 16.2564L78.2253 17.2963C78.5925 16.6931 78.7539 16.0043 78.7539 15.2725H76.7539ZM76.5169 16.2564C76.3781 16.4844 76.1667 16.6782 75.8331 16.8282L76.6532 18.6523C77.3132 18.3556 77.8536 17.9069 78.2253 17.2963L76.5169 16.2564ZM75.8401 16.825C75.5025 16.9737 75.0461 17.0684 74.4385 17.0684V19.0684C75.2436 19.0684 75.9903 18.9442 76.6462 18.6554L75.8401 16.825ZM80.0303 17.9111L79.3232 18.6182L80.0303 17.9111ZM81.0146 17.0771H80.0146V18.0771H81.0146V17.0771ZM84.542 17.166L83.6903 17.6901L83.6999 17.7056L83.7099 17.7207L84.542 17.166ZM80.3105 17C80.3119 17 80.5308 16.9975 80.7374 17.204L79.3232 18.6182C79.6482 18.9433 80.054 19 80.3105 19V17ZM80.7374 17.204C80.9381 17.4047 80.9414 17.6194 80.9414 17.6377H78.9414C78.9414 17.9021 79.004 18.299 79.3232 18.6182L80.7374 17.204ZM80.9414 17.6377V9.73535H78.9414V17.6377H80.9414ZM80.9414 9.73535C80.9414 9.84454 80.9151 9.98775 80.8297 10.1302C80.7451 10.2712 80.6351 10.3572 80.5501 10.4044C80.4104 10.4821 80.3294 10.4619 80.4336 10.4619V8.46191C80.2097 8.46191 79.8826 8.48733 79.5788 8.65612C79.4118 8.7489 79.2403 8.89189 79.1147 9.10123C78.9882 9.31206 78.9414 9.53501 78.9414 9.73535H80.9414ZM80.4336 10.4619H80.5293V8.46191H80.4336V10.4619ZM80.5293 10.4619C80.63 10.4619 80.545 10.4818 80.4025 10.4015C80.3161 10.3529 80.2069 10.2656 80.1237 10.1249C80.0399 9.98333 80.0146 9.84206 80.0146 9.73535H82.0146C82.0146 9.27487 81.7723 8.8777 81.3842 8.65903C81.0799 8.4876 80.7522 8.46191 80.5293 8.46191V10.4619ZM80.0146 9.73535V17.0771H82.0146V9.73535H80.0146ZM81.0146 18.0771H84.3574V16.0771H81.0146V18.0771ZM84.3574 18.0771C84.2896 18.0771 84.1705 18.0658 84.0347 18.0004C83.8896 17.9305 83.7704 17.8203 83.6903 17.6901L85.3937 16.6419C85.1292 16.2121 84.6933 16.0771 84.3574 16.0771V18.0771ZM83.7099 17.7207C83.6323 17.6043 83.6091 17.5049 83.6024 17.4715C83.5949 17.4337 83.5967 17.419 83.5967 17.4395H85.5967C85.5967 17.2703 85.5826 16.9242 85.374 16.6113L83.7099 17.7207ZM83.5967 17.4395V17.6377H85.5967V17.4395H83.5967ZM83.5967 17.6377C83.5967 17.6531 83.5953 17.6381 83.6024 17.6022C83.6092 17.5684 83.6295 17.4858 83.6903 17.387L85.3937 18.4352C85.5761 18.1387 85.5967 17.8222 85.5967 17.6377H83.5967ZM83.6903 17.387C83.7704 17.2569 83.8896 17.1467 84.0347 17.0768C84.1705 17.0114 84.2896 17 84.3574 17V19C84.6933 19 85.1292 18.865 85.3937 18.4352L83.6903 17.387ZM84.3574 17H80.3105V19H84.3574V17ZM85.9092 17.9111L85.2021 18.6182L85.9092 17.9111ZM86.8936 17.0771H85.8936V18.0771H86.8936V17.0771ZM90.4209 17.166L89.5692 17.6901L89.5788 17.7056L89.5888 17.7207L90.4209 17.166ZM86.1895 17C86.1908 17 86.4097 16.9975 86.6163 17.204L85.2021 18.6182C85.5271 18.9433 85.9329 19 86.1895 19V17ZM86.6163 17.204C86.817 17.4047 86.8203 17.6194 86.8203 17.6377H84.8203C84.8203 17.9021 84.8829 18.299 85.2021 18.6182L86.6163 17.204ZM86.8203 17.6377V9.73535H84.8203V17.6377H86.8203ZM86.8203 9.73535C86.8203 9.84454 86.794 9.98775 86.7086 10.1302C86.624 10.2712 86.514 10.3572 86.429 10.4044C86.2893 10.4821 86.2083 10.4619 86.3125 10.4619V8.46191C86.0886 8.46191 85.7615 8.48733 85.4577 8.65612C85.2907 8.7489 85.1192 8.89189 84.9936 9.10123C84.8671 9.31206 84.8203 9.53501 84.8203 9.73535H86.8203ZM86.3125 10.4619H86.4082V8.46191H86.3125V10.4619ZM86.4082 10.4619C86.5089 10.4619 86.4239 10.4818 86.2814 10.4015C86.195 10.3529 86.0858 10.2656 86.0026 10.1249C85.9188 9.98333 85.8936 9.84206 85.8936 9.73535H87.8936C87.8936 9.27487 87.6512 8.8777 87.2631 8.65903C86.9588 8.4876 86.6311 8.46191 86.4082 8.46191V10.4619ZM85.8936 9.73535V17.0771H87.8936V9.73535H85.8936ZM86.8936 18.0771H90.2363V16.0771H86.8936V18.0771ZM90.2363 18.0771C90.1685 18.0771 90.0494 18.0658 89.9136 18.0004C89.7685 17.9305 89.6494 17.8203 89.5692 17.6901L91.2726 16.6419C91.0081 16.2121 90.5722 16.0771 90.2363 16.0771V18.0771ZM89.5888 17.7207C89.5112 17.6043 89.488 17.5049 89.4813 17.4715C89.4738 17.4337 89.4756 17.419 89.4756 17.4395H91.4756C91.4756 17.2703 91.4616 16.9242 91.2529 16.6113L89.5888 17.7207ZM89.4756 17.4395V17.6377H91.4756V17.4395H89.4756ZM89.4756 17.6377C89.4756 17.6531 89.4742 17.6381 89.4813 17.6022C89.4881 17.5684 89.5085 17.4858 89.5692 17.387L91.2726 18.4352C91.455 18.1387 91.4756 17.8222 91.4756 17.6377H89.4756ZM89.5692 17.387C89.6494 17.2569 89.7685 17.1467 89.9136 17.0768C90.0494 17.0114 90.1685 17 90.2363 17V19C90.5722 19 91.0081 18.865 91.2726 18.4352L89.5692 17.387ZM90.2363 17H86.1895V19H90.2363V17ZM91.7334 17.959L91.2264 18.8209L91.2457 18.8323L91.2655 18.8428L91.7334 17.959ZM92.6631 9.5166L92.2159 10.411L92.2265 10.4164L92.2373 10.4214L92.6631 9.5166ZM92.8682 9.69434L93.7017 9.14188L93.6906 9.12513L93.6788 9.10885L92.8682 9.69434ZM96.751 15.5527L97.6345 15.0844L97.6116 15.0411L97.5845 15.0003L96.751 15.5527ZM97.1133 16.2363L96.2297 16.7046L98.1133 16.2363H97.1133ZM98.0498 17.959L98.5177 18.8428L98.5375 18.8323L98.5568 18.8209L98.0498 17.959ZM97.0107 17.8496L97.8624 17.3255L97.8536 17.3111L97.8442 17.2971L97.0107 17.8496ZM93.0049 11.8066L92.1183 12.2692L92.1425 12.3156L92.1714 12.3592L93.0049 11.8066ZM92.6768 11.1777L93.5633 10.7152L91.6768 11.1777H92.6768ZM92.1094 17.0205C92.0589 17.0205 92.041 17.0173 92.047 17.0183C92.051 17.0189 92.0666 17.0216 92.0908 17.029C92.1146 17.0362 92.1537 17.05 92.2013 17.0752L91.2655 18.8428C91.5696 19.0037 91.9028 19.0205 92.1094 19.0205V17.0205ZM92.2404 17.0971C92.3308 17.1502 92.4373 17.2411 92.5163 17.3805C92.5949 17.5192 92.6172 17.6546 92.6172 17.7539H90.6172C90.6172 18.1933 90.8382 18.5926 91.2264 18.8209L92.2404 17.0971ZM92.6172 17.7539V9.73535H90.6172V17.7539H92.6172ZM92.6172 9.73535C92.6172 9.84454 92.5909 9.98775 92.5054 10.1302C92.4209 10.2712 92.3109 10.3572 92.2259 10.4044C92.0861 10.4821 92.0051 10.4619 92.1094 10.4619V8.46191C91.8855 8.46191 91.5584 8.48733 91.2546 8.65612C91.0876 8.7489 90.9161 8.89189 90.7905 9.10123C90.664 9.31206 90.6172 9.53501 90.6172 9.73535H92.6172ZM92.1094 10.4619H92.3623V8.46191H92.1094V10.4619ZM92.3623 10.4619C92.3804 10.4619 92.3758 10.4634 92.3543 10.4595C92.3334 10.4557 92.2822 10.4442 92.2159 10.411L93.1103 8.62217C92.8419 8.48797 92.5662 8.46191 92.3623 8.46191V10.4619ZM92.2373 10.4214C92.1358 10.3737 92.0794 10.3101 92.0575 10.2798L93.6788 9.10885C93.5385 8.91451 93.3453 8.73246 93.0889 8.61178L92.2373 10.4214ZM92.0346 10.2468L95.9174 16.1052L97.5845 15.0003L93.7017 9.14188L92.0346 10.2468ZM95.8674 16.021L96.2297 16.7046L97.9969 15.768L97.6345 15.0844L95.8674 16.021ZM98.1133 16.2363V9.73535H96.1133V16.2363H98.1133ZM98.1133 9.73535C98.1133 9.83958 98.089 9.9789 98.007 10.1196C97.9251 10.2599 97.8168 10.3484 97.729 10.3985C97.5838 10.4815 97.4948 10.4619 97.5918 10.4619V8.46191C97.3698 8.46191 97.0415 8.48788 96.7368 8.66203C96.3485 8.88392 96.1133 9.28189 96.1133 9.73535H98.1133ZM97.5918 10.4619H97.6875V8.46191H97.5918V10.4619ZM97.6875 10.4619C97.7845 10.4619 97.6955 10.4815 97.5502 10.3985C97.4625 10.3484 97.3542 10.2599 97.2723 10.1196C97.1903 9.9789 97.166 9.83958 97.166 9.73535H99.166C99.166 9.28189 98.9308 8.88392 98.5425 8.66203C98.2378 8.48788 97.9095 8.46191 97.6875 8.46191V10.4619ZM97.166 9.73535V17.7539H99.166V9.73535H97.166ZM97.166 17.7539C97.166 17.6546 97.1883 17.5192 97.2669 17.3805C97.3459 17.2411 97.4524 17.1502 97.5428 17.0971L98.5568 18.8209C98.945 18.5926 99.166 18.1933 99.166 17.7539H97.166ZM97.5819 17.0752C97.6263 17.0517 97.6632 17.0383 97.6872 17.0308C97.7114 17.0233 97.7278 17.0202 97.7337 17.0192C97.7436 17.0176 97.731 17.0205 97.6875 17.0205V19.0205C97.8957 19.0205 98.2186 19.0011 98.5177 18.8428L97.5819 17.0752ZM97.6875 17.0205H97.4414V19.0205H97.6875V17.0205ZM97.4414 17.0205C97.423 17.0205 97.4225 17.0193 97.4359 17.0213C97.4486 17.0232 97.4865 17.0299 97.5394 17.051L96.7966 18.908C97.0296 19.0012 97.2624 19.0205 97.4414 19.0205V17.0205ZM97.5394 17.051C97.6579 17.0985 97.7795 17.1908 97.8624 17.3255L96.1591 18.3737C96.3149 18.6269 96.5413 18.8058 96.7966 18.908L97.5394 17.051ZM97.8442 17.2971L93.8384 11.2541L92.1714 12.3592L96.1772 18.4021L97.8442 17.2971ZM93.8915 11.3441L93.5633 10.7152L91.7902 11.6403L92.1183 12.2692L93.8915 11.3441ZM91.6768 11.1777V17.7539H93.6768V11.1777H91.6768ZM91.6768 17.7539C91.6768 17.6415 91.7041 17.4958 91.7915 17.3518C91.8777 17.2097 91.9891 17.124 92.074 17.0774C92.2135 17.0007 92.2944 17.0205 92.1914 17.0205V19.0205C92.412 19.0205 92.7355 18.9959 93.0369 18.8303C93.2026 18.7393 93.3747 18.598 93.5013 18.3893C93.6292 18.1787 93.6768 17.9552 93.6768 17.7539H91.6768ZM92.1914 17.0205H92.1094V19.0205H92.1914V17.0205ZM99.5332 17.9727L99.1271 18.8865L99.1487 18.8961L99.1708 18.9047L99.5332 17.9727ZM99.4443 17.6514L98.5035 17.3125L98.4934 17.3406L98.485 17.3692L99.4443 17.6514ZM102.322 9.66016L103.263 9.99902L103.268 9.98615L102.322 9.66016ZM103.648 9.66016L102.703 9.98618L102.707 9.99873L103.648 9.66016ZM106.526 17.6582L105.585 17.9968L105.599 18.035L105.616 18.072L106.526 17.6582ZM105.453 17.8291L104.511 18.1646L104.511 18.1654L105.453 17.8291ZM104.742 15.833L105.684 15.4975L105.448 14.833H104.742V15.833ZM101.174 15.833V14.833H100.464L100.23 15.5032L101.174 15.833ZM100.477 17.8291L99.5325 17.4993L99.5284 17.5112L99.5245 17.5231L100.477 17.8291ZM104.414 14.9102V15.9102H105.826L105.357 14.5785L104.414 14.9102ZM103.143 11.2939L104.086 10.9622L104.082 10.9522L103.143 11.2939ZM103.054 10.9521L102.069 11.1279L103.054 10.9521ZM102.992 10.583L103.981 10.431L103.85 9.58301H102.992V10.583ZM102.965 10.583V9.58301H102.128L101.981 10.4067L102.965 10.583ZM102.78 11.2939L101.854 10.9182L101.845 10.94L101.837 10.9622L102.78 11.2939ZM101.509 14.9102L100.565 14.5785L100.097 15.9102H101.509V14.9102ZM99.9297 17.0205C99.8984 17.0205 99.8731 17.0198 99.853 17.0188C99.8328 17.0178 99.82 17.0165 99.8137 17.0157C99.807 17.0149 99.8105 17.0151 99.8222 17.0176C99.8282 17.019 99.8375 17.0213 99.8494 17.0248C99.8613 17.0283 99.877 17.0334 99.8956 17.0407L99.1708 18.9047C99.4365 19.008 99.7274 19.0205 99.9297 19.0205V17.0205ZM99.9393 17.0588C99.998 17.0849 100.119 17.15 100.228 17.2897C100.35 17.4445 100.41 17.6328 100.41 17.8154H98.4102C98.4102 18.0665 98.4912 18.3151 98.6534 18.5223C98.8038 18.7145 98.9864 18.8239 99.1271 18.8865L99.9393 17.0588ZM100.41 17.8154C100.41 17.8636 100.406 17.8998 100.404 17.9177C100.401 17.9372 100.399 17.9501 100.398 17.9544C100.396 17.9622 100.397 17.9567 100.404 17.9335L98.485 17.3692C98.4641 17.4403 98.4102 17.6222 98.4102 17.8154H100.41ZM100.385 17.9902L103.263 9.99899L101.381 9.32132L98.5035 17.3125L100.385 17.9902ZM103.268 9.98615C103.226 10.1078 103.155 10.2139 103.069 10.2962C102.987 10.3748 102.907 10.4164 102.856 10.4372C102.767 10.4736 102.731 10.4619 102.808 10.4619V8.46191C102.607 8.46191 102.35 8.48329 102.1 8.58572C101.824 8.69828 101.516 8.93006 101.377 9.33417L103.268 9.98615ZM102.808 10.4619H103.163V8.46191H102.808V10.4619ZM103.163 10.4619C103.24 10.4619 103.204 10.4736 103.115 10.4372C103.064 10.4164 102.984 10.3748 102.901 10.2962C102.815 10.2139 102.745 10.1078 102.703 9.98615L104.594 9.33417C104.454 8.93006 104.147 8.69828 103.871 8.58572C103.62 8.48329 103.364 8.46191 103.163 8.46191V10.4619ZM102.707 9.99873L105.585 17.9968L107.467 17.3196L104.589 9.32158L102.707 9.99873ZM105.616 18.072C105.58 17.9931 105.561 17.9045 105.561 17.8154H107.561C107.561 17.617 107.518 17.4236 107.437 17.2444L105.616 18.072ZM105.561 17.8154C105.561 17.6219 105.628 17.4238 105.76 17.265C105.878 17.1239 106.005 17.0631 106.061 17.0408C106.155 17.003 106.182 17.0205 106.048 17.0205V19.0205C106.256 19.0205 106.538 19.0039 106.804 18.8977C106.945 18.8412 107.136 18.7377 107.297 18.5453C107.472 18.3353 107.561 18.0773 107.561 17.8154H105.561ZM106.048 17.0205H105.945V19.0205H106.048V17.0205ZM105.945 17.0205C105.862 17.0205 105.891 17.0087 105.973 17.0407C106.02 17.0591 106.1 17.0978 106.184 17.1744C106.272 17.2552 106.349 17.3634 106.395 17.4928L104.511 18.1654C104.659 18.579 104.982 18.8012 105.248 18.9047C105.494 19.0004 105.746 19.0205 105.945 19.0205V17.0205ZM106.395 17.4936L105.684 15.4975L103.8 16.1685L104.511 18.1646L106.395 17.4936ZM104.742 14.833H101.174V16.833H104.742V14.833ZM100.23 15.5032L99.5325 17.4993L101.421 18.1589L102.118 16.1628L100.23 15.5032ZM99.5245 17.5231C99.568 17.3878 99.6446 17.2726 99.7368 17.1856C99.8238 17.1034 99.9078 17.062 99.9576 17.0424C100.044 17.0084 100.076 17.0205 99.9912 17.0205V19.0205C100.189 19.0205 100.443 19.0007 100.691 18.9029C100.962 18.7964 101.291 18.5645 101.429 18.1351L99.5245 17.5231ZM99.9912 17.0205H99.9297V19.0205H99.9912V17.0205ZM105.357 14.5785L104.086 10.9622L102.199 11.6256L103.471 15.2419L105.357 14.5785ZM104.082 10.9522C104.069 10.9159 104.053 10.859 104.038 10.7764L102.069 11.1279C102.1 11.3005 102.143 11.4715 102.203 11.6357L104.082 10.9522ZM104.038 10.7764C104.017 10.656 103.997 10.5409 103.981 10.431L102.004 10.7351C102.023 10.8621 102.045 10.9931 102.069 11.1279L104.038 10.7764ZM102.992 9.58301H102.965V11.583H102.992V9.58301ZM101.981 10.4067C101.931 10.6843 101.884 10.8433 101.854 10.9182L103.707 11.6697C103.813 11.4074 103.89 11.0924 103.949 10.7593L101.981 10.4067ZM101.837 10.9622L100.565 14.5785L102.452 15.2419L103.724 11.6256L101.837 10.9622ZM101.509 15.9102H104.414V13.9102H101.509V15.9102ZM107.921 17.959L107.414 18.8209L107.433 18.8323L107.453 18.8428L107.921 17.959ZM109.24 9.6875L108.34 10.1238L108.356 10.1559L108.374 10.1868L109.24 9.6875ZM111.537 13.6729L112.462 13.2929L112.437 13.2313L112.404 13.1735L111.537 13.6729ZM111.852 14.4385L110.927 14.8184L111.809 16.9661L112.763 14.8496L111.852 14.4385ZM112.166 13.7412L111.297 13.2471L111.274 13.2876L111.254 13.3301L112.166 13.7412ZM114.47 9.6875L115.339 10.1816L115.349 10.1637L115.359 10.1455L114.47 9.6875ZM114.921 17.959L114.414 18.8209L114.433 18.8323L114.453 18.8428L114.921 17.959ZM114.805 11.2119H115.805L113.868 10.8608L114.805 11.2119ZM114.784 11.2666L115.651 11.7655L115.692 11.6945L115.721 11.6177L114.784 11.2666ZM112.364 15.4707L113.228 15.9746L113.231 15.9696L112.364 15.4707ZM112.255 15.5938L112.741 16.4679L112.776 16.4483L112.81 16.4258L112.255 15.5938ZM111.339 15.4707L112.209 14.9786L112.207 14.9743L111.339 15.4707ZM108.864 11.1436L109.732 10.6471L107.864 7.38057V11.1436H108.864ZM108.297 17.0205C108.246 17.0205 108.229 17.0173 108.234 17.0183C108.238 17.0189 108.254 17.0216 108.278 17.029C108.302 17.0362 108.341 17.05 108.389 17.0752L107.453 18.8428C107.757 19.0037 108.09 19.0205 108.297 19.0205V17.0205ZM108.428 17.0971C108.518 17.1502 108.625 17.2411 108.704 17.3805C108.782 17.5192 108.805 17.6546 108.805 17.7539H106.805C106.805 18.1933 107.026 18.5926 107.414 18.8209L108.428 17.0971ZM108.805 17.7539V9.73535H106.805V17.7539H108.805ZM108.805 9.73535C108.805 9.84454 108.778 9.98775 108.693 10.1302C108.608 10.2712 108.498 10.3572 108.413 10.4044C108.274 10.4821 108.193 10.4619 108.297 10.4619V8.46191C108.073 8.46191 107.746 8.48733 107.442 8.65612C107.275 8.7489 107.104 8.89189 106.978 9.10123C106.851 9.31206 106.805 9.53501 106.805 9.73535H108.805ZM108.297 10.4619H108.728V8.46191H108.297V10.4619ZM108.728 10.4619C108.78 10.4619 108.739 10.4708 108.655 10.4336C108.608 10.4132 108.548 10.3787 108.488 10.3228C108.426 10.2658 108.376 10.1976 108.34 10.1238L110.14 9.25123C109.812 8.57503 109.126 8.46191 108.728 8.46191V10.4619ZM108.374 10.1868L110.671 14.1722L112.404 13.1735L110.107 9.18816L108.374 10.1868ZM110.612 14.0528L110.927 14.8184L112.777 14.0586L112.462 13.2929L110.612 14.0528ZM112.763 14.8496L113.078 14.1523L111.254 13.3301L110.94 14.0274L112.763 14.8496ZM113.035 14.2353L115.339 10.1816L113.6 9.19342L111.297 13.2471L113.035 14.2353ZM115.359 10.1455C115.284 10.2912 115.165 10.3856 115.062 10.4316C114.977 10.4695 114.933 10.4619 114.976 10.4619V8.46191C114.562 8.46191 113.911 8.58762 113.581 9.22954L115.359 10.1455ZM114.976 10.4619H115.379V8.46191H114.976V10.4619ZM115.379 10.4619C115.48 10.4619 115.395 10.4818 115.252 10.4015C115.166 10.3529 115.057 10.2656 114.973 10.1249C114.89 9.98333 114.864 9.84206 114.864 9.73535H116.864C116.864 9.27487 116.622 8.8777 116.234 8.65903C115.929 8.4876 115.602 8.46191 115.379 8.46191V10.4619ZM114.864 9.73535V17.7539H116.864V9.73535H114.864ZM114.864 17.7539C114.864 17.6415 114.892 17.4958 114.979 17.3518C115.065 17.2097 115.177 17.124 115.261 17.0774C115.401 17.0007 115.482 17.0205 115.379 17.0205V19.0205C115.599 19.0205 115.923 18.9959 116.224 18.8303C116.39 18.7393 116.562 18.598 116.689 18.3893C116.817 18.1787 116.864 17.9552 116.864 17.7539H114.864ZM115.379 17.0205H115.297V19.0205H115.379V17.0205ZM115.297 17.0205C115.246 17.0205 115.229 17.0173 115.234 17.0183C115.238 17.0189 115.254 17.0216 115.278 17.029C115.302 17.0362 115.341 17.05 115.389 17.0752L114.453 18.8428C114.757 19.0037 115.09 19.0205 115.297 19.0205V17.0205ZM115.428 17.0971C115.518 17.1502 115.625 17.2411 115.704 17.3805C115.782 17.5192 115.805 17.6546 115.805 17.7539H113.805C113.805 18.1933 114.026 18.5926 114.414 18.8209L115.428 17.0971ZM115.805 17.7539V11.2119H113.805V17.7539H115.805ZM113.868 10.8608L113.848 10.9155L115.721 11.6177L115.741 11.563L113.868 10.8608ZM113.918 10.7677L111.498 14.9718L113.231 15.9696L115.651 11.7655L113.918 10.7677ZM111.5 14.9668C111.524 14.9262 111.584 14.8393 111.7 14.7617L112.81 16.4258C113.008 16.2935 113.141 16.1246 113.228 15.9746L111.5 14.9668ZM111.769 14.7196C111.921 14.6355 112.05 14.6279 112.098 14.6279V16.6279C112.273 16.6279 112.507 16.5976 112.741 16.4679L111.769 14.7196ZM112.098 14.6279H111.612V16.6279H112.098V14.6279ZM111.612 14.6279C111.696 14.6279 111.82 14.6469 111.95 14.7217C112.081 14.7972 112.164 14.8981 112.209 14.9786L110.468 15.9628C110.71 16.3899 111.139 16.6279 111.612 16.6279V14.6279ZM112.207 14.9743L109.732 10.6471L107.996 11.64L110.471 15.9671L112.207 14.9743ZM107.864 11.1436V17.7539H109.864V11.1436H107.864ZM107.864 17.7539C107.864 17.6415 107.892 17.4958 107.979 17.3518C108.065 17.2097 108.177 17.124 108.261 17.0774C108.401 17.0007 108.482 17.0205 108.379 17.0205V19.0205C108.599 19.0205 108.923 18.9959 109.224 18.8303C109.39 18.7393 109.562 18.598 109.689 18.3893C109.817 18.1787 109.864 17.9552 109.864 17.7539H107.864ZM108.379 17.0205H108.297V19.0205H108.379V17.0205ZM118.216 17.9111L117.509 18.6182L118.216 17.9111ZM118.216 9.58496L118.894 10.3198L118.909 10.3062L118.923 10.2921L118.216 9.58496ZM122.919 9.57812L122.087 10.1328L122.102 10.1559L122.119 10.1781L122.919 9.57812ZM122.919 10.3301L122.097 9.76087L122.081 9.78303L122.067 9.80598L122.919 10.3301ZM119.2 10.4189V9.41895H118.2V10.4189H119.2ZM119.2 13.1875H118.2V14.1875H119.2V13.1875ZM122.557 13.2764L121.705 13.8005L121.719 13.8234L121.734 13.8456L122.557 13.2764ZM122.557 14.0215L121.734 13.4523L121.729 13.4595L121.725 13.4668L122.557 14.0215ZM119.2 14.1035V13.1035H118.2V14.1035H119.2ZM119.2 17.0771H118.2V18.0771H119.2V17.0771ZM122.933 17.166L122.081 17.6901L122.105 17.7293L122.133 17.766L122.933 17.166ZM122.933 17.9111L122.11 17.3419L122.095 17.3641L122.081 17.387L122.933 17.9111ZM118.496 17C118.497 17 118.716 16.9975 118.923 17.204L117.509 18.6182C117.834 18.9433 118.24 19 118.496 19V17ZM118.923 17.204C119.124 17.4047 119.127 17.6194 119.127 17.6377H117.127C117.127 17.9021 117.19 18.299 117.509 18.6182L118.923 17.204ZM119.127 17.6377V9.8584H117.127V17.6377H119.127ZM119.127 9.8584C119.127 9.867 119.127 9.92232 119.1 10.0034C119.072 10.09 119.012 10.2108 118.894 10.3198L117.538 8.85016C117.18 9.18028 117.127 9.61087 117.127 9.8584H119.127ZM118.923 10.2921C118.716 10.4986 118.497 10.4961 118.496 10.4961V8.49609C118.24 8.49609 117.834 8.5528 117.509 8.87785L118.923 10.2921ZM118.496 10.4961H122.734V8.49609H118.496V10.4961ZM122.734 10.4961C122.676 10.4961 122.567 10.4873 122.439 10.4304C122.301 10.3691 122.176 10.2671 122.087 10.1328L123.751 9.02342C123.472 8.60484 123.037 8.49609 122.734 8.49609V10.4961ZM122.119 10.1781C122.027 10.0549 121.997 9.9445 121.988 9.90362C121.979 9.85896 121.98 9.83924 121.98 9.8584H123.98C123.98 9.68162 123.965 9.30568 123.719 8.97813L122.119 10.1781ZM121.98 9.8584V10.0566H123.98V9.8584H121.98ZM121.98 10.0566C121.98 10.0661 121.979 10.0428 121.989 9.99777C121.999 9.95343 122.026 9.86311 122.097 9.76087L123.741 10.8993C123.954 10.5915 123.98 10.2546 123.98 10.0566H121.98ZM122.067 9.80598C122.147 9.6758 122.267 9.5656 122.412 9.49573C122.547 9.43033 122.667 9.41895 122.734 9.41895V11.4189C123.07 11.4189 123.506 11.284 123.771 10.8542L122.067 9.80598ZM122.734 9.41895H119.2V11.4189H122.734V9.41895ZM118.2 10.4189V13.1875H120.2V10.4189H118.2ZM119.2 14.1875H122.372V12.1875H119.2V14.1875ZM122.372 14.1875C122.304 14.1875 122.185 14.1761 122.049 14.1107C121.904 14.0408 121.785 13.9306 121.705 13.8005L123.408 12.7523C123.144 12.3225 122.708 12.1875 122.372 12.1875V14.1875ZM121.734 13.8456C121.661 13.7393 121.635 13.6464 121.626 13.6053C121.617 13.5627 121.618 13.5426 121.618 13.5566H123.618C123.618 13.3634 123.595 13.0193 123.379 12.7072L121.734 13.8456ZM121.618 13.5566V13.7412H123.618V13.5566H121.618ZM121.618 13.7412C121.618 13.7552 121.617 13.7352 121.626 13.6926C121.635 13.6515 121.661 13.5585 121.734 13.4523L123.379 14.5907C123.595 14.2786 123.618 13.9345 123.618 13.7412H121.618ZM121.725 13.4668C121.814 13.3325 121.939 13.2305 122.077 13.1692C122.205 13.1123 122.314 13.1035 122.372 13.1035V15.1035C122.675 15.1035 123.11 14.9948 123.389 14.5762L121.725 13.4668ZM122.372 13.1035H119.2V15.1035H122.372V13.1035ZM118.2 14.1035V17.0771H120.2V14.1035H118.2ZM119.2 18.0771H122.748V16.0771H119.2V18.0771ZM122.748 18.0771C122.68 18.0771 122.561 18.0658 122.425 18.0004C122.28 17.9305 122.161 17.8203 122.081 17.6901L123.784 16.6419C123.52 16.2121 123.084 16.0771 122.748 16.0771V18.0771ZM122.133 17.766C122.043 17.647 122.013 17.5396 122.003 17.4949C121.993 17.4477 121.994 17.4247 121.994 17.4395H123.994C123.994 17.2576 123.975 16.8895 123.733 16.566L122.133 17.766ZM121.994 17.4395V17.6377H123.994V17.4395H121.994ZM121.994 17.6377C121.994 17.6472 121.993 17.6238 122.003 17.5788C122.013 17.5345 122.04 17.4442 122.11 17.3419L123.755 18.4803C123.968 18.1726 123.994 17.8357 123.994 17.6377H121.994ZM122.081 17.387C122.161 17.2569 122.28 17.1467 122.425 17.0768C122.561 17.0114 122.68 17 122.748 17V19C123.084 19 123.52 18.865 123.784 18.4352L122.081 17.387ZM122.748 17H118.496V19H122.748V17Z" fill="black"/>
</svg>
