<svg width="445" height="700" viewBox="0 0 445 700" fill="none" xmlns="http://www.w3.org/2000/svg">
<rect width="445" height="700" fill="#004170"/>
<rect x="19" y="30" width="408" height="640" fill="black"/>
<rect x="63" y="58" width="322" height="100" rx="20" fill="#004170"/>
<path d="M111.848 121.176C108.426 121.176 105.895 120.273 104.254 118.469C102.613 116.664 101.793 113.857 101.793 110.049C101.793 102.631 105.162 98.9219 111.9 98.9219C112.885 98.9219 113.84 99.0273 114.766 99.2383C115.691 99.4375 116.441 99.6895 117.016 99.9941C117.59 100.299 117.877 100.592 117.877 100.873C117.877 101.049 117.812 101.283 117.684 101.576C117.566 101.869 117.426 102.127 117.262 102.35C117.098 102.572 116.951 102.684 116.822 102.684C116.764 102.684 116.6 102.607 116.33 102.455C115.721 102.127 115.082 101.852 114.414 101.629C113.746 101.406 112.932 101.295 111.971 101.295C109.451 101.295 107.594 101.998 106.398 103.404C105.215 104.799 104.623 107.025 104.623 110.084C104.623 113.072 105.209 115.275 106.381 116.693C107.564 118.1 109.387 118.803 111.848 118.803C112.879 118.803 113.764 118.68 114.502 118.434C115.24 118.188 115.949 117.883 116.629 117.52C116.957 117.344 117.156 117.256 117.227 117.256C117.355 117.256 117.502 117.367 117.666 117.59C117.842 117.812 117.994 118.064 118.123 118.346C118.252 118.615 118.316 118.809 118.316 118.926C118.316 119.219 118.018 119.547 117.42 119.91C116.834 120.262 116.043 120.561 115.047 120.807C114.062 121.053 112.996 121.176 111.848 121.176ZM123.66 121.053C122.816 121.053 122.395 120.824 122.395 120.367V99.748C122.395 99.2793 122.816 99.0449 123.66 99.0449H123.906C124.738 99.0449 125.154 99.2793 125.154 99.748V108.59H136.475V99.748C136.475 99.2793 136.891 99.0449 137.723 99.0449H137.969C138.801 99.0449 139.217 99.2793 139.217 99.748V120.367C139.217 120.602 139.117 120.777 138.918 120.895C138.719 121 138.402 121.053 137.969 121.053H137.723C137.289 121.053 136.973 121 136.773 120.895C136.574 120.777 136.475 120.602 136.475 120.367V110.963H125.154V120.367C125.154 120.824 124.738 121.053 123.906 121.053H123.66ZM153.701 121.176C150.572 121.176 148.188 120.227 146.547 118.328C144.906 116.43 144.086 113.652 144.086 109.996C144.086 106.352 144.9 103.598 146.529 101.734C148.17 99.8594 150.561 98.9219 153.701 98.9219C156.854 98.9219 159.25 99.8594 160.891 101.734C162.531 103.598 163.352 106.352 163.352 109.996C163.352 113.652 162.531 116.43 160.891 118.328C159.25 120.227 156.854 121.176 153.701 121.176ZM153.701 118.803C155.904 118.803 157.592 118.053 158.764 116.553C159.936 115.041 160.521 112.855 160.521 109.996C160.521 107.137 159.936 104.975 158.764 103.51C157.604 102.033 155.916 101.295 153.701 101.295C151.498 101.295 149.816 102.033 148.656 103.51C147.496 104.975 146.916 107.137 146.916 109.996C146.916 112.867 147.496 115.053 148.656 116.553C149.816 118.053 151.498 118.803 153.701 118.803ZM172.773 121.176C171.625 121.176 170.553 121.053 169.557 120.807C168.572 120.549 167.781 120.244 167.184 119.893C166.598 119.529 166.305 119.201 166.305 118.908C166.305 118.744 166.369 118.527 166.498 118.258C166.639 117.988 166.797 117.748 166.973 117.537C167.148 117.326 167.289 117.221 167.395 117.221C167.488 117.221 167.693 117.314 168.01 117.502C168.736 117.877 169.457 118.188 170.172 118.434C170.887 118.68 171.754 118.803 172.773 118.803C173.57 118.803 174.279 118.65 174.9 118.346C175.521 118.041 176.002 117.613 176.342 117.062C176.693 116.5 176.869 115.855 176.869 115.129C176.869 114.355 176.658 113.717 176.236 113.213C175.826 112.697 175.322 112.293 174.725 112C174.139 111.695 173.283 111.32 172.158 110.875C170.939 110.406 169.973 109.973 169.258 109.574C168.555 109.164 167.951 108.572 167.447 107.799C166.955 107.025 166.709 106 166.709 104.723C166.709 103.609 166.996 102.613 167.57 101.734C168.145 100.844 168.959 100.152 170.014 99.6602C171.068 99.168 172.281 98.9219 173.652 98.9219C174.273 98.9219 174.982 99.0098 175.779 99.1855C176.576 99.3496 177.256 99.5781 177.818 99.8711C178.393 100.164 178.68 100.486 178.68 100.838C178.68 100.99 178.615 101.201 178.486 101.471C178.369 101.729 178.229 101.963 178.064 102.174C177.9 102.385 177.771 102.49 177.678 102.49C177.572 102.49 177.361 102.402 177.045 102.227C176.518 101.945 175.996 101.723 175.48 101.559C174.965 101.383 174.338 101.295 173.6 101.295C172.393 101.295 171.414 101.605 170.664 102.227C169.926 102.848 169.557 103.715 169.557 104.828C169.557 105.496 169.721 106.047 170.049 106.48C170.377 106.914 170.793 107.26 171.297 107.518C171.801 107.775 172.504 108.074 173.406 108.414C173.465 108.426 173.6 108.473 173.811 108.555C175.053 109.035 176.066 109.504 176.852 109.961C177.648 110.406 178.322 111.051 178.873 111.895C179.436 112.738 179.717 113.816 179.717 115.129C179.717 116.359 179.43 117.432 178.855 118.346C178.293 119.26 177.484 119.963 176.43 120.455C175.387 120.936 174.168 121.176 172.773 121.176ZM184.762 121C184.434 121 184.193 120.924 184.041 120.771C183.889 120.619 183.812 120.385 183.812 120.068V100.064C183.812 99.7363 183.889 99.502 184.041 99.3613C184.193 99.209 184.434 99.1328 184.762 99.1328H195.66C195.883 99.1328 196.041 99.2031 196.135 99.3438C196.24 99.4844 196.293 99.7246 196.293 100.064V100.574C196.293 100.891 196.24 101.125 196.135 101.277C196.041 101.43 195.883 101.506 195.66 101.506H186.572V108.625H194.729C194.951 108.625 195.109 108.701 195.203 108.854C195.309 109.006 195.361 109.246 195.361 109.574V110.049C195.361 110.377 195.309 110.617 195.203 110.77C195.109 110.91 194.951 110.98 194.729 110.98H186.572V118.627H195.695C195.918 118.627 196.076 118.703 196.17 118.855C196.275 118.996 196.328 119.23 196.328 119.559V120.068C196.328 120.385 196.275 120.619 196.17 120.771C196.076 120.924 195.918 121 195.695 121H184.762ZM212.57 121.053C211.797 121.053 211.375 120.889 211.305 120.561L205.961 100.029C205.949 99.9707 205.932 99.8945 205.908 99.8008C205.885 99.707 205.873 99.6367 205.873 99.5898C205.873 99.4258 205.984 99.2969 206.207 99.2031C206.43 99.0977 206.77 99.0449 207.227 99.0449H207.525C207.865 99.0449 208.146 99.0859 208.369 99.168C208.592 99.25 208.727 99.3789 208.773 99.5547L212.746 114.936C212.816 115.24 212.969 116.02 213.203 117.273C213.262 117.637 213.297 117.83 213.309 117.854C213.566 116.775 213.818 115.773 214.064 114.848L217.844 99.5898C217.926 99.2266 218.33 99.0449 219.057 99.0449H219.549C220.287 99.0449 220.697 99.2266 220.779 99.5898L224.646 114.971C224.764 115.428 224.875 115.973 224.98 116.605C225.098 117.238 225.168 117.654 225.191 117.854C225.438 116.846 225.689 115.855 225.947 114.883L229.727 99.5547C229.809 99.2148 230.219 99.0449 230.957 99.0449H231.15C232.041 99.0449 232.486 99.2266 232.486 99.5898C232.486 99.6719 232.457 99.8184 232.398 100.029L227.002 120.561C226.908 120.889 226.486 121.053 225.736 121.053H224.471C223.709 121.053 223.293 120.889 223.223 120.561L219.795 107.834L219.162 103.773L218.494 107.834L215.084 120.561C215.014 120.889 214.604 121.053 213.854 121.053H212.57ZM233.734 121.053C233.266 121.053 232.926 121.012 232.715 120.93C232.504 120.836 232.398 120.701 232.398 120.525C232.398 120.443 232.428 120.303 232.486 120.104L239.887 99.5547C240.004 99.2148 240.42 99.0449 241.135 99.0449H242.049C242.764 99.0449 243.18 99.2148 243.297 99.5547L250.697 120.121C250.756 120.25 250.785 120.385 250.785 120.525C250.785 120.877 250.346 121.053 249.467 121.053H249.203C248.477 121.053 248.055 120.889 247.938 120.561L246.109 115.428H236.934L235.141 120.561C235.035 120.889 234.619 121.053 233.893 121.053H233.734ZM245.266 113.055L241.996 103.756C241.902 103.498 241.826 103.205 241.768 102.877C241.709 102.549 241.656 102.232 241.609 101.928H241.539C241.398 102.713 241.24 103.322 241.064 103.756L237.795 113.055H245.266ZM255.461 121.053C254.617 121.053 254.195 120.824 254.195 120.367V100.064C254.195 99.7363 254.271 99.502 254.424 99.3613C254.576 99.209 254.816 99.1328 255.145 99.1328H260.4C262.896 99.1328 264.771 99.5723 266.025 100.451C267.291 101.33 267.924 102.73 267.924 104.652C267.924 105.953 267.607 107.049 266.975 107.939C266.354 108.818 265.475 109.48 264.338 109.926V110.049C264.947 110.26 265.445 110.67 265.832 111.279C266.23 111.877 266.67 112.768 267.15 113.951L269.594 120.121C269.652 120.332 269.682 120.479 269.682 120.561C269.682 120.889 269.242 121.053 268.363 121.053H268.047C267.73 121.053 267.455 121.012 267.221 120.93C266.998 120.836 266.857 120.713 266.799 120.561L264.426 114.426C264.121 113.629 263.764 113.008 263.354 112.562C262.943 112.117 262.457 111.807 261.895 111.631C261.332 111.455 260.623 111.367 259.768 111.367H256.955V120.367C256.955 120.824 256.539 121.053 255.707 121.053H255.461ZM261.068 108.994C261.807 108.994 262.48 108.818 263.09 108.467C263.711 108.115 264.197 107.646 264.549 107.061C264.912 106.463 265.094 105.83 265.094 105.162C265.094 103.932 264.719 103.018 263.969 102.42C263.219 101.811 262.182 101.506 260.857 101.506H256.955V108.994H261.068ZM274.551 121.053C273.707 121.053 273.285 120.824 273.285 120.367V100.064C273.285 99.7363 273.361 99.502 273.514 99.3613C273.666 99.209 273.906 99.1328 274.234 99.1328H279.49C281.986 99.1328 283.861 99.5723 285.115 100.451C286.381 101.33 287.014 102.73 287.014 104.652C287.014 105.953 286.697 107.049 286.064 107.939C285.443 108.818 284.564 109.48 283.428 109.926V110.049C284.037 110.26 284.535 110.67 284.922 111.279C285.32 111.877 285.76 112.768 286.24 113.951L288.684 120.121C288.742 120.332 288.771 120.479 288.771 120.561C288.771 120.889 288.332 121.053 287.453 121.053H287.137C286.82 121.053 286.545 121.012 286.311 120.93C286.088 120.836 285.947 120.713 285.889 120.561L283.516 114.426C283.211 113.629 282.854 113.008 282.443 112.562C282.033 112.117 281.547 111.807 280.984 111.631C280.422 111.455 279.713 111.367 278.857 111.367H276.045V120.367C276.045 120.824 275.629 121.053 274.797 121.053H274.551ZM280.158 108.994C280.896 108.994 281.57 108.818 282.18 108.467C282.801 108.115 283.287 107.646 283.639 107.061C284.002 106.463 284.184 105.83 284.184 105.162C284.184 103.932 283.809 103.018 283.059 102.42C282.309 101.811 281.271 101.506 279.947 101.506H276.045V108.994H280.158ZM293.641 121.053C292.797 121.053 292.375 120.824 292.375 120.367V99.748C292.375 99.2793 292.797 99.0449 293.641 99.0449H293.887C294.719 99.0449 295.135 99.2793 295.135 99.748V120.367C295.135 120.824 294.719 121.053 293.887 121.053H293.641ZM309.584 121.176C306.455 121.176 304.07 120.227 302.43 118.328C300.789 116.43 299.969 113.652 299.969 109.996C299.969 106.352 300.783 103.598 302.412 101.734C304.053 99.8594 306.443 98.9219 309.584 98.9219C312.736 98.9219 315.133 99.8594 316.773 101.734C318.414 103.598 319.234 106.352 319.234 109.996C319.234 113.652 318.414 116.43 316.773 118.328C315.133 120.227 312.736 121.176 309.584 121.176ZM309.584 118.803C311.787 118.803 313.475 118.053 314.646 116.553C315.818 115.041 316.404 112.855 316.404 109.996C316.404 107.137 315.818 104.975 314.646 103.51C313.486 102.033 311.799 101.295 309.584 101.295C307.381 101.295 305.699 102.033 304.539 103.51C303.379 104.975 302.799 107.137 302.799 109.996C302.799 112.867 303.379 115.053 304.539 116.553C305.699 118.053 307.381 118.803 309.584 118.803ZM325.316 121.053C324.473 121.053 324.051 120.824 324.051 120.367V100.064C324.051 99.7363 324.127 99.502 324.279 99.3613C324.432 99.209 324.672 99.1328 325 99.1328H330.256C332.752 99.1328 334.627 99.5723 335.881 100.451C337.146 101.33 337.779 102.73 337.779 104.652C337.779 105.953 337.463 107.049 336.83 107.939C336.209 108.818 335.33 109.48 334.193 109.926V110.049C334.803 110.26 335.301 110.67 335.688 111.279C336.086 111.877 336.525 112.768 337.006 113.951L339.449 120.121C339.508 120.332 339.537 120.479 339.537 120.561C339.537 120.889 339.098 121.053 338.219 121.053H337.902C337.586 121.053 337.311 121.012 337.076 120.93C336.854 120.836 336.713 120.713 336.654 120.561L334.281 114.426C333.977 113.629 333.619 113.008 333.209 112.562C332.799 112.117 332.312 111.807 331.75 111.631C331.188 111.455 330.479 111.367 329.623 111.367H326.811V120.367C326.811 120.824 326.395 121.053 325.562 121.053H325.316ZM330.924 108.994C331.662 108.994 332.336 108.818 332.945 108.467C333.566 108.115 334.053 107.646 334.404 107.061C334.768 106.463 334.949 105.83 334.949 105.162C334.949 103.932 334.574 103.018 333.824 102.42C333.074 101.811 332.037 101.506 330.713 101.506H326.811V108.994H330.924ZM347.746 121.176C346.598 121.176 345.525 121.053 344.529 120.807C343.545 120.549 342.754 120.244 342.156 119.893C341.57 119.529 341.277 119.201 341.277 118.908C341.277 118.744 341.342 118.527 341.471 118.258C341.611 117.988 341.77 117.748 341.945 117.537C342.121 117.326 342.262 117.221 342.367 117.221C342.461 117.221 342.666 117.314 342.982 117.502C343.709 117.877 344.43 118.188 345.145 118.434C345.859 118.68 346.727 118.803 347.746 118.803C348.543 118.803 349.252 118.65 349.873 118.346C350.494 118.041 350.975 117.613 351.314 117.062C351.666 116.5 351.842 115.855 351.842 115.129C351.842 114.355 351.631 113.717 351.209 113.213C350.799 112.697 350.295 112.293 349.697 112C349.111 111.695 348.256 111.32 347.131 110.875C345.912 110.406 344.945 109.973 344.23 109.574C343.527 109.164 342.924 108.572 342.42 107.799C341.928 107.025 341.682 106 341.682 104.723C341.682 103.609 341.969 102.613 342.543 101.734C343.117 100.844 343.932 100.152 344.986 99.6602C346.041 99.168 347.254 98.9219 348.625 98.9219C349.246 98.9219 349.955 99.0098 350.752 99.1855C351.549 99.3496 352.229 99.5781 352.791 99.8711C353.365 100.164 353.652 100.486 353.652 100.838C353.652 100.99 353.588 101.201 353.459 101.471C353.342 101.729 353.201 101.963 353.037 102.174C352.873 102.385 352.744 102.49 352.65 102.49C352.545 102.49 352.334 102.402 352.018 102.227C351.49 101.945 350.969 101.723 350.453 101.559C349.938 101.383 349.311 101.295 348.572 101.295C347.365 101.295 346.387 101.605 345.637 102.227C344.898 102.848 344.529 103.715 344.529 104.828C344.529 105.496 344.693 106.047 345.021 106.48C345.35 106.914 345.766 107.26 346.27 107.518C346.773 107.775 347.477 108.074 348.379 108.414C348.438 108.426 348.572 108.473 348.783 108.555C350.025 109.035 351.039 109.504 351.824 109.961C352.621 110.406 353.295 111.051 353.846 111.895C354.408 112.738 354.689 113.816 354.689 115.129C354.689 116.359 354.402 117.432 353.828 118.346C353.266 119.26 352.457 119.963 351.402 120.455C350.359 120.936 349.141 121.176 347.746 121.176Z" fill="white"/>
</svg>
