<svg width="230" height="28" viewBox="0 0 230 28" fill="none" xmlns="http://www.w3.org/2000/svg">
<rect x="1" y="-1" width="228" height="26" transform="matrix(1 0 0 -1 0 26)" fill="#DDAC00" stroke="black" stroke-width="2"/>
<path d="M25.7685 20H24.3835L28.3892 9.09091H29.7528L33.7585 20H32.3736L29.1136 10.8168H29.0284L25.7685 20ZM26.2798 15.7386H31.8622V16.9105H26.2798V15.7386ZM33.5867 10.2628V9.09091H41.7686V10.2628H38.3382V20H37.0171V10.2628H33.5867ZM43.2108 10.2628V9.09091H51.3926V10.2628H47.9622V20H46.6412V10.2628H43.2108ZM53.4314 20V9.09091H57.1175C57.9697 9.09091 58.6693 9.23651 59.2162 9.5277C59.7631 9.81534 60.1679 10.2113 60.4307 10.7156C60.6934 11.2198 60.8248 11.7933 60.8248 12.4361C60.8248 13.0788 60.6934 13.6488 60.4307 14.146C60.1679 14.6431 59.7648 15.0337 59.2215 15.3178C58.6782 15.5984 57.9839 15.7386 57.1388 15.7386H54.1558V14.5455H57.0961C57.6785 14.5455 58.1473 14.4602 58.5024 14.2898C58.8611 14.1193 59.1203 13.8778 59.2801 13.5653C59.4434 13.2493 59.5251 12.8729 59.5251 12.4361C59.5251 11.9993 59.4434 11.6175 59.2801 11.2908C59.1167 10.9641 58.8557 10.712 58.4971 10.5344C58.1384 10.3533 57.6643 10.2628 57.0748 10.2628H54.7524V20H53.4314ZM58.5663 15.0994L61.251 20H59.7169L57.0748 15.0994H58.5663ZM64.3471 9.09091V20H63.0261V9.09091H64.3471ZM66.9958 20V9.09091H70.8097C71.5697 9.09091 72.1965 9.2223 72.6901 9.48509C73.1837 9.74432 73.5512 10.0941 73.7927 10.5344C74.0342 10.9712 74.1549 11.456 74.1549 11.9886C74.1549 12.4574 74.0715 12.8445 73.9046 13.1499C73.7412 13.4553 73.5246 13.6967 73.2547 13.8743C72.9884 14.0518 72.699 14.1832 72.3865 14.2685V14.375C72.7203 14.3963 73.0558 14.5135 73.3932 14.7266C73.7306 14.9396 74.0129 15.245 74.2401 15.6428C74.4674 16.0405 74.5811 16.527 74.5811 17.1023C74.5811 17.6491 74.4568 18.141 74.2082 18.5778C73.9596 19.0146 73.5672 19.3608 73.031 19.6165C72.4948 19.8722 71.797 20 70.9376 20H66.9958ZM68.3169 18.8281H70.9376C71.8005 18.8281 72.4131 18.6612 72.7753 18.3274C73.1411 17.9901 73.324 17.5817 73.324 17.1023C73.324 16.733 73.2298 16.392 73.0416 16.0795C72.8534 15.7635 72.5853 15.5114 72.2373 15.3232C71.8893 15.1314 71.4774 15.0355 71.0015 15.0355H68.3169V18.8281ZM68.3169 13.8849H70.7671C71.1649 13.8849 71.5235 13.8068 71.8431 13.6506C72.1663 13.4943 72.422 13.2741 72.6102 12.9901C72.8019 12.706 72.8978 12.3722 72.8978 11.9886C72.8978 11.5092 72.7309 11.1026 72.3971 10.7688C72.0633 10.4315 71.5342 10.2628 70.8097 10.2628H68.3169V13.8849ZM83.9108 9.09091H85.2318V16.3139C85.2318 17.0597 85.056 17.7255 84.7045 18.3114C84.3564 18.8938 83.8646 19.3537 83.229 19.6911C82.5933 20.0249 81.8476 20.1918 80.9917 20.1918C80.1359 20.1918 79.3902 20.0249 78.7545 19.6911C78.1189 19.3537 77.6253 18.8938 77.2737 18.3114C76.9257 17.7255 76.7517 17.0597 76.7517 16.3139V9.09091H78.0727V16.2074C78.0727 16.7401 78.1899 17.2141 78.4243 17.6296C78.6586 18.0415 78.9925 18.3665 79.4257 18.6044C79.8625 18.8388 80.3845 18.956 80.9917 18.956C81.599 18.956 82.121 18.8388 82.5578 18.6044C82.9946 18.3665 83.3284 18.0415 83.5592 17.6296C83.7936 17.2141 83.9108 16.7401 83.9108 16.2074V9.09091ZM87.2733 10.2628V9.09091H95.4551V10.2628H92.0247V20H90.7037V10.2628H87.2733ZM97.4939 20V9.09091H104.078V10.2628H98.8149V13.9489H103.737V15.1207H98.8149V18.8281H104.163V20H97.4939ZM112.425 11.8182C112.361 11.2784 112.101 10.8594 111.647 10.5611C111.192 10.2628 110.635 10.1136 109.974 10.1136C109.491 10.1136 109.069 10.1918 108.707 10.348C108.348 10.5043 108.067 10.7191 107.865 10.9925C107.666 11.266 107.567 11.5767 107.567 11.9247C107.567 12.2159 107.636 12.4663 107.774 12.6758C107.916 12.8817 108.098 13.054 108.318 13.1925C108.538 13.3274 108.769 13.4393 109.01 13.5281C109.252 13.6133 109.474 13.6825 109.676 13.7358L110.784 14.0341C111.068 14.1087 111.384 14.2116 111.732 14.343C112.084 14.4744 112.419 14.6538 112.739 14.881C113.062 15.1048 113.328 15.3924 113.538 15.744C113.747 16.0955 113.852 16.527 113.852 17.0384C113.852 17.6278 113.698 18.1605 113.389 18.6364C113.083 19.1122 112.636 19.4904 112.046 19.771C111.46 20.0515 110.748 20.1918 109.91 20.1918C109.129 20.1918 108.453 20.0657 107.881 19.8136C107.313 19.5614 106.865 19.2099 106.539 18.7589C106.215 18.3079 106.033 17.7841 105.99 17.1875H107.354C107.389 17.5994 107.528 17.9403 107.769 18.2102C108.014 18.4766 108.323 18.6754 108.696 18.8068C109.072 18.9347 109.477 18.9986 109.91 18.9986C110.415 18.9986 110.867 18.9169 111.269 18.7536C111.67 18.5866 111.988 18.3558 112.222 18.0611C112.457 17.7628 112.574 17.4148 112.574 17.017C112.574 16.6548 112.473 16.3601 112.27 16.1328C112.068 15.9055 111.801 15.7209 111.471 15.5788C111.141 15.4368 110.784 15.3125 110.4 15.206L109.058 14.8224C108.206 14.5774 107.531 14.2276 107.034 13.7731C106.537 13.3185 106.288 12.7237 106.288 11.9886C106.288 11.3778 106.453 10.8452 106.784 10.3906C107.117 9.93253 107.565 9.57741 108.126 9.32528C108.691 9.0696 109.321 8.94176 110.017 8.94176C110.72 8.94176 111.345 9.06783 111.892 9.31996C112.439 9.56854 112.872 9.90945 113.192 10.3427C113.515 10.7759 113.685 11.2678 113.703 11.8182H112.425Z" fill="black"/>
<path fill-rule="evenodd" clip-rule="evenodd" d="M5 7C5 6.46957 5.21071 5.96086 5.58579 5.58579C5.96086 5.21071 6.46957 5 7 5H11.586C12.1164 5.00011 12.625 5.2109 13 5.586L16.414 9C16.7891 9.37499 16.9999 9.88361 17 10.414V19C17 19.5304 16.7893 20.0391 16.4142 20.4142C16.0391 20.7893 15.5304 21 15 21H7C6.46957 21 5.96086 20.7893 5.58579 20.4142C5.21071 20.0391 5 19.5304 5 19V7Z" fill="black"/>
</svg>
