<svg width="230" height="60" viewBox="0 0 230 60" fill="none" xmlns="http://www.w3.org/2000/svg">
<rect x="1" y="-1" width="228" height="58" rx="9" transform="matrix(1 0 0 -1 0 58)" fill="#FFE485" stroke="black" stroke-width="2"/>
<path d="M33.321 24V13.0909H37.0071C37.8594 13.0909 38.5589 13.2365 39.1058 13.5277C39.6527 13.8153 40.0575 14.2113 40.3203 14.7156C40.5831 15.2198 40.7145 15.7933 40.7145 16.4361C40.7145 17.0788 40.5831 17.6488 40.3203 18.146C40.0575 18.6431 39.6545 19.0337 39.1112 19.3178C38.5678 19.5984 37.8736 19.7386 37.0284 19.7386H34.0455V18.5455H36.9858C37.5682 18.5455 38.0369 18.4602 38.392 18.2898C38.7507 18.1193 39.0099 17.8778 39.1697 17.5653C39.3331 17.2493 39.4148 16.8729 39.4148 16.4361C39.4148 15.9993 39.3331 15.6175 39.1697 15.2908C39.0064 14.9641 38.7454 14.712 38.3867 14.5344C38.0281 14.3533 37.554 14.2628 36.9645 14.2628H34.642V24H33.321ZM38.456 19.0994L41.1406 24H39.6065L36.9645 19.0994H38.456ZM47.1345 24V13.0909H53.7183V14.2628H48.4555V17.9489H53.3774V19.1207H48.4555V22.8281H53.8035V24H47.1345ZM60.3181 24V13.0909H66.8593V14.2628H61.6391V17.9489H66.3692V19.1207H61.6391V24H60.3181ZM73.3406 24V13.0909H79.9244V14.2628H74.6616V17.9489H79.5835V19.1207H74.6616V22.8281H80.0096V24H73.3406ZM86.5241 24V13.0909H90.2102C91.0625 13.0909 91.7621 13.2365 92.3089 13.5277C92.8558 13.8153 93.2607 14.2113 93.5234 14.7156C93.7862 15.2198 93.9176 15.7933 93.9176 16.4361C93.9176 17.0788 93.7862 17.6488 93.5234 18.146C93.2607 18.6431 92.8576 19.0337 92.3143 19.3178C91.771 19.5984 91.0767 19.7386 90.2315 19.7386H87.2486V18.5455H90.1889C90.7713 18.5455 91.2401 18.4602 91.5952 18.2898C91.9538 18.1193 92.2131 17.8778 92.3729 17.5653C92.5362 17.2493 92.6179 16.8729 92.6179 16.4361C92.6179 15.9993 92.5362 15.6175 92.3729 15.2908C92.2095 14.9641 91.9485 14.712 91.5898 14.5344C91.2312 14.3533 90.7571 14.2628 90.1676 14.2628H87.8452V24H86.5241ZM91.6591 19.0994L94.3438 24H92.8097L90.1676 19.0994H91.6591ZM100.338 24V13.0909H106.921V14.2628H101.659V17.9489H106.581V19.1207H101.659V22.8281H107.007V24H100.338ZM122.172 13.0909V24H120.893L114.949 15.4347H114.842V24H113.521V13.0909H114.8L120.766 21.6776H120.872V13.0909H122.172ZM137.812 16.5H136.491C136.413 16.12 136.276 15.7862 136.081 15.4986C135.889 15.2109 135.655 14.9695 135.378 14.7741C135.105 14.5753 134.801 14.4261 134.467 14.3267C134.133 14.2273 133.785 14.1776 133.423 14.1776C132.763 14.1776 132.164 14.3445 131.628 14.6783C131.095 15.0121 130.671 15.5039 130.355 16.1538C130.042 16.8036 129.886 17.6009 129.886 18.5455C129.886 19.4901 130.042 20.2873 130.355 20.9371C130.671 21.587 131.095 22.0788 131.628 22.4126C132.164 22.7464 132.763 22.9134 133.423 22.9134C133.785 22.9134 134.133 22.8636 134.467 22.7642C134.801 22.6648 135.105 22.5174 135.378 22.3221C135.655 22.1232 135.889 21.88 136.081 21.5923C136.276 21.3011 136.413 20.9673 136.491 20.5909H137.812C137.713 21.1484 137.532 21.6474 137.269 22.0877C137.006 22.5281 136.68 22.9027 136.289 23.2116C135.898 23.517 135.46 23.7496 134.973 23.9094C134.49 24.0692 133.974 24.1491 133.423 24.1491C132.493 24.1491 131.665 23.9219 130.941 23.4673C130.216 23.0128 129.646 22.3665 129.231 21.5284C128.816 20.6903 128.608 19.696 128.608 18.5455C128.608 17.3949 128.816 16.4006 129.231 15.5625C129.646 14.7244 130.216 14.0781 130.941 13.6236C131.665 13.169 132.493 12.9418 133.423 12.9418C133.974 12.9418 134.49 13.0217 134.973 13.1815C135.46 13.3413 135.898 13.5756 136.289 13.8846C136.68 14.19 137.006 14.5629 137.269 15.0032C137.532 15.44 137.713 15.9389 137.812 16.5ZM144.166 24V13.0909H150.75V14.2628H145.487V17.9489H150.409V19.1207H145.487V22.8281H150.835V24H144.166Z" fill="black"/>
<path fill-rule="evenodd" clip-rule="evenodd" d="M7 13C7 12.4696 7.21071 11.9609 7.58579 11.5858C7.96086 11.2107 8.46957 11 9 11H19C19.5304 11 20.0391 11.2107 20.4142 11.5858C20.7893 11.9609 21 12.4696 21 13V23C21 23.5304 20.7893 24.0391 20.4142 24.4142C20.0391 24.7893 19.5304 25 19 25H9C8.46957 25 7.96086 24.7893 7.58579 24.4142C7.21071 24.0391 7 23.5304 7 23V13ZM18 14H10V22L14 20L18 22V14Z" fill="black"/>
</svg>
