<svg width="326" height="77" viewBox="0 0 326 77" fill="none" xmlns="http://www.w3.org/2000/svg">
<rect x="1" y="1" width="317" height="58" fill="#DDAC00" stroke="black" stroke-width="2"/>
<path d="M46.4545 30.3636C46.4545 32.8182 46.0114 34.9394 45.125 36.7273C44.2386 38.5152 43.0227 39.8939 41.4773 40.8636C39.9318 41.8333 38.1667 42.3182 36.1818 42.3182C34.197 42.3182 32.4318 41.8333 30.8864 40.8636C29.3409 39.8939 28.125 38.5152 27.2386 36.7273C26.3523 34.9394 25.9091 32.8182 25.9091 30.3636C25.9091 27.9091 26.3523 25.7879 27.2386 24C28.125 22.2121 29.3409 20.8333 30.8864 19.8636C32.4318 18.8939 34.197 18.4091 36.1818 18.4091C38.1667 18.4091 39.9318 18.8939 41.4773 19.8636C43.0227 20.8333 44.2386 22.2121 45.125 24C46.0114 25.7879 46.4545 27.9091 46.4545 30.3636ZM43.7273 30.3636C43.7273 28.3485 43.3902 26.6477 42.7159 25.2614C42.0492 23.875 41.1439 22.8258 40 22.1136C38.8636 21.4015 37.5909 21.0455 36.1818 21.0455C34.7727 21.0455 33.4962 21.4015 32.3523 22.1136C31.2159 22.8258 30.3106 23.875 29.6364 25.2614C28.9697 26.6477 28.6364 28.3485 28.6364 30.3636C28.6364 32.3788 28.9697 34.0795 29.6364 35.4659C30.3106 36.8523 31.2159 37.9015 32.3523 38.6136C33.4962 39.3258 34.7727 39.6818 36.1818 39.6818C37.5909 39.6818 38.8636 39.3258 40 38.6136C41.1439 37.9015 42.0492 36.8523 42.7159 35.4659C43.3902 34.0795 43.7273 32.3788 43.7273 30.3636ZM51.1932 42V18.7273H59.3295C60.9508 18.7273 62.2879 19.0076 63.3409 19.5682C64.3939 20.1212 65.178 20.8674 65.6932 21.8068C66.2083 22.7386 66.4659 23.7727 66.4659 24.9091C66.4659 25.9091 66.2879 26.7348 65.9318 27.3864C65.5833 28.0379 65.1212 28.553 64.5455 28.9318C63.9773 29.3106 63.3598 29.5909 62.6932 29.7727V30C63.4053 30.0455 64.1212 30.2955 64.8409 30.75C65.5606 31.2045 66.1629 31.8561 66.6477 32.7045C67.1326 33.553 67.375 34.5909 67.375 35.8182C67.375 36.9848 67.1098 38.0341 66.5795 38.9659C66.0492 39.8977 65.2121 40.6364 64.0682 41.1818C62.9242 41.7273 61.4356 42 59.6023 42H51.1932ZM54.0114 39.5H59.6023C61.4432 39.5 62.75 39.1439 63.5227 38.4318C64.303 37.7121 64.6932 36.8409 64.6932 35.8182C64.6932 35.0303 64.4924 34.303 64.0909 33.6364C63.6894 32.9621 63.1174 32.4242 62.375 32.0227C61.6326 31.6136 60.7538 31.4091 59.7386 31.4091H54.0114V39.5ZM54.0114 28.9545H59.2386C60.0871 28.9545 60.8523 28.7879 61.5341 28.4545C62.2235 28.1212 62.7689 27.6515 63.1705 27.0455C63.5795 26.4394 63.7841 25.7273 63.7841 24.9091C63.7841 23.8864 63.428 23.0189 62.7159 22.3068C62.0038 21.5871 60.875 21.2273 59.3295 21.2273H54.0114V28.9545ZM80.9148 18.7273H83.733V35.3636C83.733 36.8485 83.4602 38.1098 82.9148 39.1477C82.3693 40.1856 81.6004 40.9735 80.608 41.5114C79.6155 42.0492 78.4451 42.3182 77.0966 42.3182C75.8239 42.3182 74.6913 42.0871 73.6989 41.625C72.7064 41.1553 71.9261 40.4886 71.358 39.625C70.7898 38.7614 70.5057 37.7348 70.5057 36.5455H73.2784C73.2784 37.2045 73.4413 37.7803 73.767 38.2727C74.1004 38.7576 74.5549 39.1364 75.1307 39.4091C75.7064 39.6818 76.3617 39.8182 77.0966 39.8182C77.9072 39.8182 78.5966 39.6477 79.1648 39.3068C79.733 38.9659 80.1648 38.4659 80.4602 37.8068C80.7633 37.1402 80.9148 36.3258 80.9148 35.3636V18.7273ZM89.3807 42V18.7273H103.426V21.2273H92.1989V29.0909H102.699V31.5909H92.1989V39.5H103.608V42H89.3807ZM127.233 26H124.415C124.248 25.1894 123.956 24.4773 123.54 23.8636C123.131 23.25 122.631 22.7348 122.04 22.3182C121.456 21.8939 120.809 21.5758 120.097 21.3636C119.384 21.1515 118.642 21.0455 117.869 21.0455C116.46 21.0455 115.184 21.4015 114.04 22.1136C112.903 22.8258 111.998 23.875 111.324 25.2614C110.657 26.6477 110.324 28.3485 110.324 30.3636C110.324 32.3788 110.657 34.0795 111.324 35.4659C111.998 36.8523 112.903 37.9015 114.04 38.6136C115.184 39.3258 116.46 39.6818 117.869 39.6818C118.642 39.6818 119.384 39.5758 120.097 39.3636C120.809 39.1515 121.456 38.8371 122.04 38.4205C122.631 37.9962 123.131 37.4773 123.54 36.8636C123.956 36.2424 124.248 35.5303 124.415 34.7273H127.233C127.021 35.9167 126.634 36.9811 126.074 37.9205C125.513 38.8598 124.816 39.6591 123.983 40.3182C123.15 40.9697 122.214 41.4659 121.176 41.8068C120.146 42.1477 119.044 42.3182 117.869 42.3182C115.884 42.3182 114.119 41.8333 112.574 40.8636C111.028 39.8939 109.813 38.5152 108.926 36.7273C108.04 34.9394 107.597 32.8182 107.597 30.3636C107.597 27.9091 108.04 25.7879 108.926 24C109.813 22.2121 111.028 20.8333 112.574 19.8636C114.119 18.8939 115.884 18.4091 117.869 18.4091C119.044 18.4091 120.146 18.5795 121.176 18.9205C122.214 19.2614 123.15 19.7614 123.983 20.4205C124.816 21.072 125.513 21.8674 126.074 22.8068C126.634 23.7386 127.021 24.803 127.233 26ZM130.514 21.2273V18.7273H147.969V21.2273H140.651V42H137.832V21.2273H130.514Z" fill="black"/>
<path d="M162.273 18.7273L169.182 38.3182H169.455L176.364 18.7273H179.318L170.773 42H167.864L159.318 18.7273H162.273ZM182.943 42V18.7273H196.989V21.2273H185.761V29.0909H196.261V31.5909H185.761V39.5H197.17V42H182.943ZM202.068 42V18.7273H204.886V29.0909H217.295V18.7273H220.114V42H217.295V31.5909H204.886V42H202.068ZM228.574 18.7273V42H225.756V18.7273H228.574ZM252.952 26H250.134C249.967 25.1894 249.675 24.4773 249.259 23.8636C248.849 23.25 248.349 22.7348 247.759 22.3182C247.175 21.8939 246.527 21.5758 245.815 21.3636C245.103 21.1515 244.361 21.0455 243.588 21.0455C242.179 21.0455 240.902 21.4015 239.759 22.1136C238.622 22.8258 237.717 23.875 237.043 25.2614C236.376 26.6477 236.043 28.3485 236.043 30.3636C236.043 32.3788 236.376 34.0795 237.043 35.4659C237.717 36.8523 238.622 37.9015 239.759 38.6136C240.902 39.3258 242.179 39.6818 243.588 39.6818C244.361 39.6818 245.103 39.5758 245.815 39.3636C246.527 39.1515 247.175 38.8371 247.759 38.4205C248.349 37.9962 248.849 37.4773 249.259 36.8636C249.675 36.2424 249.967 35.5303 250.134 34.7273H252.952C252.74 35.9167 252.353 36.9811 251.793 37.9205C251.232 38.8598 250.535 39.6591 249.702 40.3182C248.868 40.9697 247.933 41.4659 246.895 41.8068C245.865 42.1477 244.762 42.3182 243.588 42.3182C241.603 42.3182 239.838 41.8333 238.293 40.8636C236.747 39.8939 235.531 38.5152 234.645 36.7273C233.759 34.9394 233.315 32.8182 233.315 30.3636C233.315 27.9091 233.759 25.7879 234.645 24C235.531 22.2121 236.747 20.8333 238.293 19.8636C239.838 18.8939 241.603 18.4091 243.588 18.4091C244.762 18.4091 245.865 18.5795 246.895 18.9205C247.933 19.2614 248.868 19.7614 249.702 20.4205C250.535 21.072 251.232 21.8674 251.793 22.8068C252.353 23.7386 252.74 24.803 252.952 26ZM257.506 42V18.7273H260.324V39.5H271.142V42H257.506ZM275.506 42V18.7273H289.551V21.2273H278.324V29.0909H288.824V31.5909H278.324V39.5H289.733V42H275.506Z" fill="#FEFFF9"/>
</svg>
