<svg width="382" height="40" viewBox="0 0 382 40" fill="none" xmlns="http://www.w3.org/2000/svg">
<rect width="382" height="40" rx="20" fill="#E61919"/>
<path d="M32.2468 15V11V15ZM42.1689 15V11V15ZM31.0066 19H43.4092H31.0066ZM28.5261 29H45.8897C46.5476 29 47.1785 28.7893 47.6437 28.4142C48.1089 28.0391 48.3702 27.5304 48.3702 27V15C48.3702 14.4696 48.1089 13.9609 47.6437 13.5858C47.1785 13.2107 46.5476 13 45.8897 13H28.5261C27.8682 13 27.2372 13.2107 26.7721 13.5858C26.3069 13.9609 26.0455 14.4696 26.0455 15V27C26.0455 27.5304 26.3069 28.0391 26.7721 28.4142C27.2372 28.7893 27.8682 29 28.5261 29Z" stroke="white" stroke-width="2" stroke-linecap="round" stroke-linejoin="round"/>
</svg>
