<svg width="231" height="44" viewBox="0 0 231 44" fill="none" xmlns="http://www.w3.org/2000/svg">
<rect x="0.5" y="0.5" width="218" height="43" rx="19.5" fill="black" fill-opacity="0.74" stroke="white"/>
<path d="M68.7614 29V14.4545H73.8466C74.8598 14.4545 75.6955 14.6297 76.3537 14.9801C77.0118 15.3258 77.5019 15.7921 77.8239 16.3793C78.1458 16.9616 78.3068 17.608 78.3068 18.3182C78.3068 18.9432 78.1955 19.4593 77.973 19.8665C77.7552 20.2737 77.4664 20.5956 77.1065 20.8324C76.7514 21.0691 76.3655 21.2443 75.9489 21.358V21.5C76.3939 21.5284 76.8414 21.6847 77.2912 21.9688C77.741 22.2528 78.1174 22.66 78.4205 23.1903C78.7235 23.7206 78.875 24.3693 78.875 25.1364C78.875 25.8655 78.7093 26.5213 78.3778 27.1037C78.0464 27.6861 77.5232 28.1477 76.8082 28.4886C76.0933 28.8295 75.1629 29 74.017 29H68.7614ZM70.5227 27.4375H74.017C75.1676 27.4375 75.9844 27.215 76.4673 26.7699C76.955 26.3201 77.1989 25.7756 77.1989 25.1364C77.1989 24.6439 77.0734 24.1894 76.8224 23.7727C76.5715 23.3513 76.214 23.0152 75.75 22.7642C75.286 22.5085 74.7367 22.3807 74.1023 22.3807H70.5227V27.4375ZM70.5227 20.8466H73.7898C74.3201 20.8466 74.7983 20.7424 75.2244 20.5341C75.6553 20.3258 75.9962 20.0322 76.2472 19.6534C76.5028 19.2746 76.6307 18.8295 76.6307 18.3182C76.6307 17.679 76.4081 17.1368 75.9631 16.6918C75.518 16.242 74.8125 16.017 73.8466 16.017H70.5227V20.8466ZM87.9908 29H86.1442L91.4851 14.4545H93.3033L98.6442 29H96.7976L92.451 16.7557H92.3374L87.9908 29ZM88.6726 23.3182H96.1158V24.8807H88.6726V23.3182ZM118.239 19H116.478C116.374 18.4934 116.192 18.0483 115.931 17.6648C115.675 17.2812 115.363 16.9593 114.994 16.6989C114.629 16.4337 114.224 16.2348 113.779 16.1023C113.334 15.9697 112.87 15.9034 112.387 15.9034C111.506 15.9034 110.709 16.1259 109.994 16.571C109.283 17.0161 108.718 17.6719 108.296 18.5384C107.879 19.4048 107.671 20.4678 107.671 21.7273C107.671 22.9867 107.879 24.0497 108.296 24.9162C108.718 25.7827 109.283 26.4384 109.994 26.8835C110.709 27.3286 111.506 27.5511 112.387 27.5511C112.87 27.5511 113.334 27.4848 113.779 27.3523C114.224 27.2197 114.629 27.0232 114.994 26.7628C115.363 26.4976 115.675 26.1733 115.931 25.7898C116.192 25.4015 116.374 24.9564 116.478 24.4545H118.239C118.107 25.1979 117.865 25.8632 117.515 26.4503C117.165 27.0374 116.729 27.5369 116.208 27.9489C115.687 28.3561 115.103 28.6662 114.454 28.8793C113.81 29.0923 113.121 29.1989 112.387 29.1989C111.147 29.1989 110.043 28.8958 109.077 28.2898C108.112 27.6837 107.352 26.822 106.798 25.7045C106.244 24.5871 105.967 23.2614 105.967 21.7273C105.967 20.1932 106.244 18.8674 106.798 17.75C107.352 16.6326 108.112 15.7708 109.077 15.1648C110.043 14.5587 111.147 14.2557 112.387 14.2557C113.121 14.2557 113.81 14.3622 114.454 14.5753C115.103 14.7884 115.687 15.1009 116.208 15.5128C116.729 15.92 117.165 16.4171 117.515 17.0043C117.865 17.5866 118.107 18.2519 118.239 19ZM126.711 29V14.4545H128.472V21.6705H128.642L135.176 14.4545H137.478L131.37 21.017L137.478 29H135.347L130.29 22.2386L128.472 24.2841V29H126.711Z" fill="white"/>
</svg>
