<svg width="235" height="44" viewBox="0 0 235 44" fill="none" xmlns="http://www.w3.org/2000/svg">
<rect x="0.5" y="0.5" width="218" height="43" rx="19.5" fill="black" fill-opacity="0.74" stroke="white"/>
<path d="M72.7614 29V14.4545H77.8466C78.8598 14.4545 79.6955 14.6297 80.3537 14.9801C81.0118 15.3258 81.5019 15.7921 81.8239 16.3793C82.1458 16.9616 82.3068 17.608 82.3068 18.3182C82.3068 18.9432 82.1955 19.4593 81.973 19.8665C81.7552 20.2737 81.4664 20.5956 81.1065 20.8324C80.7514 21.0691 80.3655 21.2443 79.9489 21.358V21.5C80.3939 21.5284 80.8414 21.6847 81.2912 21.9688C81.741 22.2528 82.1174 22.66 82.4205 23.1903C82.7235 23.7206 82.875 24.3693 82.875 25.1364C82.875 25.8655 82.7093 26.5213 82.3778 27.1037C82.0464 27.6861 81.5232 28.1477 80.8082 28.4886C80.0933 28.8295 79.1629 29 78.017 29H72.7614ZM74.5227 27.4375H78.017C79.1676 27.4375 79.9844 27.215 80.4673 26.7699C80.955 26.3201 81.1989 25.7756 81.1989 25.1364C81.1989 24.6439 81.0734 24.1894 80.8224 23.7727C80.5715 23.3513 80.214 23.0152 79.75 22.7642C79.286 22.5085 78.7367 22.3807 78.1023 22.3807H74.5227V27.4375ZM74.5227 20.8466H77.7898C78.3201 20.8466 78.7983 20.7424 79.2244 20.5341C79.6553 20.3258 79.9962 20.0322 80.2472 19.6534C80.5028 19.2746 80.6307 18.8295 80.6307 18.3182C80.6307 17.679 80.4081 17.1368 79.9631 16.6918C79.518 16.242 78.8125 16.017 77.8466 16.017H74.5227V20.8466ZM91.9908 29H90.1442L95.4851 14.4545H97.3033L102.644 29H100.798L96.451 16.7557H96.3374L91.9908 29ZM92.6726 23.3182H100.116V24.8807H92.6726V23.3182ZM122.239 19H120.478C120.374 18.4934 120.192 18.0483 119.931 17.6648C119.675 17.2812 119.363 16.9593 118.994 16.6989C118.629 16.4337 118.224 16.2348 117.779 16.1023C117.334 15.9697 116.87 15.9034 116.387 15.9034C115.506 15.9034 114.709 16.1259 113.994 16.571C113.283 17.0161 112.718 17.6719 112.296 18.5384C111.879 19.4048 111.671 20.4678 111.671 21.7273C111.671 22.9867 111.879 24.0497 112.296 24.9162C112.718 25.7827 113.283 26.4384 113.994 26.8835C114.709 27.3286 115.506 27.5511 116.387 27.5511C116.87 27.5511 117.334 27.4848 117.779 27.3523C118.224 27.2197 118.629 27.0232 118.994 26.7628C119.363 26.4976 119.675 26.1733 119.931 25.7898C120.192 25.4015 120.374 24.9564 120.478 24.4545H122.239C122.107 25.1979 121.865 25.8632 121.515 26.4503C121.165 27.0374 120.729 27.5369 120.208 27.9489C119.687 28.3561 119.103 28.6662 118.454 28.8793C117.81 29.0923 117.121 29.1989 116.387 29.1989C115.147 29.1989 114.043 28.8958 113.077 28.2898C112.112 27.6837 111.352 26.822 110.798 25.7045C110.244 24.5871 109.967 23.2614 109.967 21.7273C109.967 20.1932 110.244 18.8674 110.798 17.75C111.352 16.6326 112.112 15.7708 113.077 15.1648C114.043 14.5587 115.147 14.2557 116.387 14.2557C117.121 14.2557 117.81 14.3622 118.454 14.5753C119.103 14.7884 119.687 15.1009 120.208 15.5128C120.729 15.92 121.165 16.4171 121.515 17.0043C121.865 17.5866 122.107 18.2519 122.239 19ZM130.711 29V14.4545H132.472V21.6705H132.642L139.176 14.4545H141.478L135.37 21.017L141.478 29H139.347L134.29 22.2386L132.472 24.2841V29H130.711Z" fill="white"/>
<path d="M72.7614 29H71.7614V30H72.7614V29ZM72.7614 14.4545V13.4545H71.7614V14.4545H72.7614ZM80.3537 14.9801L79.8838 15.8628L79.8887 15.8654L80.3537 14.9801ZM81.8239 16.3793L80.947 16.8601L80.9487 16.8631L81.8239 16.3793ZM81.973 19.8665L81.0955 19.3869L81.0912 19.3948L81.973 19.8665ZM81.1065 20.8324L80.5569 19.997L80.5518 20.0003L81.1065 20.8324ZM79.9489 21.358L79.6857 20.3932L78.9489 20.5942V21.358H79.9489ZM79.9489 21.5H78.9489V22.4382L79.8852 22.498L79.9489 21.5ZM81.2912 21.9688L80.7572 22.8142L80.7572 22.8142L81.2912 21.9688ZM82.3778 27.1037L83.247 27.5983L83.247 27.5983L82.3778 27.1037ZM80.8082 28.4886L80.3778 27.586L80.3778 27.586L80.8082 28.4886ZM74.5227 27.4375H73.5227V28.4375H74.5227V27.4375ZM80.4673 26.7699L81.145 27.5052L81.1453 27.505L80.4673 26.7699ZM80.8224 23.7727L79.9632 24.2844L79.9658 24.2887L80.8224 23.7727ZM79.75 22.7642L79.2674 23.6401L79.2743 23.6438L79.75 22.7642ZM74.5227 22.3807V21.3807H73.5227V22.3807H74.5227ZM74.5227 20.8466H73.5227V21.8466H74.5227V20.8466ZM79.2244 20.5341L78.7891 19.6338L78.7852 19.6357L79.2244 20.5341ZM80.2472 19.6534L79.4183 19.0939L79.4135 19.1011L80.2472 19.6534ZM79.9631 16.6918L79.2522 17.3951L79.256 17.3989L79.9631 16.6918ZM74.5227 16.017V15.017H73.5227V16.017H74.5227ZM73.7614 29V14.4545H71.7614V29H73.7614ZM72.7614 15.4545H77.8466V13.4545H72.7614V15.4545ZM77.8466 15.4545C78.7521 15.4545 79.4128 15.6121 79.8838 15.8628L80.8236 14.0974C79.9783 13.6474 78.9676 13.4545 77.8466 13.4545V15.4545ZM79.8887 15.8654C80.3927 16.1301 80.7299 16.4641 80.9471 16.8601L82.7007 15.8984C82.2739 15.1202 81.6309 14.5214 80.8187 14.0948L79.8887 15.8654ZM80.9487 16.8631C81.1833 17.2874 81.3068 17.7654 81.3068 18.3182H83.3068C83.3068 17.4505 83.1084 16.6359 82.699 15.8954L80.9487 16.8631ZM81.3068 18.3182C81.3068 18.8313 81.2146 19.169 81.0955 19.3869L82.8505 20.346C83.1765 19.7496 83.3068 19.055 83.3068 18.3182H81.3068ZM81.0912 19.3948C80.9462 19.6659 80.7675 19.8585 80.5569 19.997L81.6562 21.6678C82.1653 21.3328 82.5642 20.8815 82.8548 20.3381L81.0912 19.3948ZM80.5518 20.0003C80.2872 20.1767 80 20.3075 79.6857 20.3932L80.212 22.3227C80.7311 22.1811 81.2156 21.9615 81.6612 21.6644L80.5518 20.0003ZM78.9489 21.358V21.5H80.9489V21.358H78.9489ZM79.8852 22.498C80.1337 22.5138 80.4217 22.6023 80.7572 22.8142L81.8252 21.1233C81.2611 20.767 80.6542 20.543 80.0126 20.502L79.8852 22.498ZM80.7572 22.8142C81.0494 22.9988 81.3182 23.277 81.5522 23.6865L83.2887 22.6942C82.9166 22.0431 82.4326 21.5069 81.8252 21.1233L80.7572 22.8142ZM81.5522 23.6865C81.7495 24.0317 81.875 24.4995 81.875 25.1364H83.875C83.875 24.2392 83.6975 23.4096 83.2887 22.6942L81.5522 23.6865ZM81.875 25.1364C81.875 25.7078 81.7469 26.1905 81.5087 26.6091L83.247 27.5983C83.6716 26.8521 83.875 26.0232 83.875 25.1364H81.875ZM81.5087 26.6091C81.2957 26.9833 80.9427 27.3167 80.3778 27.586L81.2386 29.3913C82.1037 28.9788 82.7971 28.3888 83.247 27.5983L81.5087 26.6091ZM80.3778 27.586C79.8436 27.8407 79.0755 28 78.017 28V30C79.2503 30 80.343 29.8183 81.2386 29.3913L80.3778 27.586ZM78.017 28H72.7614V30H78.017V28ZM74.5227 28.4375H78.017V26.4375H74.5227V28.4375ZM78.017 28.4375C79.2462 28.4375 80.3809 28.2094 81.145 27.5052L79.7896 26.0345C79.5878 26.2205 79.0891 26.4375 78.017 26.4375V28.4375ZM81.1453 27.505C81.8295 26.874 82.1989 26.0666 82.1989 25.1364H80.1989C80.1989 25.4846 80.0806 25.7662 79.7893 26.0348L81.1453 27.505ZM82.1989 25.1364C82.1989 24.4645 82.025 23.8312 81.6791 23.2568L79.9658 24.2887C80.1217 24.5476 80.1989 24.8234 80.1989 25.1364H82.1989ZM81.6816 23.2611C81.3314 22.673 80.836 22.2146 80.2257 21.8846L79.2743 23.6438C79.5921 23.8157 79.8116 24.0297 79.9633 24.2844L81.6816 23.2611ZM80.2326 21.8884C79.5941 21.5366 78.8722 21.3807 78.1023 21.3807V23.3807C78.6012 23.3807 78.9778 23.4805 79.2674 23.64L80.2326 21.8884ZM78.1023 21.3807H74.5227V23.3807H78.1023V21.3807ZM73.5227 22.3807V27.4375H75.5227V22.3807H73.5227ZM74.5227 21.8466H77.7898V19.8466H74.5227V21.8466ZM77.7898 21.8466C78.4542 21.8466 79.0853 21.7152 79.6636 21.4325L78.7852 19.6357C78.5112 19.7696 78.186 19.8466 77.7898 19.8466V21.8466ZM79.6597 21.4344C80.2432 21.1522 80.7254 20.7422 81.0808 20.2057L79.4135 19.1011C79.2671 19.3222 79.0674 19.4993 78.7891 19.6338L79.6597 21.4344ZM81.076 20.2129C81.4563 19.6495 81.6307 19.0043 81.6307 18.3182H79.6307C79.6307 18.6548 79.5494 18.8997 79.4183 19.0939L81.076 20.2129ZM81.6307 18.3182C81.6307 17.4184 81.306 16.6205 80.6702 15.9847L79.256 17.3989C79.5103 17.6532 79.6307 17.9396 79.6307 18.3182H81.6307ZM80.6739 15.9884C79.9621 15.269 78.9414 15.017 77.8466 15.017V17.017C78.6836 17.017 79.0739 17.2149 79.2522 17.3951L80.6739 15.9884ZM77.8466 15.017H74.5227V17.017H77.8466V15.017ZM73.5227 16.017V20.8466H75.5227V16.017H73.5227ZM91.9908 29V30H92.6969L92.9332 29.3345L91.9908 29ZM90.1442 29L89.2055 28.6553L88.7117 30H90.1442V29ZM95.4851 14.4545V13.4545H94.787L94.5464 14.1099L95.4851 14.4545ZM97.3033 14.4545L98.242 14.1099L98.0014 13.4545H97.3033V14.4545ZM102.644 29V30H104.077L103.583 28.6553L102.644 29ZM100.798 29L99.8552 29.3345L100.091 30H100.798V29ZM96.451 16.7557L97.3934 16.4211L97.1571 15.7557H96.451V16.7557ZM96.3374 16.7557V15.7557H95.6312L95.395 16.4211L96.3374 16.7557ZM92.6726 23.3182V22.3182H91.6726V23.3182H92.6726ZM100.116 23.3182H101.116V22.3182H100.116V23.3182ZM100.116 24.8807V25.8807H101.116V24.8807H100.116ZM92.6726 24.8807H91.6726V25.8807H92.6726V24.8807ZM91.9908 28H90.1442V30H91.9908V28ZM91.0829 29.3447L96.4238 14.7992L94.5464 14.1099L89.2055 28.6553L91.0829 29.3447ZM95.4851 15.4545H97.3033V13.4545H95.4851V15.4545ZM96.3645 14.7992L101.705 29.3447L103.583 28.6553L98.242 14.1099L96.3645 14.7992ZM102.644 28H100.798V30H102.644V28ZM101.74 28.6655L97.3934 16.4211L95.5086 17.0902L99.8552 29.3345L101.74 28.6655ZM96.451 15.7557H96.3374V17.7557H96.451V15.7557ZM95.395 16.4211L91.0484 28.6655L92.9332 29.3345L97.2797 17.0902L95.395 16.4211ZM92.6726 24.3182H100.116V22.3182H92.6726V24.3182ZM99.1158 23.3182V24.8807H101.116V23.3182H99.1158ZM100.116 23.8807H92.6726V25.8807H100.116V23.8807ZM93.6726 24.8807V23.3182H91.6726V24.8807H93.6726ZM122.239 19V20H123.432L123.224 18.8255L122.239 19ZM120.478 19L119.498 19.2014L119.663 20H120.478V19ZM119.931 17.6648L119.099 18.2195L119.104 18.2265L119.931 17.6648ZM118.994 16.6989L118.405 17.5076L118.411 17.5119L118.417 17.5161L118.994 16.6989ZM117.779 16.1023L117.494 17.0607L117.494 17.0607L117.779 16.1023ZM113.994 16.571L113.465 15.7221L113.463 15.7237L113.994 16.571ZM112.296 18.5384L111.397 18.101L111.395 18.105L112.296 18.5384ZM112.296 24.9162L111.395 25.3496L111.397 25.3536L112.296 24.9162ZM113.994 26.8835L113.463 27.7309L113.465 27.7325L113.994 26.8835ZM117.779 27.3523L117.494 26.3939L117.494 26.3939L117.779 27.3523ZM118.994 26.7628L119.575 27.5765L119.577 27.5751L118.994 26.7628ZM119.931 25.7898L119.101 25.2327L119.099 25.2351L119.931 25.7898ZM120.478 24.4545V23.4545H119.664L119.499 24.2513L120.478 24.4545ZM122.239 24.4545L123.224 24.6301L123.433 23.4545H122.239V24.4545ZM121.515 26.4503L120.656 25.9378L120.656 25.9378L121.515 26.4503ZM120.208 27.9489L120.824 28.7367L120.828 28.7332L120.208 27.9489ZM118.454 28.8793L118.142 27.9292L118.14 27.9299L118.454 28.8793ZM113.077 28.2898L112.546 29.1368L112.546 29.1368L113.077 28.2898ZM110.798 25.7045L111.694 25.2604L111.694 25.2604L110.798 25.7045ZM110.798 17.75L109.902 17.3058L110.798 17.75ZM118.454 14.5753L118.14 15.5247L118.142 15.5253L118.454 14.5753ZM120.208 15.5128L119.588 16.2971L119.592 16.3006L120.208 15.5128ZM121.515 17.0043L120.656 17.5167L120.658 17.5198L121.515 17.0043ZM122.239 18H120.478V20H122.239V18ZM121.457 18.7986C121.33 18.1779 121.101 17.6074 120.758 17.103L119.104 18.2265C119.282 18.4892 119.418 18.8088 119.498 19.2014L121.457 18.7986ZM120.763 17.1101C120.441 16.6261 120.042 16.2145 119.57 15.8816L118.417 17.5161C118.684 17.7041 118.91 17.9364 119.099 18.2195L120.763 17.1101ZM119.582 15.8901C119.123 15.5563 118.615 15.3078 118.065 15.1439L117.494 17.0607C117.833 17.1619 118.135 17.3111 118.405 17.5076L119.582 15.8901ZM118.065 15.1439C117.523 14.9826 116.963 14.9034 116.387 14.9034V16.9034C116.777 16.9034 117.145 16.9568 117.494 17.0607L118.065 15.1439ZM116.387 14.9034C115.329 14.9034 114.346 15.1736 113.465 15.7221L114.522 17.42C115.071 17.0782 115.684 16.9034 116.387 16.9034V14.9034ZM113.463 15.7237C112.571 16.2824 111.888 17.0918 111.397 18.101L113.195 18.9757C113.547 18.252 113.996 17.7498 114.525 17.4184L113.463 15.7237ZM111.395 18.105C110.896 19.1418 110.671 20.3624 110.671 21.7273H112.671C112.671 20.5732 112.863 19.6678 113.197 18.9717L111.395 18.105ZM110.671 21.7273C110.671 23.0922 110.896 24.3127 111.395 25.3496L113.197 24.4828C112.863 23.7867 112.671 22.8813 112.671 21.7273H110.671ZM111.397 25.3536C111.888 26.3628 112.571 27.1722 113.463 27.7309L114.525 26.0362C113.996 25.7047 113.547 25.2026 113.195 24.4788L111.397 25.3536ZM113.465 27.7325C114.346 28.2809 115.329 28.5511 116.387 28.5511V26.5511C115.684 26.5511 115.071 26.3763 114.522 26.0346L113.465 27.7325ZM116.387 28.5511C116.963 28.5511 117.523 28.4719 118.065 28.3107L117.494 26.3939C117.145 26.4978 116.777 26.5511 116.387 26.5511V28.5511ZM118.065 28.3107C118.612 28.1477 119.117 27.9035 119.575 27.5765L118.412 25.9491C118.141 26.1429 117.837 26.2917 117.494 26.3939L118.065 28.3107ZM119.577 27.5751C120.045 27.2388 120.442 26.8267 120.763 26.3445L119.099 25.2351C118.909 25.5199 118.681 25.7565 118.41 25.9505L119.577 27.5751ZM120.762 26.3468C121.101 25.8414 121.329 25.2738 121.457 24.6578L119.499 24.2513C119.418 24.639 119.282 24.9616 119.101 25.2327L120.762 26.3468ZM120.478 25.4545H122.239V23.4545H120.478V25.4545ZM121.255 24.279C121.141 24.9158 120.939 25.4648 120.656 25.9378L122.374 26.9627C122.792 26.2616 123.072 25.4801 123.224 24.6301L121.255 24.279ZM120.656 25.9378C120.366 26.4237 120.01 26.8302 119.588 27.1645L120.828 28.7332C121.447 28.2436 121.963 27.6511 122.374 26.9627L120.656 25.9378ZM119.592 27.1611C119.165 27.4947 118.684 27.751 118.142 27.9292L118.766 29.8293C119.521 29.5814 120.209 29.2175 120.824 28.7367L119.592 27.1611ZM118.14 27.9299C117.605 28.1068 117.023 28.1989 116.387 28.1989V30.1989C117.219 30.1989 118.015 30.0779 118.768 29.8286L118.14 27.9299ZM116.387 28.1989C115.317 28.1989 114.402 27.9401 113.609 27.4427L112.546 29.1368C113.685 29.8516 114.976 30.1989 116.387 30.1989V28.1989ZM113.609 27.4427C112.814 26.9438 112.173 26.2285 111.694 25.2604L109.902 26.1487C110.53 27.4155 111.409 28.4236 112.546 29.1368L113.609 27.4427ZM111.694 25.2604C111.222 24.3091 110.967 23.1421 110.967 21.7273H108.967C108.967 23.3807 109.265 24.8651 109.902 26.1487L111.694 25.2604ZM110.967 21.7273C110.967 20.3125 111.222 19.1454 111.694 18.1942L109.902 17.3058C109.265 18.5894 108.967 20.0739 108.967 21.7273H110.967ZM111.694 18.1942C112.173 17.2261 112.814 16.5107 113.609 16.0118L112.546 14.3177C111.409 15.031 110.53 16.0391 109.902 17.3058L111.694 18.1942ZM113.609 16.0118C114.402 15.5144 115.317 15.2557 116.387 15.2557V13.2557C114.976 13.2557 113.685 13.603 112.546 14.3177L113.609 16.0118ZM116.387 15.2557C117.023 15.2557 117.605 15.3478 118.14 15.5247L118.768 13.6259C118.015 13.3767 117.219 13.2557 116.387 13.2557V15.2557ZM118.142 15.5253C118.682 15.7028 119.162 15.9602 119.588 16.2971L120.828 14.7284C120.213 14.2415 119.523 13.8739 118.766 13.6252L118.142 15.5253ZM119.592 16.3006C120.012 16.6292 120.367 17.0319 120.656 17.5167L122.374 16.4918C121.962 15.8024 121.445 15.2108 120.824 14.725L119.592 16.3006ZM120.658 17.5198C120.938 17.9856 121.141 18.5328 121.255 19.1745L123.224 18.8255C123.073 17.971 122.792 17.1877 122.372 16.4887L120.658 17.5198ZM130.711 29H129.711V30H130.711V29ZM130.711 14.4545V13.4545H129.711V14.4545H130.711ZM132.472 14.4545H133.472V13.4545H132.472V14.4545ZM132.472 21.6705H131.472V22.6705H132.472V21.6705ZM132.642 21.6705V22.6705H133.086L133.384 22.3417L132.642 21.6705ZM139.176 14.4545V13.4545H138.733L138.435 13.7833L139.176 14.4545ZM141.478 14.4545L142.21 15.1358L143.774 13.4545H141.478V14.4545ZM135.37 21.017L134.638 20.3357L134.062 20.954L134.575 21.6247L135.37 21.017ZM141.478 29V30H143.502L142.272 28.3923L141.478 29ZM139.347 29L138.546 29.5989L138.846 30H139.347V29ZM134.29 22.2386L135.091 21.6397L134.357 20.6583L133.543 21.5743L134.29 22.2386ZM132.472 24.2841L131.725 23.6197L131.472 23.9039V24.2841H132.472ZM132.472 29V30H133.472V29H132.472ZM131.711 29V14.4545H129.711V29H131.711ZM130.711 15.4545H132.472V13.4545H130.711V15.4545ZM131.472 14.4545V21.6705H133.472V14.4545H131.472ZM132.472 22.6705H132.642V20.6705H132.472V22.6705ZM133.384 22.3417L139.918 15.1258L138.435 13.7833L131.901 20.9992L133.384 22.3417ZM139.176 15.4545H141.478V13.4545H139.176V15.4545ZM140.746 13.7732L134.638 20.3357L136.102 21.6983L142.21 15.1358L140.746 13.7732ZM134.575 21.6247L140.683 29.6077L142.272 28.3923L136.164 20.4094L134.575 21.6247ZM141.478 28H139.347V30H141.478V28ZM140.148 28.4011L135.091 21.6397L133.489 22.8376L138.546 29.5989L140.148 28.4011ZM133.543 21.5743L131.725 23.6197L133.219 24.9485L135.038 22.903L133.543 21.5743ZM131.472 24.2841V29H133.472V24.2841H131.472ZM132.472 28H130.711V30H132.472V28Z" fill="black"/>
</svg>
